<svg xmlns="http://www.w3.org/2000/svg" viewBox="0 0 32 32" role="img" aria-label="Apple Face BD">
  <rect width="32" height="32" rx="5" fill="#000000"/>
  <g fill="#ffffff">
    <path d="M16.2 5.5c.6-.9 1.6-1.5 2.7-1.7.1.9-.3 1.8-.9 2.5-.7.8-1.6 1.3-2.7 1.2-.1-.9.3-1.7.9-2z"/>
    <path fill-rule="evenodd" d="M23.2 9.2c-2.6-.1-4.8 1.5-6 1.5-1.2 0-3.2-1.4-5.3-1.3-2.7.1-5.2 1.6-6.6 4-2.9 5-.8 12.3 2 16.3 1.4 2 3 4.1 5.1 4 2-.1 2.8-1.3 5.2-1.3 2.4 0 3.1 1.3 5.2 1.3 2.2-.1 3.5-2 4.9-3.9 1.5-2.3 2.2-4.5 2.2-4.6-.1 0-4.2-1.6-4.2-6.3 0-4 3.3-5.9 3.5-6-.1-2.8-3.8-3.1-4.6-3.2zM12.8 12.2c0 2 1.6 4 3.5 5.3 1.9-1.3 3.5-3.3 3.5-5.3 0-1.8-1-3.5-2.6-4.6-.9.8-2.1 1.2-3.3 1.2-1.2 0-2.4-.4-3.3-1.2-1.6 1.1-2.6 2.8-2.6 4.6z"/>
  </g>
  <path fill="#000000" d="M19.8 10.8c1-.1 1.9.3 2.6 1-2.4.3-3.7 2.4-3.5 4.6.8.1 1.5-.2 2.1-.6.6-.5 1-1.2 1-2-.1-1.5-1-2.8-2.2-3z"/>
</svg>
