<?xml version="1.0" encoding="UTF-8"?>
<svg xmlns="http://www.w3.org/2000/svg" xmlns:xlink="http://www.w3.org/1999/xlink" width="200px" height="45px" viewBox="0 0 199 45" version="1.1">
<g id="surface1">
<path style=" stroke:none;fill-rule:nonzero;fill:rgb(12.941177%,12.156863%,12.54902%);fill-opacity:1;" d="M 144.5 35 C 143.699219 34.199219 143.300781 33.199219 143.300781 32 C 143.300781 30.199219 144.101562 28.800781 145.601562 27.898438 C 147.101562 27 149.199219 26.5 151.898438 26.5 L 155.199219 26.699219 L 155.199219 26.898438 L 155.300781 28.398438 C 155.300781 30.5 154.601562 32.398438 153.300781 33.898438 C 152 35.5 150.199219 36.300781 148.199219 36.300781 C 146.5 36.300781 145.300781 35.800781 144.5 35 M 140.800781 21.101562 C 141.101562 21.199219 143.199219 21.601562 143.398438 21.601562 C 144 18.898438 146.101562 17.5 149.398438 17.5 C 150.898438 17.5 152 17.699219 152.800781 18.300781 C 153.699219 18.800781 154.300781 19.398438 154.601562 20.300781 C 154.800781 21.101562 155 22.398438 155 24.300781 L 155 24.5 L 151.898438 24.398438 C 147.5 24.398438 144.5 25.101562 142.699219 26.5 C 140.898438 28 140 29.699219 140 31.898438 C 140 33.699219 140.601562 35.300781 141.898438 36.601562 C 143.101562 37.898438 145 38.5 147.300781 38.5 C 150.699219 38.5 153.199219 37 154.601562 33.898438 L 154.898438 33.199219 L 155 34 C 155.101562 35.898438 155.199219 37.101562 155.300781 37.898438 L 158.199219 37.898438 C 158 36.601562 157.898438 35.199219 157.898438 33.699219 L 157.898438 24.300781 C 157.898438 20.898438 157.300781 18.601562 156.101562 17.300781 C 154.898438 16 152.800781 15.300781 149.898438 15.300781 C 144.601562 15.199219 141.5 17.199219 140.800781 21.101562 "/>
<path style=" stroke:none;fill-rule:nonzero;fill:rgb(12.941177%,12.156863%,12.54902%);fill-opacity:1;" d="M 58.800781 25.5 L 63.199219 12 L 63.601562 12 L 67.699219 25.800781 L 58.699219 25.800781 Z M 61.601562 7.800781 C 61.5 8.101562 51.601562 37.300781 51.398438 37.898438 L 54.800781 37.898438 C 54.898438 37.699219 57.601562 29 57.601562 29 L 68.800781 29 C 68.800781 29 71.398438 37.601562 71.5 37.898438 L 75.199219 37.898438 C 75.199219 37.398438 65.601562 8.101562 65.5 7.800781 Z M 61.601562 7.800781 "/>
<path style=" stroke:none;fill-rule:nonzero;fill:rgb(12.941177%,12.156863%,12.54902%);fill-opacity:1;" d="M 82.300781 34.5 L 82.300781 23.601562 L 90.101562 23.601562 C 94.699219 23.601562 97 25.398438 97 29 C 97 32.699219 94.699219 34.699219 90.699219 34.699219 L 82.199219 34.699219 Z M 82.300781 20.601562 L 82.300781 11 L 89.5 11 C 93.699219 11 95.601562 12.5 95.601562 15.699219 C 95.601562 19.199219 93.601562 20.800781 89.398438 20.800781 L 82.199219 20.800781 Z M 78.898438 7.800781 L 78.898438 37.898438 L 91.101562 37.898438 C 97.699219 37.898438 100.699219 33.5 100.699219 29.101562 C 100.699219 24.101562 97.601562 22.699219 95.699219 21.800781 L 95.300781 21.601562 L 95.699219 21.398438 C 98.800781 19.898438 99.398438 17.199219 99.398438 15.199219 C 99.398438 10.601562 96.300781 7.699219 91.398438 7.699219 L 78.898438 7.699219 Z M 78.898438 7.800781 "/>
<path style=" stroke:none;fill-rule:nonzero;fill:rgb(12.941177%,12.156863%,12.54902%);fill-opacity:1;" d="M 118.601562 34.5 L 118.601562 23.601562 L 126.398438 23.601562 C 129 23.601562 130.800781 24.199219 132 25.300781 C 132.800781 26.101562 133.300781 27.398438 133.300781 28.898438 C 133.300781 32.601562 131 34.601562 127 34.601562 L 118.5 34.601562 Z M 118.601562 20.601562 L 118.601562 11 L 125.800781 11 C 130 11 131.898438 12.5 131.898438 15.699219 C 131.898438 19.199219 129.898438 20.800781 125.699219 20.800781 L 118.5 20.800781 Z M 115 7.800781 L 115 37.898438 L 127.199219 37.898438 C 133.800781 37.898438 136.800781 33.5 136.800781 29.101562 C 136.800781 24.101562 133.699219 22.699219 131.800781 21.800781 L 131.398438 21.601562 L 131.699219 21.398438 C 134.898438 19.800781 135.398438 16.800781 135.398438 15.199219 C 135.398438 10.601562 132.300781 7.699219 127.5 7.699219 L 115 7.699219 Z M 115 7.800781 "/>
<path style=" stroke:none;fill-rule:nonzero;fill:rgb(12.941177%,12.156863%,12.54902%);fill-opacity:1;" d="M 165.199219 19.101562 L 164.800781 19.199219 L 164.800781 16.101562 L 161.898438 16.101562 L 161.898438 38 L 165 38 L 165 26 C 165 20.398438 168.101562 18.398438 170.699219 18.398438 C 174 18.398438 175.398438 20.199219 175.398438 24.398438 L 175.398438 38 L 178.5 38 L 178.5 23 C 178.5 16.398438 174.101562 15.398438 171.398438 15.398438 C 168.199219 15.5 166.300781 17.5 165.199219 19.101562 "/>
<path style=" stroke:none;fill-rule:nonzero;fill:rgb(12.941177%,12.156863%,12.54902%);fill-opacity:1;" d="M 182 7.800781 L 182 37.898438 L 185 37.898438 L 185 29.601562 L 188.101562 26.5 C 188.101562 26.5 194.601562 37.699219 194.699219 37.800781 L 198.800781 37.800781 C 198.5 37.300781 190.5 24 190.5 24 C 190.5 24 197.699219 16.5 198.300781 16 L 194.300781 16 C 194.199219 16.199219 185.101562 25.601562 185.101562 25.601562 L 185.101562 7.800781 Z M 182 7.800781 "/>
<path style=" stroke:none;fill-rule:nonzero;fill:rgb(93.333334%,10.588235%,13.333334%);fill-opacity:1;" d="M 36.601562 16.199219 C 39.398438 15.101562 42 15.101562 45.101562 11.300781 C 44 10.101562 42.699219 8.898438 40.101562 8.199219 L 39.300781 9 C 36 12.101562 33 11.5 29.699219 13.699219 C 30 13.699219 35 13.898438 36.601562 16.199219 "/>
<path style=" stroke:none;fill-rule:nonzero;fill:rgb(93.333334%,10.588235%,13.333334%);fill-opacity:1;" d="M 27.199219 16.398438 C 29.601562 16.800781 32.199219 16.601562 35.5 19.300781 C 41.5 24 38.300781 28.101562 44.300781 32.800781 L 45.398438 33.601562 C 45.101562 33.5 42 33.101562 39.398438 36.199219 C 35.101562 31.898438 37.300781 28.199219 31.800781 23.699219 C 29.101562 21.601562 27 21.199219 24.898438 20.898438 C 24.898438 21.101562 24.601562 18.5 27.199219 16.398438 "/>
<path style=" stroke:none;fill-rule:nonzero;fill:rgb(93.333334%,10.588235%,13.333334%);fill-opacity:1;" d="M 31.699219 29.5 C 33.800781 33 33.5 35.898438 36.5 39.199219 C 36.5 39.199219 37.199219 40 37.300781 40 C 36.5 42.5 34.800781 43.898438 33.601562 45 C 30.601562 41.898438 30.5 39.101562 29.300781 36.300781 C 29.300781 36.300781 31.199219 35.5 31.699219 29.5 "/>
<path style=" stroke:none;fill-rule:nonzero;fill:rgb(93.333334%,10.588235%,13.333334%);fill-opacity:1;" d="M 9.101562 5.800781 C 12.398438 9.199219 11.699219 12.101562 14 15.398438 C 14 15.398438 14.398438 10 16.5 8.699219 C 15.300781 5.898438 15.300781 3.101562 11.5 0.101562 L 11.398438 0 C 10.300781 1.199219 9 2.699219 8.300781 5.300781 C 8.300781 5.300781 8.699219 5.398438 9.101562 5.800781 "/>
<path style=" stroke:none;fill-rule:nonzero;fill:rgb(93.333334%,10.588235%,13.333334%);fill-opacity:1;" d="M 9.199219 28.898438 C 6.398438 30 3.5 30 0.5 33.898438 L 0.5 34 C 1.699219 35.101562 3 36.398438 5.5 37.101562 C 5.5 37.101562 5.898438 36.699219 6.300781 36.300781 C 9.699219 33.101562 12.601562 33.800781 15.898438 31.5 C 15.800781 31.398438 9.898438 30.699219 9.199219 28.898438 "/>
<path style=" stroke:none;fill-rule:nonzero;fill:rgb(93.333334%,10.588235%,13.333334%);fill-opacity:1;" d="M 21 23.898438 C 20.800781 25.699219 20.800781 26.699219 18.699219 28.601562 C 16.199219 28.398438 13.699219 28.300781 10.398438 25.699219 C 4.398438 21 7.601562 17 1.601562 12.199219 L 0.199219 11.101562 C 0.5 11.199219 3.601562 11.5 6.199219 8.398438 C 10.898438 12.800781 8.300781 16.601562 13.898438 21 C 16.800781 23.398438 18.898438 23.800781 21 23.898438 "/>
<path style=" stroke:none;fill-rule:nonzero;fill:rgb(93.333334%,10.588235%,13.333334%);fill-opacity:1;" d="M 29.101562 26.699219 C 28.898438 29.199219 28.898438 31.699219 26.199219 35 C 21.5 41 17.5 37.800781 12.699219 43.699219 L 11.800781 45 C 11.898438 44.699219 12.300781 41.601562 9.101562 39 C 13.5 34.5 17.199219 36.898438 21.601562 31.398438 C 23.800781 28.601562 24.101562 26.5 24.398438 24.398438 C 25.800781 24.601562 27.699219 24.601562 29.101562 26.699219 "/>
<path style=" stroke:none;fill-rule:nonzero;fill:rgb(93.333334%,10.588235%,13.333334%);fill-opacity:1;" d="M 21.398438 20.601562 C 21.601562 18.5 22 16.398438 24.199219 13.699219 C 28.601562 8.101562 32.398438 10.5 36.699219 6.101562 C 33.601562 3.398438 34 0.398438 34.101562 0.101562 L 33.199219 1.398438 C 28.5 7.398438 24.398438 4.199219 19.699219 10.199219 C 16.800781 13.800781 17.101562 16.398438 16.699219 19.199219 C 17.101562 19.5 18.800781 20.300781 21.398438 20.601562 "/>
</g>
</svg>
