<?xml version="1.0" encoding="UTF-8"?>
<svg xmlns="http://www.w3.org/2000/svg" xmlns:xlink="http://www.w3.org/1999/xlink" width="200px" height="43px" viewBox="0 0 197 43" version="1.1">
<g id="surface1">
<path style="fill-rule:nonzero;fill:rgb(12.54902%,38.431373%,68.627453%);fill-opacity:1;stroke-width:0.6644;stroke-linecap:butt;stroke-linejoin:miter;stroke:rgb(100%,100%,100%);stroke-opacity:1;stroke-miterlimit:4;" d="M 92.803271 335.895908 L 523.096723 335.895908 L 523.096723 429.204106 L 92.803271 429.204106 Z M 92.803271 335.895908 " transform="matrix(0.457119,0,0,0.457489,-42.269794,-153.512526)"/>
<path style=" stroke:none;fill-rule:nonzero;fill:rgb(100%,100%,100%);fill-opacity:1;" d="M 7.097656 8.484375 L 7.097656 35.886719 L 22.824219 35.886719 L 22.824219 24.269531 L 30.414062 24.269531 L 30.414062 35.886719 L 34.527344 35.886719 L 34.527344 8.53125 L 7.097656 8.53125 Z M 11.214844 12.601562 L 18.753906 12.601562 L 18.753906 20.152344 L 11.214844 20.152344 Z M 11.214844 24.222656 L 18.753906 24.222656 L 18.753906 31.769531 L 11.214844 31.769531 Z M 30.414062 20.152344 L 22.871094 20.152344 L 22.871094 12.601562 L 30.414062 12.601562 Z M 30.414062 20.152344 "/>
<path style=" stroke:none;fill-rule:nonzero;fill:rgb(100%,100%,100%);fill-opacity:1;" d="M 51.804688 20.425781 L 51.804688 13.5625 L 53.132812 13.5625 C 55.371094 13.5625 56.511719 14.753906 56.511719 16.992188 C 56.511719 19.28125 55.371094 20.46875 53.085938 20.46875 L 51.804688 20.46875 Z M 47.371094 35.886719 L 55.050781 35.886719 C 59.804688 35.886719 62.730469 33.050781 62.730469 28.386719 C 62.730469 24.816406 61.175781 22.484375 58.113281 21.75 C 59.941406 20.515625 60.582031 19.007812 60.582031 16.398438 C 60.582031 14.203125 59.804688 12.144531 58.523438 11 C 57.382812 9.949219 55.597656 9.398438 52.949219 9.398438 L 47.324219 9.398438 L 47.324219 35.886719 Z M 51.804688 31.726562 L 51.804688 24.359375 L 53.496094 24.359375 C 56.789062 24.359375 58.160156 25.457031 58.160156 28.15625 C 58.160156 30.535156 56.695312 31.726562 53.726562 31.726562 Z M 51.804688 31.726562 "/>
<path style=" stroke:none;fill-rule:nonzero;fill:rgb(100%,100%,100%);fill-opacity:1;" d="M 73.839844 21.890625 C 76.125 21.890625 77.953125 24.039062 77.953125 26.738281 C 77.953125 29.390625 76.125 31.542969 73.839844 31.542969 C 71.554688 31.542969 69.679688 29.347656 69.679688 26.691406 C 69.679688 24.039062 71.507812 21.890625 73.839844 21.890625 Z M 77.496094 18.089844 L 77.496094 20.332031 C 76.078125 18.367188 74.617188 17.542969 72.605469 17.542969 C 68.488281 17.542969 65.382812 21.476562 65.382812 26.648438 C 65.382812 31.953125 68.488281 35.886719 72.695312 35.886719 C 74.707031 35.886719 76.167969 35.019531 77.496094 33.097656 L 77.496094 35.339844 L 81.609375 35.339844 L 81.609375 18.136719 L 77.496094 18.136719 Z M 77.496094 18.089844 "/>
<path style=" stroke:none;fill-rule:nonzero;fill:rgb(100%,100%,100%);fill-opacity:1;" d="M 89.746094 18.640625 L 89.746094 20.789062 C 91.027344 18.824219 92.398438 18.089844 94.410156 18.089844 C 96.101562 18.089844 97.699219 18.871094 98.660156 20.152344 C 99.527344 21.292969 99.804688 22.574219 99.804688 24.910156 L 99.804688 35.886719 L 95.6875 35.886719 L 95.6875 26.328125 C 95.6875 23.351562 94.910156 22.210938 92.855469 22.210938 C 90.75 22.210938 89.699219 23.71875 89.699219 26.96875 L 89.699219 35.886719 L 85.585938 35.886719 L 85.585938 18.6875 L 89.746094 18.6875 Z M 89.746094 18.640625 "/>
<path style=" stroke:none;fill-rule:nonzero;fill:rgb(100%,100%,100%);fill-opacity:1;" d="M 107.941406 24.953125 L 113.46875 18.6875 L 119.09375 18.6875 L 112.144531 26.234375 L 119.640625 35.886719 L 113.929688 35.886719 L 108.398438 28.476562 L 107.941406 28.980469 L 107.941406 35.84375 L 103.824219 35.84375 L 103.824219 7.066406 L 107.941406 7.066406 Z M 107.941406 24.953125 "/>
<path style=" stroke:none;fill-rule:nonzero;fill:rgb(100%,100%,100%);fill-opacity:1;" d="M 142.679688 26.097656 L 136.191406 26.097656 L 139.527344 16.535156 Z M 144.097656 30.261719 L 146.0625 35.886719 L 150.816406 35.886719 L 141.261719 8.804688 L 137.925781 8.804688 L 128.007812 35.886719 L 132.714844 35.886719 L 134.773438 30.261719 Z M 144.097656 30.261719 "/>
<path style=" stroke:none;fill-rule:nonzero;fill:rgb(100%,100%,100%);fill-opacity:1;" d="M 160.917969 22.117188 C 160.050781 21.339844 159.273438 20.972656 158.449219 20.972656 C 157.535156 20.972656 156.851562 21.613281 156.851562 22.390625 C 156.851562 23.214844 157.261719 23.535156 159.226562 24.359375 C 162.703125 25.777344 163.707031 27.011719 163.707031 29.710938 C 163.707031 33.324219 161.148438 35.886719 157.492188 35.886719 C 155.34375 35.886719 153.332031 34.835938 151.914062 33.003906 L 154.0625 30.078125 C 155.25 31.449219 156.347656 32.089844 157.535156 32.089844 C 158.632812 32.089844 159.457031 31.3125 159.457031 30.167969 C 159.457031 29.164062 159.046875 28.84375 157.171875 28.019531 C 155.34375 27.242188 154.976562 27.058594 154.335938 26.507812 C 153.332031 25.730469 152.875 24.542969 152.875 22.988281 C 152.875 19.785156 155.070312 17.453125 158.039062 17.453125 C 160.003906 17.453125 161.46875 18 162.976562 19.28125 Z M 160.917969 22.117188 "/>
<path style=" stroke:none;fill-rule:nonzero;fill:rgb(100%,100%,100%);fill-opacity:1;" d="M 170.703125 35.886719 L 166.585938 35.886719 L 166.585938 18.6875 L 170.703125 18.6875 Z M 171.160156 11.734375 C 171.160156 13.105469 170.015625 14.25 168.644531 14.25 C 167.273438 14.25 166.175781 13.105469 166.175781 11.734375 C 166.175781 10.359375 167.320312 9.214844 168.644531 9.214844 C 170.0625 9.214844 171.160156 10.3125 171.160156 11.734375 Z M 171.160156 11.734375 "/>
<path style=" stroke:none;fill-rule:nonzero;fill:rgb(100%,100%,100%);fill-opacity:1;" d="M 182.265625 21.890625 C 184.550781 21.890625 186.382812 24.039062 186.382812 26.738281 C 186.382812 29.390625 184.550781 31.542969 182.265625 31.542969 C 179.980469 31.542969 178.105469 29.347656 178.105469 26.691406 C 178.0625 24.039062 179.9375 21.890625 182.265625 21.890625 Z M 185.925781 18.089844 L 185.925781 20.332031 C 184.507812 18.367188 183.042969 17.542969 181.03125 17.542969 C 176.917969 17.542969 173.808594 21.476562 173.808594 26.648438 C 173.808594 31.953125 176.917969 35.886719 181.125 35.886719 C 183.136719 35.886719 184.597656 35.019531 185.925781 33.097656 L 185.925781 35.339844 L 190.039062 35.339844 L 190.039062 18.136719 L 185.925781 18.136719 Z M 185.925781 18.089844 "/>
</g>
</svg>
