<?xml version="1.0" encoding="UTF-8" standalone="no"?>
<!-- Created with Inkscape (http://www.inkscape.org/) -->

<svg
   width="199.99997"
   height="51.263161"
   viewBox="0 0 52.916657 13.563378"
   version="1.1"
   id="svg5"
   xmlns="http://www.w3.org/2000/svg"
   xmlns:svg="http://www.w3.org/2000/svg"
   xmlns:rdf="http://www.w3.org/1999/02/22-rdf-syntax-ns#"
   xmlns:cc="http://creativecommons.org/ns#"
   xmlns:dc="http://purl.org/dc/elements/1.1/">
  <title
     id="title23385">BRAC Bank Limited</title>
  <defs
     id="defs2" />
  <g
     id="layer1"
     transform="translate(-32.231557,-66.651218)">
    <g
       id="g12"
       transform="matrix(0.02482998,0,0,-0.02482998,32.231557,80.214595)">
      <path
         d="M 0,317.738 H 228.609 V 546.25 H 0 V 317.738"
         style="fill:#ffffff;fill-opacity:1;fill-rule:nonzero;stroke:none"
         id="path14" />
      <path
         d="M 184.57,487.18 C 150.391,435.527 100.25,367.098 7.10938,372.758 v 166.34 H 216.109 c 0,0 -12.25,-22.797 -31.539,-51.918"
         style="fill:#0071bb;fill-opacity:1;fill-rule:nonzero;stroke:none"
         id="path16" />
      <path
         d="M 7.10938,360.219 V 324.848 H 221.5 V 536.41 c 0,0 -68.621,-189.722 -214.39062,-176.191"
         style="fill:#e5a812;fill-opacity:1;fill-rule:nonzero;stroke:none"
         id="path18" />
      <path
         d="m 79.8594,482.258 c -28.9492,0 -52.3985,-23.32 -52.3985,-52.219 0,-23.828 15.9805,-43.84 37.8985,-50.16 26.0703,8.449 47.7186,23.371 66.1206,40.809 0.559,3.011 0.829,6.171 0.829,9.351 0,28.899 -23.45,52.219 -52.4496,52.219"
         style="fill:#3880c3;fill-opacity:1;fill-rule:nonzero;stroke:none"
         id="path20" />
      <path
         d="m 119.25,430.051 c 0,-21.633 -17.59,-39.211 -39.3906,-39.211 -21.7383,0 -39.3399,17.578 -39.3399,39.211 0,21.597 17.6016,39.078 39.3399,39.078 21.8006,0 39.3906,-17.481 39.3906,-39.078"
         style="fill:#5e93c9;fill-opacity:1;fill-rule:nonzero;stroke:none"
         id="path22" />
      <path
         d="m 106.141,430.051 c 0,-14.461 -11.8597,-26.012 -26.2894,-26.012 -14.4336,0 -26.0821,11.551 -26.0821,26.012 0,14.379 11.6485,26.097 26.0821,26.097 14.4297,0 26.2894,-11.718 26.2894,-26.097"
         style="fill:#8aadd8;fill-opacity:1;fill-rule:nonzero;stroke:none"
         id="path24" />
      <path
         d="m 93.0117,430.051 c 0,-7.262 -5.9219,-13.043 -13.1523,-13.043 -7.2305,0 -13.1094,5.781 -13.1094,13.043 0,7.219 5.8789,13 13.1094,13 7.2304,0 13.1523,-5.781 13.1523,-13"
         style="fill:#bbcede;fill-opacity:1;fill-rule:nonzero;stroke:none"
         id="path26" />
      <path
         d="m 359.68,495.43 h 29.64 c 10.008,0 17.2,-1.75 21.41,-5.242 3.95,-3.469 6.04,-8.278 6.04,-14.411 0,-6.648 -2.09,-11.687 -6.04,-15.199 -4.21,-3.539 -11.531,-5.18 -21.968,-5.18 H 359.68 Z M 291.969,326.359 h 115.883 c 4.839,0 14.988,0.961 29.976,2.871 11.442,1.411 19.891,3.668 25.563,6.95 9.109,5.07 16.269,12.109 21.429,20.859 5.289,8.649 7.879,18.672 7.879,29.609 0,13.59 -3.679,24.79 -11.051,33.75 -7.308,8.903 -18.878,15.243 -34.457,18.903 10.219,3.34 18.008,8.226 23.399,14.058 8.012,9.02 12.09,19.782 12.09,32.379 0,14.942 -5.578,27.551 -16.852,37.629 -11.187,10.133 -27.316,15.313 -48.226,15.313 H 291.969 Z m 67.711,88.551 h 33.961 c 11.91,0 20.039,-1.961 24.789,-5.742 4.699,-3.719 7.09,-8.738 7.09,-14.969 0,-6.738 -2.442,-12.082 -7.141,-16.058 -4.699,-4.024 -12.899,-5.953 -24.52,-5.953 H 359.68"
         style="fill:#0071bb;fill-opacity:1;fill-rule:nonzero;stroke:none"
         id="path28" />
      <path
         d="m 579.051,495.82 h 29.269 c 12.18,0 20.45,-1.812 24.91,-5.543 4.411,-3.558 6.59,-8.879 6.59,-15.629 0,-4.71 -1.39,-8.738 -4.14,-12.359 -2.789,-3.609 -6.442,-5.851 -10.789,-6.68 -8.832,-2.019 -14.75,-2.91 -17.7,-2.91 h -28.14 z m 0,-169.453 v 86.192 h 5.82 c 6.18,0 11.649,-1.551 16.457,-4.86 3.391,-2.551 7.473,-7.961 12.094,-16.39 l 35.68,-64.942 h 75.929 l -32.691,61.481 c -1.668,3.09 -4.75,7.461 -9.379,13.222 -4.652,5.778 -8.199,9.539 -10.742,11.25 -3.668,2.598 -9.418,5.231 -17.418,7.809 10.027,2.199 17.969,5.141 23.668,8.371 9.07,5.25 16.211,12.238 21.332,20.738 5.187,8.621 7.769,18.7 7.769,30.5 0,13.571 -3.34,24.84 -10.129,34.332 -6.703,9.41 -15.57,15.899 -26.531,19.27 -10.969,3.308 -26.922,5.34 -47.601,5.34 H 511.422 V 326.367"
         style="fill:#0071bb;fill-opacity:1;fill-rule:nonzero;stroke:none"
         id="path30" />
      <path
         d="m 819.87678,407.188 23.84,76.281 23.613,-76.281 z m 72.5,-80.829 h 70.332 l -81.109,212.309 h -74.039 l -81.613,-212.309 h 68.601 l 11.059,35.02 h 75.871"
         style="fill:#0071bb;fill-opacity:1;fill-rule:nonzero;stroke:none"
         id="path32" />
      <path
         d="m 1102.72,413.809 59.11,-16.75 c -3.95,-15.579 -10.28,-28.692 -18.82,-39.168 -8.49,-10.403 -19.07,-18.25 -31.67,-23.59 -12.61,-5.262 -28.54,-7.942 -48.09,-7.942 -23.66,0 -42.97,3.2 -57.93,9.649 -14.929,6.531 -27.961,17.922 -38.699,34.203 -10.902,16.328 -16.262,37.227 -16.262,62.707 0,33.949 9.403,60.043 28.629,78.293 19.102,18.289 46.032,27.457 81.022,27.457 27.48,0 48.84,-5.34 64.48,-15.758 15.69,-10.543 27.31,-26.621 35,-48.222 l -59.5,-12.708 c -2.12,6.321 -4.2,10.989 -6.56,13.84 -3.68,5 -8.33,8.649 -13.69,11.348 -5.49,2.621 -11.55,3.98 -18.14,3.98 -15.17,0 -26.81,-5.781 -34.88,-17.3 -6.19,-8.618 -9.22,-22.028 -9.22,-40.36 0,-22.687 3.7,-38.308 10.97,-46.758 7.26,-8.41 17.61,-12.613 30.86,-12.613 12.84,0 22.52,3.422 29.12,10.121 6.61,6.75 11.32,16.621 14.27,29.571"
         style="fill:#0071bb;fill-opacity:1;fill-rule:nonzero;stroke:none"
         id="path34" />
      <path
         d="m 1301.87,495.43 h 29.62 c 10.13,0 17.26,-1.75 21.42,-5.242 4.05,-3.469 6.05,-8.278 6.05,-14.411 0,-6.648 -2,-11.687 -6.05,-15.199 -4.16,-3.539 -11.4,-5.18 -21.86,-5.18 h -29.18 z m -67.69,-169.071 h 115.91 c 4.97,0 15.01,0.961 30.07,2.871 11.34,1.411 19.84,3.668 25.54,6.95 8.96,5.07 16.15,12.109 21.49,20.859 5.15,8.649 7.78,18.672 7.78,29.609 0,13.59 -3.71,24.79 -10.97,33.75 -7.48,8.903 -18.9,15.243 -34.56,18.903 10.16,3.34 18.03,8.226 23.4,14.058 7.99,9.02 11.99,19.782 11.99,32.379 0,14.942 -5.55,27.551 -16.81,37.629 -11.29,10.133 -27.23,15.313 -48.18,15.313 h -125.66 z m 67.69,88.551 h 33.99 c 11.93,0 20.13,-1.961 24.91,-5.742 4.71,-3.719 6.89,-8.738 6.89,-14.969 0,-6.738 -2.33,-12.082 -7.05,-16.058 -4.72,-4.024 -12.87,-5.953 -24.45,-5.953 h -34.29"
         style="fill:#0071bb;fill-opacity:1;fill-rule:nonzero;stroke:none"
         id="path36" />
      <path
         d="m 1518.95,407.188 23.89,76.281 23.52,-76.281 z m 72.46,-80.829 h 70.44 l -81.05,212.309 h -74.12 l -81.5,-212.309 h 68.57 l 10.99,35.02 h 75.86"
         style="fill:#0071bb;fill-opacity:1;fill-rule:nonzero;stroke:none"
         id="path38" />
      <path
         d="m 1665.42,538.68 h 62.54 l 82.11,-117.481 V 538.68 h 63.5 V 326.367 h -63.5 l -81.55,116.684 V 326.367 h -63.1"
         style="fill:#0071bb;fill-opacity:1;fill-rule:nonzero;stroke:none"
         id="path40" />
      <path
         d="m 1900.5,538.68 h 67.22 v -80.27 l 70.38,80.27 h 89.41 l -79.44,-80 83.09,-132.313 h -82.75 l -45.78,86.66 -34.91,-35.269 v -51.391 h -67.22"
         style="fill:#0071bb;fill-opacity:1;fill-rule:nonzero;stroke:none"
         id="path42" />
      <path
         d="m 1901.38,171.848 0.17,0.25 0.16,0.222 z m 81.5,-65.16 c 0.79,-1.668 1.26,-3.2 1.26,-4.54 0,-1.32 -0.3,-2.5308 -0.88,-3.6285 -4.56,-8.8007 -24.16,-15.0117 -35.69,-17.0117 -5.52,0.1719 -6.82,3.3828 -7.14,5.4414 l 2.78,48.1598 c 17.06,-6.55 37.07,-25.859 39.67,-28.421 m -90.3,-19.2075 c -14.73,6.9492 -31.54,19.0465 -32.3,19.6175 -2.05,1.371 -3.12,2.812 -3.49,4.519 l -0.14,1.442 c 0,2.589 1.21,5.921 3.22,9.05 v 0.051 l 0.09,0.231 c 9.38,15.668 28.81,28.757 37.3,33.976 -3.68,-22.437 -4.49,-54.347 -4.68,-68.8865 m 233.78,92.7385 c -18.32,12.219 -33.41,4.058 -38.88,-1.879 l -1.11,-1.762 -0.23,-0.598 c -21.99,12.008 -58.77,6.809 -59.14,6.719 -19.05,-2.191 -28.26,-5.039 -31.06,-6.031 -26.91,10.152 -45.88,0.383 -54.34,-5.859 -7.82,7.961 -15.79,11.89 -23.76,11.441 -10.32,-0.723 -15.77,-8.352 -16.29,-9.09 l -0.87,-1.422 -0.14,-0.379 c -19.06,16.571 -49.56,10.821 -64.58,6.411 l 0.56,1.359 -0.57,-0.789 0.95,1.551 c 1.78,5.289 11.44,30.886 33.37,37.91 16.61,5.328 36.95,-1.16 60.4,-19.203 1.29,-1.078 3.01,-1.578 4.79,-1.368 1.82,0.239 3.46,1.161 4.54,2.59 2.23,2.938 1.66,7.11 -1.23,9.348 -27.21,20.871 -51.68,28.043 -72.74,21.262 -30.78,-9.879 -41.6,-45.59 -41.79,-46.231 -3.03,-6.34 -5.87,-17.281 -8.5,-32.301 -9.16,18.879 -17.67,28.891 -26.48,30.141 -5.04,0.66 -8.19,-1.281 -9.97,-2.969 l -0.95,-0.211 -0.56,-0.14 -0.45,-0.352 c -6.87,-5.519 -12.41,-34.398 -16.65,-85.4764 -3.84,2.2891 -8.59,5.0703 -14.69,8.3674 4.26,7.32 7.62,16 9.84,26.851 1.12,7.149 5.11,42.032 -21.77,50.75 l -0.21,0.102 -0.17,0.027 c -3.13,0.571 -19.25,2.95 -32.36,-6.211 -8.7,-6.136 -14.04,-15.867 -15.86,-28.898 v -0.352 c -0.02,-2.297 0.31,-13.968 8.36,-21.097 5.26,-4.52 12.06,-6.09 20.26,-4.719 3.59,0.469 6.13,3.93 5.58,7.547 -0.23,1.762 -1.19,3.332 -2.59,4.359 -1.45,1.051 -3.33,1.512 -5.09,1.192 -2.89,-0.43 -6.91,-0.551 -9.3,1.601 -3.68,3.258 -3.84,9.57 -3.88,10.18 1.21,8.859 4.59,15.308 10.12,19.211 7.67,5.41 17.49,4.75 21.55,4.179 11.26,-3.671 12.93,-18.011 12.93,-26.25 0,-3.042 -0.22,-6.25 -0.63,-9.062 v -0.09 c -2.09,-9.98 -5.35,-18.508 -9.62,-25.277 l 0.2,0.187 -4.97,-6.2888 -1.04,-1.2812 c -11.28,-11.7305 -23.97,-10.9688 -24.1,-10.9688 -49.61,6.0196 -52.63,92.0388 -52.7,92.8708 -0.11,3.75 -3.17,6.688 -6.84,6.641 -3.64,-0.113 -6.58,-3.141 -6.53,-6.773 0.13,-4.079 3.45,-98.5474 64.56,-106.0278 h 0.34 c 2.08,-0.1524 20.89,-0.3204 36.24,16.6875 12.67,-6.8594 21.41,-12.2969 22.51,-13.668 1.78,-2.2188 4.81,-3.1992 7.34,-2.4609 2.83,0.9492 4.72,3.1289 4.86,5.7617 3.44,47.5785 9.57,84.6285 12.93,88.1175 l -1.27,-0.68 c 1.02,0.172 1.82,0.801 2.57,1.359 h 0.05 c 0.49,-0.117 8.41,-1.789 21.82,-34.218 0.59,-1.5 1.91,-2.539 3.47,-3.258 -2.11,-15.321 -3.89,-32.633 -5.35,-51.801 l -0.12,-1.4805 -0.02,-0.5117 c 0,-3.5273 2.71,-6.4492 6.17,-6.6992 3.73,-0.1484 6.83,2.5703 7.15,6.2422 0,0.5664 4.01,54.3672 10.79,85.0392 l 0.42,0.078 c 1.55,0.602 33.91,12.711 54.2,2.742 -10.12,-6.562 -27.56,-19.262 -37.19,-35.543 0.07,0.172 -5.36,-7.34 -5.36,-16.347 0,-1.102 0.12,-2.27 0.34,-3.743 1.07,-5.519 4.22,-10.0075 9.02,-13.1364 4.45,-3.2226 27.54,-19.6601 44.51,-25.0312 2.4,-0.5196 4.56,-0.1211 6.08,1.1406 1.62,1.1289 2.63,3.1289 2.63,5.2773 v 1.6524 c 0,6.6406 0.21,65.3203 7.08,86.8283 0.74,0.801 2.7,2.75 5.87,2.953 3.47,0.129 7.84,-2.434 12.6,-7.063 -0.63,-10.55 -4.12,-72.0503 -4.27,-74.8394 0.2,-6.75 4.81,-18.9805 20.71,-18.9805 h 0.17 l 0.43,0.0625 h 0.07 l 0.13,0.0196 h 0.27 c 6.27,1.1093 37.39,7.2695 46.21,24.1679 1.62,3.2696 2.38,6.4024 2.38,9.8009 0,3.621 -0.94,7.289 -2.78,11.039 l -1.22,1.801 c -0.18,0.199 -26.66,27.179 -49.46,33.969 l 0.29,4.66 0.16,2.679 1.48,0.801 c 0.32,0.371 16.78,19.402 47.5,6.461 1.65,-0.621 3.43,-0.66 4.97,-0.16 l 0.48,0.16 0.1,0.09 c 0.72,0.23 9.68,3.582 29.76,5.891 1.61,0.199 37.22,4.628 53.15,-6.532 -1.64,-7.699 -2.5,-16.05 -3.06,-23.687 -3.92,3.199 -8.06,5.297 -12.49,5.16 -6.14,-0.293 -11.93,-3.953 -17.31,-10.551 -2.52,4.149 -5.37,7.457 -8.9,9.367 -6.55,3.684 -12.81,2.864 -15.77,2.141 l -0.63,-0.129 h -0.03 v -0.18 c -16.05,-3.089 -21.41,-30.031 -22.97,-41.761 -2.46,-24.4496 13.98,-26.9378 14.65,-27.0199 15.32,-0.9883 23.11,9.5703 25.1,15.3516 1.14,3.5 -0.63,7.2891 -3.99,8.5003 -3.65,1.14 -7.35,-0.6214 -8.59,-4.0394 -0.13,-0.3828 -2.53,-6.8711 -10.9,-6.5429 -0.51,0.25 -4.05,1.9414 -2.99,12.2033 1.66,13.816 7.3,29.84 12.43,30.457 l 1.14,0.262 c 0,0 3.07,0.859 6.25,-0.93 3.45,-2.031 6.08,-6.59 7.6,-13.281 0.6,-2.75 2.91,-4.84 5.72,-5.141 2.99,-0.309 5.62,1.191 6.88,3.762 2.06,4.769 8.12,13.937 12.91,14.179 2.83,0.121 6.48,-3.531 10.1,-10.05 l 0.99,-1.059 c -0.16,-17.941 0.85,-32.7617 0.89,-33.4414 0.3,-3.6602 3.46,-6.4492 7.08,-6.1602 3.68,0.3125 6.26,3.1289 6.26,6.6797 l -0.34,1.5 0.29,-1.1992 -0.05,0.6484 c -0.51,9.1602 -0.75,18.8207 -0.75,27.9527 0,26.02 2.28,44.598 6.66,53.989 2.26,2.129 9.33,6.851 20.62,-0.75 1.29,-0.989 3.18,-1.34 4.98,-0.989 1.81,0.329 3.37,1.348 4.3,2.848 1.94,2.86 1.27,6.883 -1.66,9.141 m -642.53,-55.578 c -10.61,12.476 -24.8,14.117 -31.58,12.937 -4.35,-0.738 -7.69,-3.301 -10.38,-6.711 l -0.62,0.942 0.15,-0.258 -0.89,1.066 0.15,-0.097 -0.16,0.199 -0.17,0.172 c -8.95,8.148 -4.99,22.797 -4.32,25.07 l 0.06,0.066 0.21,0.782 0.07,0.371 c 4.51,4.199 22.37,18.519 43.11,4.418 1.6,-6.118 4.81,-19.75 4.81,-33.868 0,-1.781 -0.29,-3.351 -0.44,-5.089 m 71.96,57.257 -0.23,0.04 h -0.19 c -3.79,0 -7.13,-1.43 -9.57,-3.977 -4.06,-4.141 -4.38,-10.273 -4.38,-12.703 v -3.297 c -3.64,4.59 -7.7,8.566 -12.57,11.18 -16.87,8.757 -35.1,2.867 -38.59,1.57 l -1.22,-1.441 c -28.85,21.578 -54.79,1.757 -61.25,-3.903 -5.87,2.934 -17.69,8.543 -18.7,8.711 l 0.97,-0.379 c -7.75,5.059 -13.16,3.961 -16.31,2.192 -5.79,-3.411 -6.75,-10.493 -6.97,-13.993 -6.37,9.77 -12.62,15.211 -18.91,16.141 -5.37,0.75 -8.57,-1.531 -10.03,-2.969 l -0.88,-0.211 -0.54,-0.148 -0.45,-0.344 c -8.98,-7.269 -14.26,-54.789 -16.74,-85.4764 -4.5,2.7969 -9.53,5.6602 -14.63,8.3674 4.36,7.609 7.73,16.472 9.78,26.851 0.35,1.758 6.93,41.411 -21.77,50.75 l -0.19,0.129 h -0.24 c -4.46,0.801 -19.65,2.61 -32.27,-6.211 -8.67,-6.109 -13.97,-15.769 -15.83,-28.898 -0.02,-0.238 -0.59,-13.5 8.33,-21.43 5.2,-4.539 12.02,-6.109 20.32,-4.738 1.74,0.219 3.28,1.187 4.3,2.629 1.04,1.469 1.45,3.308 1.08,5.09 -0.2,1.609 -1.11,3.16 -2.57,4.187 -1.46,1.051 -3.29,1.512 -5.08,1.192 -2.8,-0.43 -6.74,-0.551 -9.12,1.609 -2.71,2.352 -3.79,6.73 -3.92,10.23 1.31,8.832 4.64,15.313 10.15,19.153 7.57,5.41 17.35,4.75 21.36,4.179 10.77,-3.519 13.03,-16.191 13.03,-26.25 0,-3.042 -0.27,-6.25 -0.7,-9.062 v -0.027 c -1.96,-9.864 -5.16,-18.383 -9.41,-25.34 l -4.83,-6.1018 -0.69,-0.8711 c -11.44,-12.2304 -24.38,-11.3789 -24.5,-11.3789 -49.62,6.0196 -52.62,92.0388 -52.64,92.8708 -0.17,3.821 -3.18,6.688 -6.84,6.641 -1.89,-0.063 -3.54,-0.773 -4.78,-2.102 -1.19,-1.269 -1.83,-3 -1.79,-4.769 0.12,-3.981 2.9,-98.4025 64.55,-105.9298 h 0.31 c 3.44,-0.1797 21.35,0.0507 36.28,16.6875 12.45,-6.6797 21.36,-12.2579 22.57,-13.668 1.65,-2.2188 4.78,-3.3008 7.29,-2.4609 2.74,0.8984 4.61,3.0195 4.87,5.7109 3.39,47.6093 9.49,84.6603 12.88,88.1683 l 1.32,0.679 h 0.02 c 0.47,-0.078 7.82,-1.816 20.13,-30.25 l -1.78,-63.7184 c -0.05,-3.6992 2.9,-6.7305 6.55,-6.8203 1.7,-0.0391 3.46,0.6289 4.75,1.8125 1.27,1.2578 2.03,2.8984 2.07,4.6601 l 1.57,59.7191 0.21,6.258 0.72,23.902 c -0.1,1.43 0.14,2.578 0.42,3.398 0.61,-0.211 1.54,-0.66 2.9,-1.519 l 0.28,-0.211 c 3.77,-1.668 12.9,-5.918 18.65,-8.82 -0.59,-3.188 -1.13,-6.34 -1.13,-9.348 0,-9.86 3.29,-18.281 9.53,-24.262 l -0.3,0.36 c 1.62,-2.258 4.14,-6.028 6.26,-9.95 l 2.11,-4.379 c 0.87,-1.859 1,-2.949 1.07,-3.332 0.05,-3.238 -1,-8.8668 -3.65,-10.4684 -2.69,-1.5977 -8.45,0 -15.62,4.3714 -3.2,1.879 -7.18,0.91 -9.11,-2.18 -1.99,-3.2422 -1.04,-7.3203 2.21,-9.2695 12.06,-7.2227 21.94,-8.7227 29.32,-4.4297 9.66,5.6367 10.29,18.6372 10.19,22.5392 v 0.098 l -0.02,0.222 c -0.23,2.738 -1.36,6.008 -3.26,10.098 0.39,3.14 1.46,6.68 4.41,7.152 0.23,0.02 14.42,2.309 23.17,-13.93 0.75,-1.312 1.94,-2.292 3.27,-2.851 -0.29,-1.191 -0.52,-2.399 -0.64,-3.609 -6.7,-3.153 -11.51,-7.3403 -13.81,-12.6411 -5.18,-11.8789 2.37,-23.7695 2.43,-23.8516 l 1.31,-1.4296 -0.41,0.4296 c 5.89,-6.0468 11.73,-6.7695 15.59,-6.3593 10.87,1.1914 17.37,12.1992 17.45,12.332 0.84,1.3281 1.16,3.0898 0.74,4.8477 -0.38,1.7812 -1.38,3.2421 -2.91,4.1601 -3.07,2 -7.14,1.1328 -9.15,-2.0078 -1.44,-2.1719 -4.7,-5.7305 -7.61,-6.0195 -1.21,-0.2422 -2.62,0.5898 -4.08,1.9492 -0.56,1.0078 -1.88,3.75 -1.88,6.9492 0,1.2891 0.31,2.5117 0.76,3.6602 1.87,4.2617 8.32,7.6718 17.72,9.3984 2.15,0.0508 15.48,0.0508 22.15,-8.1484 4.57,-5.5899 5.23,-14.2696 2.02,-25.8008 -0.1,-0.2305 -9.93,-24.2188 -74.12,-8.4883 -2.24,0.6172 -4.68,0 -6.36,-1.7109 -1.66,-1.6016 -2.34,-4.0196 -1.73,-6.3594 0.73,-2.5625 18.28,-60.6992 132.59,-40.78126 3.62,0.64062 6.1,4.08984 5.49,7.73046 -0.72,3.6094 -4.18,6.0195 -7.79,5.4688 -70,-12.25004 -99.01,6.582 -110.41,19.7617 61.93,-10.9219 73.92,17.039 75.11,20.3398 4.5,16.2305 2.97,29.0781 -4.49,38.2383 -11.04,13.4925 -30.08,13.1795 -33.8,13.0005 l -0.12,-0.02 -0.1,-0.09 c 5.31,18.82 1.7,41.25 -1.21,53.492 l 1.52,0.2 -0.44,-0.2 0.13,0.02 0.29,0.078 c 2.57,0.98 16.14,5.25 27.49,-0.867 8.39,-4.363 14.15,-13.391 17.21,-26.742 l 1.51,-2.149 -0.33,-59.8709 c 0,-3.5899 2.89,-6.5782 6.51,-6.75 3.9,0 6.86,2.9687 6.86,6.75 l 0.5,92.8279 c -0.09,1.012 0.21,2.512 0.59,3.141 9.44,-1.649 20.48,-4.008 24.14,-6.008 1.44,-0.781 3.23,-1.02 4.85,-0.539 1.75,0.5 3.24,1.668 4.16,3.238 1.67,3.442 0.41,7.418 -2.77,9.121 -8.02,4.2 -29.12,7.399 -29.96,7.578"
         style="fill:#0071bb;fill-opacity:1;fill-rule:nonzero;stroke:none"
         id="path44" />
    </g>
  </g>
  <metadata
     id="metadata23383">
    <rdf:RDF>
      <cc:Work
         rdf:about="">
        <dc:title>BRAC Bank Limited</dc:title>
      </cc:Work>
    </rdf:RDF>
  </metadata>
</svg>
