<?xml version="1.0" encoding="UTF-8"?>
<svg id="Layer_1" data-name="Layer 1" xmlns="http://www.w3.org/2000/svg" xmlns:xlink="http://www.w3.org/1999/xlink" viewBox="0 0 360 360">
  <defs>
    <style>
      .cls-1 {
        fill: url(#linear-gradient-2);
        stroke: #c5c5c6;
        stroke-miterlimit: 10;
        stroke-width: .39px;
      }

      .cls-2 {
        fill: #0d984a;
      }

      .cls-2, .cls-3, .cls-4 {
        fill-rule: evenodd;
      }

      .cls-3 {
        fill: #e8242a;
      }

      .cls-5 {
        clip-path: url(#clippath);
      }

      .cls-6 {
        fill: none;
      }

      .cls-7 {
        fill: url(#linear-gradient);
      }

      .cls-4 {
        fill: #214596;
      }
    </style>
    <linearGradient id="linear-gradient" x1="36.27" y1="185.76" x2="321.25" y2="185.76" gradientUnits="userSpaceOnUse">
      <stop offset="0" stop-color="#949494"/>
      <stop offset=".06" stop-color="#a6a6a6"/>
      <stop offset=".16" stop-color="#d5d5d5"/>
      <stop offset=".25" stop-color="#fff"/>
      <stop offset=".37" stop-color="#cacaca"/>
      <stop offset=".51" stop-color="#8f8f8f"/>
      <stop offset=".62" stop-color="#6a6a6a"/>
      <stop offset=".68" stop-color="#5c5c5c"/>
      <stop offset=".72" stop-color="#636363"/>
      <stop offset=".78" stop-color="#787878"/>
      <stop offset=".85" stop-color="#999a9a"/>
      <stop offset=".94" stop-color="#c8c9c9"/>
      <stop offset="1" stop-color="#eff0f0"/>
    </linearGradient>
    <clipPath id="clippath">
      <path class="cls-6" d="m328.85,177.04c0,48.13-66.49,87.15-148.51,87.15S31.83,225.17,31.83,177.04s66.49-87.15,148.51-87.15,148.51,39.02,148.51,87.15Z"/>
    </clipPath>
    <linearGradient id="linear-gradient-2" x1="180.34" y1="80.78" x2="180.34" y2="272.13" gradientUnits="userSpaceOnUse">
      <stop offset="0" stop-color="#c2c4c6"/>
      <stop offset=".24" stop-color="#e0e1e2"/>
      <stop offset=".45" stop-color="#fff"/>
      <stop offset=".73" stop-color="#cacbcc"/>
      <stop offset="1" stop-color="#9c9fa1"/>
    </linearGradient>
  </defs>
  <path class="cls-7" d="m328.85,185.76c0,47.59-66.63,86.16-148.83,86.16S31.2,233.36,31.2,185.76s66.64-86.16,148.82-86.16,148.83,38.58,148.83,86.16Z"/>
  <g class="cls-5">
    <path class="cls-1" d="m328.85,177.04c0,48.13-66.49,87.15-148.51,87.15S31.83,225.17,31.83,177.04s66.49-87.15,148.51-87.15,148.51,39.02,148.51,87.15Z"/>
    <g>
      <path class="cls-3" d="m227.23,261.44c-4.12.67-7.93,1.45-11.76,1.86-8.51.9-17.05,1.64-25.57,2.39-1.92.17-3.83.17-5.75.17-.41,0-.92-.23-1.21-.51-18.37-17.24-35.82-35.26-50.09-55.87-4.52-6.52-8.39-13.37-11.38-20.7-4.89-12-3.04-23.1,4.37-33.59,5.72-8.12,13.12-14.62,21.17-20.5,12.2-8.92,25.51-16.06,39.24-22.49,15.32-7.17,31.09-13.34,47.25-18.59.94-.3,2.11-.37,3.08-.17,3.48.76,6.92,1.68,10.38,2.8-2.54.92-5.1,1.82-7.63,2.76-18.25,6.77-35.86,14.77-52.22,25.14-8.79,5.56-17.03,11.79-23.91,19.51-5.2,5.82-9.35,12.2-11.08,19.81-1.43,6.27-.87,12.34,1.77,18.27,3.57,8.02,8.56,15.18,14.04,22.05,10.25,12.86,21.86,24.54,34.09,35.63,8,7.25,16.28,14.22,24.43,21.31.19.17.36.33.8.72Z"/>
      <path class="cls-4" d="m168.85,265.83c-3.21-.15-6.05-.18-8.88-.42-5.81-.48-11.65-.85-17.42-1.68-7.61-1.09-15.17-2.56-22.74-3.89-.33-.06-.68-.32-.91-.58-13.35-15.55-25.69-31.76-34.69-50.09-3.42-6.98-6.05-14.21-7.28-21.89-1.36-8.49.58-16.26,5.03-23.56,4.73-7.78,11.21-14.11,18.33-19.85,10.84-8.72,22.81-15.8,35.25-22.17,24.67-12.65,50.6-22.42,77.07-30.98,3.81-1.23,7.25-.48,10.87.11,1.63.28,3.25.6,5.22.97-2.85,1-5.4,1.87-7.92,2.79-21.04,7.62-41.51,16.4-60.92,27.34-11.21,6.31-21.92,13.3-31.36,21.94-4.96,4.54-9.41,9.48-12.92,15.18-5.93,9.62-6.98,19.61-2.99,30.17,3.69,9.73,8.97,18.63,14.88,27.22,10.05,14.59,21.57,28.07,33.64,41.15,2.45,2.66,4.96,5.29,7.74,8.25Z"/>
      <path class="cls-2" d="m276.33,246.02c-3.72,1.53-7.18,3.03-10.68,4.39-8.21,3.19-16.64,5.77-25.2,7.94-.77.19-1.34.1-1.98-.38-17.75-13.3-34.82-27.3-50.35-42.99-8.35-8.46-16.2-17.31-22.19-27.53-2.36-4-4.31-8.18-5.21-12.74-1.49-7.46.04-14.47,3.65-21.12,3.76-6.93,9.07-12.67,15.07-17.85,10.68-9.2,22.79-16.35,35.43-22.73,11.4-5.76,23.19-10.66,35.23-15.05,1.02-.37,1.92-.42,2.95-.06,3.27,1.15,6.55,2.23,10.05,3.4-3.73,1.42-7.23,2.68-10.68,4.07-13.8,5.58-27,12.19-38.81,21.12-7.15,5.41-13.52,11.54-18.02,19.24-3.6,6.15-5.28,12.73-4.84,19.79.33,5.31,2.52,9.96,5.39,14.38,4.7,7.29,10.58,13.66,16.91,19.66,12.46,11.81,26.19,22.12,40.5,31.74,7.19,4.84,14.58,9.4,21.88,14.09.21.13.42.28.91.63Z"/>
    </g>
  </g>
</svg>