<?xml version="1.0" encoding="UTF-8"?>
<svg xmlns="http://www.w3.org/2000/svg" xmlns:xlink="http://www.w3.org/1999/xlink" width="200px" height="37px" viewBox="0 0 197 37" version="1.1">
<g id="surface1">
<path style=" stroke:none;fill-rule:nonzero;fill:rgb(1.176471%,30.588236%,63.529414%);fill-opacity:1;" d="M 14.371094 14.609375 C 13.671875 15.804688 12.574219 16.503906 11.175781 16.503906 L 7.683594 16.503906 L 7.683594 5.527344 L 11.476562 5.527344 C 12.875 5.527344 13.871094 6.226562 14.46875 7.421875 C 14.96875 8.421875 15.167969 9.617188 15.167969 10.914062 C 15.269531 12.414062 14.96875 13.609375 14.371094 14.609375 M 20.757812 3.628906 C 18.960938 1.234375 16.765625 0.0390625 14.070312 0.0390625 L 0.101562 0.0390625 L 0.101562 21.894531 L 13.171875 21.894531 C 16.066406 21.894531 18.5625 20.695312 20.457031 18.300781 C 22.15625 16.105469 23.054688 13.511719 23.054688 10.714844 C 23.152344 8.121094 22.355469 5.726562 20.757812 3.628906 "/>
<path style=" stroke:none;fill-rule:nonzero;fill:rgb(1.176471%,30.588236%,63.529414%);fill-opacity:1;" d="M 45.207031 21.894531 L 36.925781 21.894531 L 36.925781 13.511719 L 29.242188 13.511719 L 29.242188 21.894531 L 20.757812 21.894531 L 20.757812 0.0390625 L 29.242188 0.0390625 L 29.242188 7.421875 L 36.925781 7.421875 L 36.925781 0.0390625 L 45.207031 0.0390625 Z M 45.207031 21.894531 "/>
<path style=" stroke:none;fill-rule:nonzero;fill:rgb(1.176471%,30.588236%,63.529414%);fill-opacity:1;" d="M 51.695312 14.609375 L 54.191406 7.222656 L 54.488281 7.222656 L 56.882812 14.609375 Z M 58.382812 0.0390625 L 50.296875 0.0390625 L 41.414062 21.894531 L 49.300781 21.894531 L 50.199219 19.199219 L 58.28125 19.199219 L 59.179688 21.894531 L 67.261719 21.894531 Z M 58.382812 0.0390625 "/>
<path style=" stroke:none;fill-rule:nonzero;fill:rgb(1.176471%,30.588236%,63.529414%);fill-opacity:1;" d="M 89.71875 21.894531 L 80.039062 21.894531 L 73.75 13.308594 L 71.753906 15.105469 L 71.753906 21.894531 L 63.570312 21.894531 L 63.570312 0.0390625 L 71.753906 0.0390625 L 71.753906 6.824219 L 72.054688 6.824219 L 79.039062 0.0390625 L 88.917969 0.0390625 L 79.636719 8.222656 Z M 89.71875 21.894531 "/>
<path style="fill-rule:nonzero;fill:rgb(57.647061%,70.19608%,87.450981%);fill-opacity:1;stroke-width:0.1801;stroke-linecap:butt;stroke-linejoin:miter;stroke:rgb(0%,0%,0%);stroke-opacity:1;stroke-miterlimit:1.1435;" d="M 170.701855 21.600032 L 164.701415 21.600032 L 156.301581 10.89866 L 156.301581 21.600032 L 148.700241 21.600032 L 148.700241 0.299057 L 156.301581 0.299057 L 164.799269 11.90069 L 164.799269 0.299057 L 170.701855 0.299057 Z M 170.701855 21.600032 " transform="matrix(0.997974,0,0,0.997974,-1.297366,0.0374868)"/>
<path style="fill-rule:nonzero;fill:rgb(57.647061%,70.19608%,87.450981%);fill-opacity:1;stroke-width:0.1801;stroke-linecap:butt;stroke-linejoin:miter;stroke:rgb(0%,0%,0%);stroke-opacity:1;stroke-miterlimit:1.1435;" d="M 197.600109 21.600032 L 187.399752 21.600032 L 181.301458 13.599445 L 179.399166 15.399968 L 179.399166 21.600032 L 172.400609 21.600032 L 172.400609 0.299057 L 179.399166 0.299057 L 179.399166 7.900397 L 187.501521 0.299057 L 197.001239 0.299057 L 187.599376 8.69889 Z M 197.600109 21.600032 " transform="matrix(0.997974,0,0,0.997974,-1.297366,0.0374868)"/>
<path style="fill-rule:nonzero;fill:rgb(57.647061%,70.19608%,87.450981%);fill-opacity:1;stroke-width:0.1801;stroke-linecap:butt;stroke-linejoin:miter;stroke:rgb(0%,0%,0%);stroke-opacity:1;stroke-miterlimit:1.1435;" d="M 136.699361 14.601475 L 139.298378 7.50115 L 139.59977 7.50115 L 141.999163 14.601475 Z M 143.600063 0.299057 L 135.20023 0.299057 L 126.001904 21.600032 L 134.100345 21.600032 L 135.098461 19.001015 L 143.40044 19.001015 L 144.300701 21.600032 L 152.700535 21.600032 Z M 143.600063 0.299057 " transform="matrix(0.997974,0,0,0.997974,-1.297366,0.0374868)"/>
<path style=" stroke:none;fill-rule:nonzero;fill:rgb(57.254905%,70.19608%,87.058824%);fill-opacity:1;" d="M 120.15625 8.519531 C 119.457031 8.917969 118.957031 9.019531 118.359375 9.019531 L 114.269531 9.019531 L 114.269531 5.527344 L 119.359375 5.527344 C 119.855469 5.527344 120.253906 5.726562 120.554688 6.125 C 120.855469 6.523438 120.953125 6.921875 120.953125 7.421875 C 121.152344 7.820312 120.855469 8.222656 120.15625 8.519531 M 128.539062 12.613281 C 127.839844 11.613281 126.941406 10.914062 125.746094 10.417969 C 126.644531 9.917969 127.339844 9.21875 127.839844 8.421875 C 128.339844 7.621094 128.640625 6.824219 128.640625 5.925781 C 128.640625 4.328125 127.941406 3.03125 126.542969 2.132812 C 125.144531 1.136719 123.449219 0.4375 121.453125 0.4375 L 106.285156 0.4375 L 106.285156 21.59375 L 121.054688 21.59375 C 123.25 21.59375 125.246094 21.09375 126.941406 20.097656 C 128.738281 19 129.738281 17.601562 129.738281 15.804688 C 129.636719 14.609375 129.238281 13.511719 128.539062 12.613281 M 120.953125 16.304688 C 120.65625 16.804688 120.15625 17.003906 119.558594 17.003906 L 114.46875 17.003906 L 114.46875 13.109375 L 118.757812 13.109375 C 119.457031 13.109375 120.15625 13.210938 120.753906 13.609375 C 121.355469 13.910156 121.652344 14.308594 121.652344 14.90625 C 121.453125 15.304688 121.253906 15.90625 120.953125 16.304688 "/>
<path style="fill:none;stroke-width:0.1801;stroke-linecap:butt;stroke-linejoin:miter;stroke:rgb(0%,0%,0%);stroke-opacity:1;stroke-miterlimit:1.1435;" d="M 121.700218 8.499267 C 120.99958 8.898513 120.498565 9.000282 119.899695 9.000282 L 115.801547 9.000282 L 115.801547 5.501004 L 120.901725 5.501004 C 121.398826 5.501004 121.798073 5.700627 122.099465 6.099873 C 122.400857 6.49912 122.498711 6.898366 122.498711 7.399382 C 122.698335 7.798628 122.400857 8.201789 121.700218 8.499267 Z M 130.100051 12.601329 C 129.399413 11.599298 128.499151 10.89866 127.301412 10.401559 C 128.201674 9.900544 128.898398 9.199905 129.399413 8.401412 C 129.900428 7.599005 130.20182 6.800512 130.20182 5.90025 C 130.20182 4.29935 129.501182 2.999842 128.099905 2.09958 C 126.698628 1.101464 124.999873 0.400825 122.999727 0.400825 L 107.80096 0.400825 L 107.80096 21.600032 L 122.60048 21.600032 C 124.80025 21.600032 126.800397 21.099016 128.499151 20.1009 C 130.299675 19.001015 131.301705 17.599738 131.301705 15.799215 C 131.199936 14.601475 130.80069 13.50159 130.100051 12.601329 Z M 122.498711 16.30023 C 122.201234 16.801245 121.700218 17.000869 121.101349 17.000869 L 116.00117 17.000869 L 116.00117 13.09843 L 120.298941 13.09843 C 120.99958 13.09843 121.700218 13.200198 122.299088 13.599445 C 122.901872 13.900837 123.19935 14.300083 123.19935 14.898953 C 122.999727 15.2982 122.800103 15.900984 122.498711 16.30023 Z M 122.498711 16.30023 " transform="matrix(0.997974,0,0,0.997974,-1.297366,0.0374868)"/>
<path style=" stroke:none;fill-rule:nonzero;fill:rgb(1.176471%,30.588236%,63.529414%);fill-opacity:1;" d="M 94.410156 14.609375 L 96.902344 7.222656 L 97.203125 7.222656 L 99.597656 14.609375 Z M 101.195312 0.0390625 L 93.011719 0.0390625 L 84.03125 21.894531 L 92.011719 21.894531 L 92.910156 19.199219 L 101.09375 19.199219 L 101.992188 21.894531 L 110.277344 21.894531 Z M 101.195312 0.0390625 "/>
<path style=" stroke:none;fill-rule:nonzero;fill:rgb(57.647061%,70.19608%,87.450981%);fill-opacity:1;" d="M 0 26.582031 L 155.882812 26.582031 L 155.882812 27.480469 L 0 27.480469 Z M 0 26.582031 "/>
<path style=" stroke:none;fill-rule:nonzero;fill:rgb(1.176471%,30.588236%,63.529414%);fill-opacity:1;" d="M 160.472656 25.984375 L 166.164062 25.984375 C 167.359375 25.984375 168.359375 26.285156 168.957031 26.882812 C 169.554688 27.480469 169.855469 28.28125 169.855469 29.378906 C 169.855469 30.476562 169.554688 31.273438 168.855469 31.871094 C 168.160156 32.472656 167.160156 32.769531 165.761719 32.769531 L 163.867188 32.769531 L 163.867188 36.761719 L 160.472656 36.761719 Z M 163.867188 30.574219 L 164.664062 30.574219 C 165.363281 30.574219 165.761719 30.476562 166.0625 30.277344 C 166.363281 30.078125 166.460938 29.777344 166.460938 29.378906 C 166.460938 28.980469 166.363281 28.777344 166.164062 28.480469 C 165.964844 28.28125 165.464844 28.179688 164.867188 28.179688 L 163.867188 28.179688 Z M 163.867188 30.574219 "/>
<path style=" stroke:none;fill-rule:nonzero;fill:rgb(1.176471%,30.588236%,63.529414%);fill-opacity:1;" d="M 171.652344 25.984375 L 175.042969 25.984375 L 175.042969 34.070312 L 180.332031 34.070312 L 180.332031 36.761719 L 171.550781 36.761719 L 171.550781 25.984375 Z M 171.652344 25.984375 "/>
<path style=" stroke:none;fill-rule:nonzero;fill:rgb(1.176471%,30.588236%,63.529414%);fill-opacity:1;" d="M 189.015625 32.371094 L 192.011719 33.269531 C 191.808594 34.070312 191.511719 34.765625 191.113281 35.367188 C 190.710938 35.863281 190.113281 36.363281 189.515625 36.5625 C 188.917969 36.863281 188.019531 36.960938 187.019531 36.960938 C 185.824219 36.960938 184.824219 36.761719 184.125 36.464844 C 183.328125 36.164062 182.730469 35.566406 182.128906 34.667969 C 181.632812 33.769531 181.332031 32.769531 181.332031 31.375 C 181.332031 29.578125 181.832031 28.28125 182.828125 27.28125 C 183.828125 26.382812 185.125 25.886719 186.921875 25.886719 C 188.316406 25.886719 189.414062 26.183594 190.214844 26.683594 C 191.011719 27.183594 191.609375 28.082031 192.011719 29.179688 L 189.015625 29.875 C 188.917969 29.578125 188.816406 29.277344 188.71875 29.179688 C 188.515625 28.878906 188.316406 28.679688 188.019531 28.578125 C 187.71875 28.480469 187.417969 28.378906 187.121094 28.378906 C 186.320312 28.378906 185.722656 28.679688 185.324219 29.277344 C 185.023438 29.777344 184.824219 30.375 184.824219 31.375 C 184.824219 32.570312 185.023438 33.371094 185.421875 33.867188 C 185.824219 34.367188 186.320312 34.566406 187.019531 34.566406 C 187.71875 34.566406 188.117188 34.367188 188.515625 34.070312 C 188.617188 33.570312 188.917969 33.070312 189.015625 32.371094 Z M 189.015625 32.371094 "/>
<path style=" stroke:none;fill-rule:nonzero;fill:rgb(1.176471%,30.588236%,63.529414%);fill-opacity:1;" d="M 193.707031 33.769531 L 197 33.769531 L 197 36.761719 L 193.707031 36.761719 Z M 193.707031 33.769531 "/>
</g>
</svg>
