<?xml version="1.0" encoding="UTF-8"?>
<svg xmlns="http://www.w3.org/2000/svg" xmlns:xlink="http://www.w3.org/1999/xlink" width="200px" height="95px" viewBox="0 0 198 95" version="1.1">
<g id="surface1">
<path style=" stroke:none;fill-rule:nonzero;fill:rgb(50.196081%,50.980395%,52.156866%);fill-opacity:1;" d="M 0 68.816406 L 198 68.816406 L 198 94.679688 L 0 94.679688 Z M 0 68.816406 "/>
<path style=" stroke:none;fill-rule:nonzero;fill:rgb(92.941177%,10.980392%,14.117648%);fill-opacity:1;" d="M 0 0.320312 L 37.941406 0.320312 L 37.941406 16.597656 L 18.972656 16.597656 L 18.972656 22.1875 L 42.335938 22.1875 L 42.335938 11.203125 L 52.621094 28.078125 L 41.9375 44.054688 L 41.9375 36.765625 L 19.171875 36.765625 L 19.171875 43.058594 L 37.84375 43.058594 L 37.84375 57.835938 L 0 57.835938 Z M 0 0.320312 "/>
<path style=" stroke:none;fill-rule:nonzero;fill:rgb(0%,54.11765%,29.411766%);fill-opacity:1;" d="M 43.234375 1.820312 L 65 29.078125 L 43.234375 57.136719 L 63.304688 57.136719 L 73.589844 43.753906 L 85.371094 57.136719 L 102.945312 57.136719 L 83.972656 28.976562 L 103.042969 1.71875 L 82.273438 1.71875 L 73.789062 15.398438 L 62.007812 1.820312 Z M 43.234375 1.820312 "/>
<path style=" stroke:none;fill-rule:nonzero;fill:rgb(0%,54.11765%,29.411766%);fill-opacity:1;" d="M 107.636719 1.820312 L 126.308594 1.820312 L 126.308594 57.136719 L 107.535156 57.136719 L 107.535156 1.820312 Z M 107.636719 1.820312 "/>
<path style=" stroke:none;fill-rule:nonzero;fill:rgb(0%,54.11765%,29.411766%);fill-opacity:1;" d="M 134.695312 1.820312 L 134.695312 57.136719 L 152.867188 57.136719 L 152.867188 41.257812 L 163.851562 57.734375 L 169.84375 57.734375 L 180.226562 40.261719 L 180.226562 57.734375 L 198 57.734375 L 198 1.820312 L 176.53125 1.820312 L 166.347656 23.585938 L 154.964844 1.820312 Z M 134.695312 1.820312 "/>
<path style=" stroke:none;fill-rule:nonzero;fill:rgb(100%,100%,100%);fill-opacity:1;" d="M 6.789062 73.808594 L 12.679688 73.808594 C 14.078125 73.808594 15.078125 74.109375 15.777344 74.609375 C 16.773438 75.40625 17.175781 76.507812 17.175781 77.902344 C 17.175781 79.003906 16.875 79.902344 16.273438 80.601562 C 15.875 81.097656 15.277344 81.5 14.578125 81.796875 C 15.175781 81.996094 15.675781 82.296875 16.074219 82.597656 C 16.574219 82.996094 16.875 83.59375 17.175781 84.195312 C 17.472656 84.792969 17.574219 85.492188 17.574219 86.191406 C 17.574219 86.988281 17.375 87.6875 17.074219 88.488281 C 16.773438 89.1875 16.273438 89.785156 15.578125 90.285156 C 14.878906 90.785156 13.980469 90.984375 12.878906 90.984375 L 6.789062 90.984375 Z M 9.386719 76.40625 L 9.386719 80.5 L 12.28125 80.5 C 12.878906 80.5 13.480469 80.300781 13.878906 79.800781 C 14.179688 79.5 14.277344 79.003906 14.277344 78.402344 C 14.277344 77.804688 14.078125 77.304688 13.777344 76.90625 C 13.480469 76.507812 12.878906 76.304688 12.179688 76.304688 Z M 9.386719 83.195312 L 9.386719 88.386719 L 11.582031 88.386719 C 12.679688 88.386719 13.480469 88.1875 13.980469 87.6875 C 14.476562 87.191406 14.679688 86.589844 14.679688 85.792969 C 14.679688 85.09375 14.476562 84.492188 14.078125 83.996094 C 13.679688 83.496094 12.980469 83.296875 12.179688 83.296875 L 9.386719 83.296875 Z M 9.386719 83.195312 "/>
<path style=" stroke:none;fill-rule:nonzero;fill:rgb(100%,100%,100%);fill-opacity:1;" d="M 64.601562 73.808594 L 67.496094 73.808594 L 71.992188 90.984375 L 69.296875 90.984375 L 68.296875 86.988281 L 63.902344 86.988281 L 62.90625 90.984375 L 60.207031 90.984375 Z M 66 78.503906 L 64.402344 84.492188 L 67.496094 84.492188 Z M 66 78.503906 "/>
<path style=" stroke:none;fill-rule:nonzero;fill:rgb(100%,100%,100%);fill-opacity:1;" d="M 115.824219 73.808594 L 118.71875 73.808594 L 124.3125 85.394531 L 124.3125 73.808594 L 127.007812 73.808594 L 127.007812 90.984375 L 124.3125 90.984375 L 118.519531 79.003906 L 118.519531 90.984375 L 115.824219 90.984375 Z M 115.824219 73.808594 "/>
<path style=" stroke:none;fill-rule:nonzero;fill:rgb(100%,100%,100%);fill-opacity:1;" d="M 172.140625 73.808594 L 174.835938 73.808594 L 174.835938 81.398438 L 179.828125 73.808594 L 182.824219 73.808594 L 178.53125 80.5 L 183.121094 91.082031 L 180.527344 91.082031 L 177.03125 82.996094 L 174.933594 86.191406 L 174.933594 91.082031 L 172.238281 91.082031 L 172.238281 73.808594 Z M 172.140625 73.808594 "/>
</g>
</svg>
