<?xml version="1.0" encoding="UTF-8"?>
<svg xmlns="http://www.w3.org/2000/svg" xmlns:xlink="http://www.w3.org/1999/xlink" width="200px" height="33px" viewBox="0 0 196 33" version="1.1">
<g id="surface1">
<path style=" stroke:none;fill-rule:nonzero;fill:rgb(22.745098%,18.039216%,55.29412%);fill-opacity:1;" d="M 49.445312 19.109375 C 49.445312 19.523438 49.398438 19.933594 49.308594 20.394531 C 49.21875 20.804688 49.078125 21.21875 48.898438 21.582031 C 48.714844 21.90625 48.394531 22.179688 48.074219 22.363281 C 47.574219 22.589844 47.027344 22.683594 46.433594 22.683594 C 45.839844 22.730469 45.246094 22.589844 44.695312 22.316406 C 43.921875 21.90625 43.328125 21.125 43.191406 20.253906 L 43.144531 19.796875 L 40.085938 19.796875 L 40.132812 20.394531 C 40.222656 21.261719 40.542969 22.085938 40.953125 22.867188 C 41.457031 23.691406 42.1875 24.378906 43.007812 24.882812 C 43.921875 25.386719 45.015625 25.660156 46.339844 25.660156 C 47.800781 25.660156 49.035156 25.339844 49.949219 24.746094 C 50.816406 24.148438 51.5 23.324219 51.910156 22.316406 C 52.277344 21.355469 52.457031 20.300781 52.457031 19.292969 L 52.457031 7.476562 L 49.492188 7.476562 L 49.492188 19.109375 Z M 49.445312 19.109375 "/>
<path style=" stroke:none;fill-rule:nonzero;fill:rgb(22.745098%,18.039216%,55.29412%);fill-opacity:1;" d="M 86.746094 11.917969 C 85.96875 11.460938 85.054688 11.1875 84.1875 11.1875 C 83.367188 11.1875 82.546875 11.324219 81.769531 11.691406 C 81.175781 12.011719 80.628906 12.378906 80.171875 12.882812 C 80.035156 13.019531 79.898438 13.203125 79.804688 13.339844 C 79.394531 12.789062 78.894531 12.285156 78.34375 11.917969 C 77.523438 11.417969 76.609375 11.140625 75.652344 11.140625 C 74.511719 11.140625 73.550781 11.417969 72.820312 11.917969 C 72.636719 12.058594 72.457031 12.195312 72.273438 12.378906 L 72.273438 11.324219 L 69.214844 11.324219 L 69.214844 25.339844 L 72.183594 25.339844 L 72.183594 17.050781 C 72.183594 16.042969 72.457031 15.308594 73.050781 14.757812 C 73.597656 14.210938 74.375 13.933594 75.148438 13.933594 C 75.878906 13.933594 76.566406 14.210938 77.019531 14.757812 C 77.523438 15.308594 77.796875 16.085938 77.796875 17.050781 L 77.796875 25.339844 L 80.765625 25.339844 L 80.765625 17.050781 C 80.765625 16.042969 81.039062 15.308594 81.632812 14.757812 C 82.179688 14.210938 82.957031 13.933594 83.734375 13.933594 C 84.464844 13.933594 85.148438 14.210938 85.648438 14.757812 C 86.152344 15.308594 86.425781 16.085938 86.425781 17.050781 L 86.425781 25.339844 L 89.394531 25.339844 L 89.394531 17.003906 C 89.394531 15.949219 89.164062 14.851562 88.617188 13.933594 C 88.207031 13.109375 87.566406 12.421875 86.746094 11.917969 Z M 86.746094 11.917969 "/>
<path style=" stroke:none;fill-rule:nonzero;fill:rgb(22.745098%,18.039216%,55.29412%);fill-opacity:1;" d="M 116.558594 13.980469 C 116.058594 13.109375 115.328125 12.378906 114.457031 11.875 C 113.589844 11.417969 112.679688 11.1875 111.675781 11.1875 C 110.53125 11.1875 109.574219 11.417969 108.796875 11.917969 C 108.476562 12.101562 108.203125 12.332031 107.882812 12.605469 L 107.882812 11.417969 L 104.917969 11.417969 L 104.917969 25.429688 L 107.882812 25.429688 L 107.882812 17.417969 C 107.882812 16.773438 108.019531 16.179688 108.339844 15.628906 C 108.613281 15.125 109.027344 14.714844 109.527344 14.4375 C 110.03125 14.164062 110.625 14.027344 111.21875 14.027344 C 112.039062 13.980469 112.859375 14.300781 113.453125 14.941406 C 114.046875 15.539062 114.320312 16.363281 114.320312 17.417969 L 114.320312 25.429688 L 117.335938 25.429688 L 117.335938 17.371094 C 117.378906 16.179688 117.105469 14.988281 116.558594 13.980469 Z M 116.558594 13.980469 "/>
<path style=" stroke:none;fill-rule:nonzero;fill:rgb(22.745098%,18.039216%,55.29412%);fill-opacity:1;" d="M 93.960938 11.417969 L 93.960938 19.25 C 93.960938 19.890625 94.097656 20.484375 94.417969 21.035156 C 94.691406 21.539062 95.101562 21.949219 95.601562 22.226562 C 96.105469 22.5 96.699219 22.636719 97.292969 22.636719 C 98.113281 22.683594 98.9375 22.363281 99.53125 21.722656 C 100.121094 21.082031 100.398438 20.300781 100.398438 19.25 L 100.398438 11.371094 L 103.363281 11.371094 L 103.363281 25.339844 L 100.398438 25.339844 L 100.398438 24.746094 C 100.121094 24.882812 99.804688 25.019531 99.484375 25.109375 L 99.4375 25.109375 L 99.300781 25.15625 C 99.164062 25.203125 98.9375 25.25 98.660156 25.292969 C 97.566406 25.476562 95.695312 25.613281 93.960938 24.652344 C 93.367188 24.332031 92.863281 23.875 92.453125 23.371094 C 91.492188 22.226562 90.945312 20.757812 90.992188 19.25 L 90.992188 11.324219 L 93.960938 11.324219 Z M 93.960938 11.417969 "/>
<path style=" stroke:none;fill-rule:nonzero;fill:rgb(22.745098%,18.039216%,55.29412%);fill-opacity:1;" d="M 67.660156 16.269531 C 67.617188 13.523438 66.199219 11.964844 63.371094 11.417969 C 61.269531 10.957031 59.078125 11.1875 57.117188 12.058594 C 56.523438 12.332031 55.972656 12.746094 55.515625 13.25 L 55.515625 13.292969 C 55.425781 13.429688 55.335938 13.570312 55.242188 13.707031 C 55.105469 13.933594 54.96875 14.117188 54.878906 14.347656 C 54.832031 14.484375 54.785156 14.578125 54.742188 14.714844 C 54.648438 14.941406 54.558594 15.21875 54.558594 15.492188 L 57.527344 15.492188 C 57.570312 15.445312 57.570312 15.308594 57.617188 15.261719 C 57.664062 15.171875 57.707031 15.082031 57.800781 14.988281 C 57.9375 14.851562 58.074219 14.714844 58.210938 14.578125 C 58.53125 14.300781 58.941406 14.074219 59.308594 13.933594 C 60.585938 13.429688 61.953125 13.386719 63.234375 13.84375 C 64.054688 14.164062 64.375 14.898438 64.511719 15.675781 C 64.558594 16.042969 64.601562 16.410156 64.601562 16.773438 C 64.238281 16.773438 63.828125 16.773438 63.460938 16.773438 C 60.859375 16.636719 58.300781 16.820312 55.972656 18.148438 C 54.375 19.066406 53.917969 20.484375 54.054688 22.179688 C 54.191406 23.917969 55.378906 24.746094 56.976562 25.15625 C 59.71875 25.84375 62.320312 25.476562 64.648438 23.554688 C 64.648438 23.644531 64.648438 25.386719 64.648438 25.386719 L 67.753906 25.386719 C 67.707031 25.292969 67.707031 18.746094 67.660156 16.269531 Z M 64.375 20.253906 C 63.597656 22.410156 61.042969 23.738281 58.757812 23.1875 C 57.753906 22.957031 57.117188 22.453125 57.070312 21.445312 C 56.976562 20.4375 57.527344 19.613281 58.578125 19.292969 C 59.855469 18.925781 61.179688 18.972656 62.683594 18.882812 C 62.824219 18.882812 63.097656 18.882812 63.371094 18.882812 C 64.054688 18.882812 64.601562 18.882812 64.601562 18.882812 C 64.558594 19.339844 64.511719 19.796875 64.375 20.253906 Z M 64.375 20.253906 "/>
<path style=" stroke:none;fill-rule:nonzero;fill:rgb(22.745098%,18.039216%,55.29412%);fill-opacity:1;" d="M 132.585938 16.226562 C 132.539062 13.523438 131.125 11.964844 128.292969 11.417969 C 126.191406 10.957031 124 11.1875 122.039062 12.011719 C 121.445312 12.285156 120.894531 12.652344 120.441406 13.203125 L 120.441406 13.25 C 120.347656 13.386719 120.257812 13.523438 120.164062 13.660156 C 120.027344 13.890625 119.890625 14.074219 119.800781 14.300781 C 119.753906 14.4375 119.710938 14.53125 119.664062 14.667969 C 119.574219 14.898438 119.527344 15.171875 119.480469 15.445312 L 122.449219 15.445312 C 122.496094 15.402344 122.496094 15.261719 122.539062 15.21875 C 122.585938 15.125 122.632812 15.035156 122.722656 14.941406 C 122.859375 14.804688 122.949219 14.667969 123.132812 14.53125 C 123.453125 14.253906 123.863281 14.027344 124.230469 13.890625 C 125.507812 13.386719 126.878906 13.339844 128.15625 13.796875 C 128.976562 14.117188 129.296875 14.851562 129.433594 15.628906 C 129.480469 15.996094 129.523438 16.316406 129.523438 16.683594 C 129.160156 16.683594 128.75 16.683594 128.382812 16.683594 C 125.78125 16.546875 123.226562 16.730469 120.894531 18.058594 C 119.296875 18.972656 118.84375 20.394531 118.980469 22.042969 C 119.117188 23.78125 120.304688 24.605469 121.902344 24.972656 C 124.640625 25.660156 127.242188 25.292969 129.570312 23.414062 C 129.570312 23.507812 129.570312 25.203125 129.570312 25.203125 L 132.675781 25.203125 C 132.628906 25.15625 132.675781 18.652344 132.585938 16.226562 Z M 129.296875 20.164062 C 128.519531 22.269531 125.964844 23.597656 123.679688 23.050781 C 122.675781 22.820312 122.039062 22.316406 121.992188 21.308594 C 121.902344 20.300781 122.449219 19.523438 123.5 19.203125 C 124.777344 18.835938 126.101562 18.882812 127.609375 18.789062 L 128.292969 18.789062 C 128.976562 18.789062 129.523438 18.789062 129.523438 18.789062 C 129.523438 19.25 129.433594 19.707031 129.296875 20.164062 Z M 129.296875 20.164062 "/>
<path style=" stroke:none;fill-rule:nonzero;fill:rgb(22.745098%,18.039216%,55.29412%);fill-opacity:1;" d="M 150.890625 16.5 C 150.710938 16.363281 150.527344 16.226562 150.296875 16.132812 C 150.617188 15.859375 150.890625 15.582031 151.121094 15.261719 C 151.621094 14.578125 151.851562 13.613281 151.851562 12.421875 C 151.851562 11.644531 151.667969 10.867188 151.304688 10.132812 C 150.9375 9.308594 150.296875 8.667969 149.566406 8.210938 C 148.792969 7.707031 147.695312 7.429688 146.371094 7.429688 L 138.609375 7.429688 L 138.609375 25.429688 L 146.828125 25.429688 C 148.746094 25.429688 150.207031 24.972656 151.210938 24.011719 C 152.214844 23.09375 152.765625 21.8125 152.71875 20.4375 C 152.765625 19.613281 152.582031 18.789062 152.214844 18.058594 C 151.898438 17.460938 151.441406 16.914062 150.890625 16.5 Z M 149.25 21.90625 C 148.746094 22.316406 148.015625 22.546875 147.011719 22.546875 L 141.625 22.546875 L 141.625 17.78125 L 146.828125 17.78125 C 147.925781 17.78125 148.746094 18.058594 149.25 18.5625 C 149.707031 19.019531 149.980469 19.660156 149.980469 20.300781 C 149.933594 20.988281 149.707031 21.539062 149.25 21.90625 Z M 148.792969 13.933594 C 148.5625 14.300781 148.199219 14.578125 147.832031 14.714844 C 147.375 14.898438 146.921875 14.988281 146.464844 14.988281 L 141.667969 14.988281 L 141.667969 10.269531 L 146.644531 10.269531 C 147.148438 10.226562 147.695312 10.363281 148.152344 10.589844 C 148.472656 10.773438 148.746094 11.09375 148.929688 11.417969 C 149.113281 11.78125 149.15625 12.148438 149.15625 12.5625 C 149.15625 13.019531 149.019531 13.523438 148.792969 13.933594 Z M 148.792969 13.933594 "/>
<path style=" stroke:none;fill-rule:nonzero;fill:rgb(22.745098%,18.039216%,55.29412%);fill-opacity:1;" d="M 181.117188 13.980469 C 180.613281 13.109375 179.882812 12.378906 179.015625 11.875 C 178.878906 11.78125 178.742188 11.738281 178.558594 11.644531 L 178.46875 11.597656 C 178.332031 11.554688 178.195312 11.460938 178.011719 11.417969 L 177.964844 11.417969 L 177.828125 11.371094 C 177.738281 11.324219 177.601562 11.324219 177.507812 11.277344 C 177.417969 11.234375 177.28125 11.234375 177.191406 11.234375 C 176.09375 11.050781 174.222656 10.914062 172.488281 11.875 L 172.488281 11.371094 L 169.519531 11.371094 L 169.519531 25.386719 L 172.488281 25.386719 L 172.488281 17.417969 C 172.488281 16.773438 172.625 16.179688 172.945312 15.628906 C 173.21875 15.125 173.628906 14.714844 174.132812 14.4375 C 174.632812 14.164062 175.226562 14.027344 175.820312 14.027344 C 176.640625 13.980469 177.464844 14.300781 178.058594 14.941406 C 178.652344 15.539062 178.925781 16.363281 178.925781 17.417969 L 178.925781 25.429688 L 181.890625 25.429688 L 181.890625 17.371094 C 181.9375 16.042969 181.664062 14.898438 181.117188 13.980469 Z M 181.117188 13.980469 "/>
<path style=" stroke:none;fill-rule:nonzero;fill:rgb(22.745098%,18.039216%,55.29412%);fill-opacity:1;" d="M 192.210938 25.523438 L 186.457031 19.84375 L 186.457031 25.523438 L 183.492188 25.523438 L 183.492188 7.386719 L 186.457031 7.386719 L 186.457031 17.460938 L 192.164062 11.507812 L 195.863281 11.507812 L 189.152344 18.835938 L 196 25.570312 Z M 192.210938 25.523438 "/>
<path style=" stroke:none;fill-rule:nonzero;fill:rgb(22.745098%,18.039216%,55.29412%);fill-opacity:1;" d="M 167.921875 16.179688 C 167.875 13.429688 166.460938 11.875 163.628906 11.324219 C 161.53125 10.867188 159.339844 11.09375 157.375 11.917969 C 156.78125 12.195312 156.234375 12.5625 155.777344 13.109375 L 155.777344 13.15625 C 155.6875 13.292969 155.59375 13.429688 155.503906 13.570312 C 155.367188 13.796875 155.230469 13.980469 155.136719 14.210938 C 155.09375 14.347656 155.046875 14.4375 155 14.578125 C 154.910156 14.804688 154.863281 15.082031 154.820312 15.355469 L 157.785156 15.355469 C 157.832031 15.308594 157.832031 15.171875 157.878906 15.125 C 157.921875 15.035156 157.96875 14.941406 158.058594 14.851562 C 158.195312 14.714844 158.289062 14.578125 158.472656 14.4375 C 158.789062 14.164062 159.203125 13.933594 159.566406 13.796875 C 160.84375 13.292969 162.214844 13.25 163.492188 13.707031 C 164.316406 14.027344 164.632812 14.757812 164.773438 15.539062 C 164.816406 15.90625 164.863281 16.269531 164.863281 16.589844 C 164.496094 16.589844 164.085938 16.589844 163.722656 16.589844 C 161.117188 16.453125 158.5625 16.636719 156.234375 17.964844 C 154.636719 18.882812 154.179688 20.300781 154.316406 21.949219 C 154.453125 23.691406 155.640625 24.515625 157.238281 24.925781 C 159.976562 25.613281 162.578125 25.25 164.910156 23.324219 C 164.910156 23.414062 164.910156 25.15625 164.910156 25.15625 L 168.011719 25.15625 C 167.96875 25.15625 168.011719 18.652344 167.921875 16.179688 Z M 164.632812 20.117188 C 163.859375 22.226562 161.300781 23.554688 159.019531 23.003906 C 158.015625 22.773438 157.375 22.269531 157.328125 21.261719 C 157.238281 20.253906 157.785156 19.429688 158.835938 19.15625 C 160.113281 18.789062 161.4375 18.835938 162.945312 18.746094 L 163.628906 18.746094 C 164.316406 18.746094 164.863281 18.746094 164.863281 18.746094 C 164.863281 19.25 164.773438 19.707031 164.632812 20.117188 Z M 164.632812 20.117188 "/>
<path style=" stroke:none;fill-rule:nonzero;fill:rgb(22.745098%,18.039216%,55.29412%);fill-opacity:1;" d="M 10.957031 16.5 L 6.574219 29.1875 L 3.789062 29.1875 L 3.789062 3.8125 L 19.402344 3.8125 L 20.726562 0.0117188 L 0 0.0117188 L 0 32.988281 L 9.269531 32.988281 L 15.019531 16.5 Z M 10.957031 16.5 "/>
<path style=" stroke:none;fill-rule:nonzero;fill:rgb(22.745098%,18.039216%,55.29412%);fill-opacity:1;" d="M 23.695312 0.0117188 L 15.113281 25.386719 L 19.085938 25.386719 L 26.296875 3.8125 L 29.082031 3.8125 L 29.082031 29.1875 L 13.742188 29.1875 L 12.464844 32.988281 L 32.871094 32.988281 L 32.871094 0.0117188 Z M 23.695312 0.0117188 "/>
</g>
</svg>
