<?xml version="1.0" encoding="UTF-8"?>
<svg xmlns="http://www.w3.org/2000/svg" xmlns:xlink="http://www.w3.org/1999/xlink" width="200px" height="78px" viewBox="0 0 200 78" version="1.1">
<g id="surface1">
<path style=" stroke:none;fill-rule:nonzero;fill:rgb(3.921569%,52.549022%,26.666668%);fill-opacity:1;" d="M 148.035156 60.679688 C 148.699219 60.753906 149.167969 60.792969 149.632812 60.859375 C 151.769531 61.121094 153.894531 61.484375 156.039062 61.605469 C 157.046875 61.660156 158.101562 61.316406 159.101562 61.035156 C 159.910156 60.792969 160.660156 60.320312 160.621094 59.332031 C 160.578125 58.34375 159.78125 57.992188 158.980469 57.710938 C 156.894531 56.957031 154.734375 57.027344 152.589844 57.316406 C 151.472656 57.46875 150.367188 57.757812 149.265625 58.023438 C 148.777344 58.136719 148.503906 58.113281 148.3125 57.558594 C 147.617188 55.558594 147.601562 55.566406 149.320312 54.328125 C 150.074219 53.785156 150.824219 53.238281 151.648438 52.628906 C 151.441406 52.441406 151.296875 52.265625 151.113281 52.171875 C 148.6875 50.789062 147.546875 48.644531 147.546875 45.914062 C 147.546875 44.757812 147.640625 43.570312 147.929688 42.460938 C 148.761719 39.308594 151.457031 37.277344 154.832031 37.105469 C 155.542969 37.074219 156.253906 37.089844 156.964844 37.097656 C 158.484375 37.113281 159.421875 36.34375 159.574219 34.785156 C 159.644531 34.082031 159.925781 33.855469 160.589844 33.878906 C 161.425781 33.910156 162.273438 33.886719 163.179688 33.886719 C 163.066406 35.886719 161.667969 36.714844 160.292969 37.644531 C 160.613281 37.847656 160.84375 37.992188 161.074219 38.125 C 163.800781 39.804688 165.234375 43.335938 164.648438 46.925781 C 164.144531 49.984375 161.972656 52.339844 158.894531 53.054688 C 157.902344 53.285156 156.878906 53.324219 155.855469 53.453125 C 154 53.695312 152.609375 54.820312 151.144531 55.808594 C 151.160156 55.886719 151.183594 55.96875 151.207031 56.054688 C 151.726562 55.953125 152.253906 55.863281 152.765625 55.734375 C 155.636719 55.078125 158.523438 54.585938 161.425781 55.390625 C 162.433594 55.671875 163.492188 56.113281 164.304688 56.761719 C 165.9375 58.054688 165.753906 60.289062 164.035156 61.46875 C 162.683594 62.398438 161.125 62.703125 159.523438 62.832031 C 155.957031 63.121094 152.519531 62.464844 149.121094 61.46875 C 148.847656 61.386719 148.59375 61.25 148.34375 61.121094 C 148.289062 61.074219 148.257812 60.984375 148.035156 60.679688 Z M 160.859375 45.25 C 160.78125 45.234375 160.699219 45.207031 160.621094 45.183594 C 160.652344 43.53125 160.339844 41.964844 159.371094 40.582031 C 157.84375 38.398438 154.144531 38.390625 152.703125 40.558594 C 151.152344 42.914062 151.191406 47.488281 152.792969 49.808594 C 154.421875 52.1875 158.484375 51.976562 159.667969 49.359375 C 160.269531 48.082031 160.476562 46.621094 160.859375 45.25 Z M 100.527344 43.691406 C 101.03125 43.867188 101.3125 43.972656 101.597656 44.058594 C 104.367188 44.945312 105.902344 47.144531 105.796875 50.058594 C 105.667969 53.519531 103.335938 56.128906 99.855469 56.351562 C 96.769531 56.546875 93.667969 56.480469 90.574219 56.503906 C 90.394531 56.503906 90.070312 56.160156 90.070312 55.976562 C 90.078125 48.78125 90.109375 41.59375 90.148438 34.402344 L 90.148438 32.046875 C 90.742188 32.046875 91.347656 32.039062 91.972656 32.046875 C 94.296875 32.074219 96.632812 32.066406 98.960938 32.144531 C 100.390625 32.203125 101.765625 32.570312 102.984375 33.390625 C 104.996094 34.753906 105.4375 36.769531 105.199219 39.019531 C 104.964844 41.035156 103.832031 42.390625 101.933594 43.113281 C 101.511719 43.273438 101.121094 43.449219 100.527344 43.691406 Z M 94.234375 49.695312 L 94.273438 49.695312 C 94.273438 51.140625 94.257812 52.59375 94.296875 54.039062 C 94.304688 54.234375 94.617188 54.585938 94.777344 54.585938 C 95.859375 54.601562 96.9375 54.578125 98.007812 54.492188 C 99.800781 54.335938 101.03125 53.335938 101.367188 51.632812 C 101.542969 50.757812 101.527344 49.824219 101.472656 48.933594 C 101.328125 46.527344 99.65625 45.105469 97.433594 44.871094 C 96.617188 44.78125 95.792969 44.757812 94.976562 44.664062 C 94.417969 44.597656 94.203125 44.808594 94.21875 45.359375 C 94.257812 46.796875 94.234375 48.242188 94.234375 49.695312 Z M 94.464844 33.808594 C 94.324219 34.070312 94.273438 34.128906 94.273438 34.175781 C 94.273438 36.960938 94.265625 39.75 94.296875 42.527344 C 94.296875 42.703125 94.652344 43.03125 94.84375 43.015625 C 95.808594 43.015625 96.785156 43 97.730469 42.847656 C 99.199219 42.605469 100.527344 41.980469 100.878906 40.390625 C 101.128906 39.28125 101.167969 38.070312 101.046875 36.945312 C 100.917969 35.71875 100.289062 34.570312 98.976562 34.296875 C 97.472656 33.984375 95.90625 33.953125 94.464844 33.808594 Z M 67.175781 37.429688 C 65.71875 38.96875 64.449219 40.335938 63.160156 41.683594 C 62.433594 42.4375 61.714844 43.210938 60.945312 43.925781 C 60.507812 44.339844 60.480469 44.621094 60.875 45.121094 C 63.898438 48.835938 66.871094 52.59375 69.964844 56.457031 C 68.453125 56.457031 67.070312 56.488281 65.671875 56.433594 C 65.40625 56.425781 65.128906 56.0625 64.929688 55.816406 C 62.554688 52.949219 60.1875 50.089844 57.820312 47.214844 C 57.753906 47.136719 57.660156 47.09375 57.46875 46.941406 L 57.46875 56.441406 L 53.621094 56.441406 L 53.621094 30.289062 L 57.4375 30.289062 L 57.4375 45.089844 C 58.125 44.367188 58.683594 43.796875 59.21875 43.203125 C 60.890625 41.378906 62.539062 39.546875 64.199219 37.726562 C 64.34375 37.574219 64.578125 37.453125 64.777344 37.445312 C 65.488281 37.414062 66.199219 37.429688 67.175781 37.429688 Z M 131.6875 37.402344 L 131.6875 39.652344 C 132.535156 38.96875 133.257812 38.191406 134.152344 37.726562 C 136.078125 36.730469 138.148438 36.707031 140.1875 37.386719 C 142.324219 38.109375 143.492188 39.734375 143.523438 42.125 C 143.597656 46.414062 143.5625 50.707031 143.578125 54.996094 C 143.578125 56.496094 143.578125 56.496094 142.058594 56.503906 C 141.371094 56.503906 140.699219 56.515625 140.011719 56.503906 C 139.957031 56.503906 139.910156 56.464844 139.796875 56.417969 L 139.796875 55.203125 C 139.796875 51.398438 139.796875 47.59375 139.789062 43.789062 C 139.789062 43.25 139.71875 42.710938 139.636719 42.179688 C 139.507812 41.242188 138.957031 40.574219 138.132812 40.132812 C 135.71875 38.839844 132.59375 40.160156 131.976562 42.816406 C 131.746094 43.78125 131.6875 44.792969 131.6875 45.777344 C 131.6875 49.101562 131.730469 52.433594 131.800781 55.75 C 131.808594 56.359375 131.640625 56.554688 131.050781 56.53125 C 130.042969 56.488281 129.019531 56.523438 127.929688 56.523438 L 127.929688 55.445312 C 127.921875 49.671875 127.921875 43.90625 127.90625 38.144531 C 127.90625 37.597656 128.011719 37.386719 128.617188 37.421875 C 129.578125 37.445312 130.546875 37.402344 131.6875 37.402344 Z M 45.027344 56.503906 C 45.027344 52.859375 45.042969 49.304688 45.015625 45.761719 C 45.007812 44.519531 45.042969 43.25 44.808594 42.046875 C 44.691406 41.402344 44.160156 40.679688 43.609375 40.292969 C 41.210938 38.640625 37.683594 40.175781 37.179688 43.039062 C 37.09375 43.546875 37.039062 44.050781 37.054688 44.566406 C 37.0625 48.394531 37.085938 52.234375 37.109375 56.0625 C 37.109375 56.167969 37.070312 56.28125 37.039062 56.441406 L 33.3125 56.441406 L 33.3125 37.484375 L 36.851562 37.484375 L 36.851562 39.902344 C 37.117188 39.714844 37.253906 39.660156 37.308594 39.5625 C 38.957031 36.585938 44.457031 36.207031 47 38.183594 C 48.160156 39.082031 48.742188 40.285156 48.785156 41.707031 C 48.855469 45.03125 48.855469 48.355469 48.878906 51.671875 C 48.886719 53.0625 48.878906 54.457031 48.902344 55.847656 C 48.910156 56.371094 48.742188 56.546875 48.207031 56.515625 C 47.175781 56.480469 46.152344 56.503906 45.027344 56.503906 Z M 110.835938 40.878906 C 110.644531 40.214844 110.441406 39.683594 110.371094 39.136719 C 110.347656 38.921875 110.539062 38.519531 110.738281 38.425781 C 113.585938 37.011719 116.566406 36.578125 119.664062 37.363281 C 122.070312 37.980469 122.996094 39.226562 123.019531 41.804688 C 123.054688 44.960938 123.03125 48.113281 123.03125 51.269531 C 123.03125 51.808594 123.03125 52.355469 123.0625 52.894531 C 123.15625 54.226562 123.675781 54.546875 124.902344 54.074219 C 125.050781 54.007812 125.195312 53.945312 125.445312 53.824219 C 125.445312 54.417969 125.515625 54.925781 125.421875 55.398438 C 125.363281 55.679688 125.117188 56.007812 124.859375 56.152344 C 123.894531 56.707031 122.820312 56.859375 121.734375 56.675781 C 120.871094 56.53125 120.207031 56.105469 119.855469 55.253906 C 119.695312 54.867188 119.511719 54.492188 119.3125 54.046875 C 119.109375 54.226562 118.953125 54.335938 118.824219 54.480469 C 116.992188 56.5625 114.648438 57.171875 112.042969 56.640625 C 110.089844 56.25 108.867188 54.925781 108.445312 52.972656 C 107.699219 49.488281 108.964844 47.113281 112.289062 45.792969 C 114.082031 45.082031 115.953125 44.589844 117.742188 43.882812 C 119.222656 43.304688 119.75 41.636719 118.824219 40.375 C 118.40625 39.8125 117.664062 39.332031 116.984375 39.164062 C 115.015625 38.65625 113.242188 39.316406 111.59375 40.375 C 111.371094 40.511719 111.15625 40.664062 110.835938 40.878906 Z M 119.117188 45.25 C 117.433594 45.964844 115.703125 46.636719 114.027344 47.441406 C 112.691406 48.074219 112.074219 49.289062 111.914062 50.726562 C 111.644531 53.09375 113.328125 54.667969 115.671875 54.257812 C 117.582031 53.929688 118.816406 52.738281 119.070312 50.917969 C 119.3125 49.09375 119.117188 47.214844 119.117188 45.25 Z M 177.835938 40.863281 C 177.660156 40.199219 177.453125 39.582031 177.363281 38.953125 C 177.339844 38.769531 177.597656 38.441406 177.796875 38.34375 C 180.644531 37.027344 183.585938 36.535156 186.648438 37.363281 C 188.925781 37.980469 189.964844 39.273438 190.03125 41.675781 C 190.101562 44.511719 190.046875 47.359375 190.054688 50.203125 C 190.054688 51.085938 190.046875 51.96875 190.078125 52.84375 C 190.132812 54.28125 190.671875 54.59375 191.980469 54.015625 C 192.078125 53.976562 192.1875 53.953125 192.285156 53.929688 C 192.789062 55.550781 192.53125 56.128906 190.996094 56.53125 C 190.277344 56.714844 189.488281 56.761719 188.75 56.707031 C 187.726562 56.625 187.0625 55.976562 186.71875 55.003906 C 186.632812 54.738281 186.527344 54.480469 186.375 54.074219 C 186.039062 54.378906 185.777344 54.617188 185.535156 54.867188 C 184.015625 56.351562 182.144531 56.949219 180.082031 56.777344 C 177.667969 56.585938 176.085938 55.179688 175.515625 52.972656 C 174.878906 50.460938 175.597656 48.058594 177.578125 46.789062 C 178.683594 46.082031 179.972656 45.625 181.195312 45.144531 C 182.273438 44.71875 183.410156 44.429688 184.496094 44.035156 C 185.425781 43.691406 186.136719 43.128906 186.167969 42.019531 C 186.199219 40.839844 185.679688 39.980469 184.640625 39.484375 C 182.992188 38.671875 181.378906 39.003906 179.8125 39.75 C 179.164062 40.039062 178.554688 40.457031 177.835938 40.863281 Z M 186.175781 45.304688 C 184.863281 45.777344 183.65625 46.15625 182.496094 46.671875 C 181.699219 47.015625 180.929688 47.472656 180.242188 48.003906 C 178.980469 48.972656 178.5625 50.84375 179.179688 52.410156 C 179.691406 53.710938 180.867188 54.417969 182.363281 54.3125 C 184.320312 54.167969 186.054688 52.546875 186.160156 50.589844 C 186.246094 48.863281 186.175781 47.128906 186.175781 45.304688 Z M 30.648438 53.929688 C 30.816406 56.007812 30.6875 56.207031 28.785156 56.617188 C 27.105469 56.980469 25.394531 56.714844 24.851562 54.554688 C 24.820312 54.394531 24.699219 54.265625 24.570312 54.023438 C 24.324219 54.257812 24.113281 54.425781 23.929688 54.636719 C 22.019531 56.683594 19.644531 57.246094 17.015625 56.585938 C 14.519531 55.960938 13.121094 53.316406 13.535156 50.425781 C 13.960938 47.554688 15.96875 46.300781 18.421875 45.472656 C 19.867188 44.992188 21.332031 44.550781 22.765625 44.011719 C 24.019531 43.546875 24.554688 42.6875 24.476562 41.5625 C 24.386719 40.367188 23.5625 39.417969 22.300781 39.15625 C 20.292969 38.730469 18.484375 39.21875 16.824219 40.382812 C 16.621094 40.527344 16.40625 40.664062 16.101562 40.890625 C 15.902344 40.238281 15.679688 39.652344 15.574219 39.066406 C 15.542969 38.882812 15.773438 38.535156 15.976562 38.441406 C 18.820312 37.035156 21.804688 36.59375 24.898438 37.386719 C 27.234375 37.992188 28.242188 39.324219 28.25 41.765625 C 28.265625 45.226562 28.257812 48.703125 28.257812 52.160156 C 28.257812 52.363281 28.265625 52.554688 28.273438 52.765625 C 28.328125 54.335938 28.882812 54.675781 30.320312 54.023438 C 30.417969 53.96875 30.503906 53.960938 30.648438 53.929688 Z M 24.417969 45.128906 C 22.476562 46.027344 20.523438 46.78125 18.734375 47.824219 C 17.140625 48.75 16.679688 50.996094 17.460938 52.675781 C 17.917969 53.648438 18.6875 54.234375 19.773438 54.320312 C 22.1875 54.523438 24.1875 52.988281 24.402344 50.589844 C 24.539062 48.871094 24.417969 47.128906 24.417969 45.128906 Z M 72.804688 40.816406 C 72.714844 40.710938 72.691406 40.695312 72.683594 40.664062 C 71.925781 38.609375 71.933594 38.570312 73.957031 37.835938 C 76.300781 36.988281 78.699219 36.746094 81.152344 37.269531 C 83.65625 37.796875 84.863281 39.234375 84.878906 41.789062 C 84.894531 45.199219 84.886719 48.605469 84.886719 52.007812 L 84.886719 52.355469 C 84.917969 54.355469 85.3125 54.636719 87.148438 53.984375 C 87.542969 55.613281 87.261719 56.152344 85.679688 56.53125 C 85.054688 56.683594 84.390625 56.730469 83.75 56.691406 C 82.734375 56.617188 82.015625 56.070312 81.648438 55.085938 C 81.527344 54.746094 81.382812 54.417969 81.207031 53.976562 C 80.9375 54.242188 80.730469 54.417969 80.546875 54.617188 C 78.65625 56.632812 76.324219 57.210938 73.707031 56.601562 C 71.238281 56.03125 69.78125 53.480469 70.109375 50.597656 C 70.316406 48.773438 71.15625 47.328125 72.78125 46.5 C 74.011719 45.875 75.332031 45.433594 76.625 44.953125 C 77.507812 44.621094 78.410156 44.398438 79.289062 44.058594 C 80.617188 43.554688 81.199219 42.679688 81.074219 41.5 C 80.945312 40.269531 80.066406 39.386719 78.746094 39.128906 C 76.828125 38.753906 75.089844 39.210938 73.507812 40.3125 C 73.300781 40.472656 73.070312 40.625 72.804688 40.816406 Z M 81.023438 45.121094 C 79.097656 46.019531 77.128906 46.765625 75.347656 47.816406 C 73.722656 48.773438 73.292969 51.140625 74.164062 52.820312 C 74.613281 53.695312 75.339844 54.191406 76.308594 54.296875 C 78.675781 54.5625 80.769531 53.019531 81 50.644531 C 81.152344 48.910156 81.023438 47.152344 81.023438 45.121094 Z M 0.0625 32.097656 L 4.226562 32.097656 C 4.253906 32.335938 4.292969 32.546875 4.292969 32.753906 C 4.292969 39.796875 4.285156 46.839844 4.269531 53.886719 C 4.269531 54.378906 4.429688 54.53125 4.90625 54.523438 C 7.210938 54.480469 9.507812 54.464844 11.800781 54.417969 C 12.25 54.410156 12.441406 54.515625 12.433594 54.964844 C 12.425781 55.195312 12.425781 55.421875 12.449219 55.648438 C 12.511719 56.296875 12.273438 56.539062 11.578125 56.53125 C 7.945312 56.503906 4.308594 56.523438 0.679688 56.539062 C 0.199219 56.539062 0.046875 56.394531 0.046875 55.902344 C 0.0625 49.824219 0.0625 43.753906 0.0625 37.667969 Z M 168.304688 56.503906 L 168.304688 30.289062 L 172.117188 30.289062 L 172.117188 33.4375 C 172.117188 40.589844 172.109375 47.746094 172.109375 54.914062 C 172.109375 56.523438 172.101562 56.523438 170.472656 56.515625 L 168.304688 56.515625 Z M 168.304688 56.503906 "/>
<path style=" stroke:none;fill-rule:nonzero;fill:rgb(0%,0%,0%);fill-opacity:1;" d="M 189.222656 29.292969 L 189.222656 28.371094 L 193.546875 28.371094 L 193.546875 29.292969 L 191.933594 29.292969 L 191.933594 33.65625 L 190.839844 33.65625 L 190.839844 29.292969 Z M 194.261719 28.378906 L 195.628906 28.378906 L 197.074219 31.929688 L 197.140625 31.929688 L 198.585938 28.378906 L 199.953125 28.378906 L 199.953125 33.671875 L 198.875 33.671875 L 198.875 30.226562 L 198.835938 30.226562 L 197.476562 33.648438 L 196.738281 33.648438 L 195.378906 30.21875 L 195.339844 30.21875 L 195.339844 33.671875 L 194.261719 33.671875 Z M 186.230469 75.808594 L 187.167969 76.441406 C 187.160156 76.457031 187.152344 76.457031 187.152344 76.472656 C 186.945312 76.8125 186.6875 77.085938 186.375 77.300781 C 186.089844 77.535156 185.746094 77.695312 185.351562 77.824219 C 184.984375 77.9375 184.578125 78 184.144531 78 C 183.425781 78 182.777344 77.832031 182.21875 77.484375 C 181.65625 77.15625 181.21875 76.675781 180.882812 76.039062 C 180.554688 75.429688 180.394531 74.691406 180.394531 73.847656 C 180.394531 73.003906 180.5625 72.25 180.882812 71.640625 C 181.210938 71.015625 181.65625 70.539062 182.21875 70.203125 C 182.769531 69.867188 183.417969 69.691406 184.144531 69.691406 C 184.585938 69.691406 184.984375 69.753906 185.351562 69.867188 C 185.71875 69.980469 186.070312 70.15625 186.375 70.386719 C 186.679688 70.621094 186.925781 70.894531 187.152344 71.222656 C 187.175781 71.261719 187.207031 71.3125 187.230469 71.367188 L 186.160156 71.761719 C 186.144531 71.738281 186.136719 71.707031 186.121094 71.679688 C 185.976562 71.480469 185.800781 71.3125 185.609375 71.175781 C 185.410156 71.03125 185.183594 70.933594 184.929688 70.855469 C 184.679688 70.78125 184.417969 70.75 184.152344 70.75 C 183.664062 70.75 183.234375 70.863281 182.832031 71.101562 C 182.441406 71.335938 182.128906 71.671875 181.898438 72.148438 C 181.667969 72.605469 181.546875 73.175781 181.546875 73.839844 C 181.546875 74.507812 181.65625 75.078125 181.898438 75.535156 C 182.136719 75.992188 182.441406 76.328125 182.832031 76.578125 C 183.226562 76.8125 183.65625 76.933594 184.152344 76.933594 C 184.425781 76.933594 184.6875 76.898438 184.929688 76.828125 C 185.183594 76.746094 185.402344 76.652344 185.609375 76.507812 C 185.808594 76.378906 185.976562 76.210938 186.121094 75.992188 L 186.128906 75.992188 C 186.152344 75.945312 186.191406 75.871094 186.230469 75.808594 Z M 151.992188 69.867188 L 153.183594 69.867188 L 153.183594 77.917969 L 151.992188 77.917969 Z M 162.058594 69.867188 L 162.058594 77.910156 L 156.269531 72.652344 L 156.269531 77.929688 L 155.078125 77.929688 L 155.078125 69.867188 L 160.859375 75.140625 L 160.859375 69.867188 Z M 178.546875 69.867188 L 178.546875 77.808594 L 172.757812 72.652344 L 172.757812 77.929688 L 171.566406 77.929688 L 171.566406 69.988281 L 177.347656 75.140625 L 177.347656 69.867188 Z M 146.660156 71.070312 L 146.660156 72.964844 L 150.113281 72.964844 L 150.113281 74.160156 L 146.660156 74.160156 L 146.660156 77.929688 L 145.46875 77.929688 L 145.46875 69.867188 L 150.121094 69.867188 L 150.121094 71.070312 Z M 166.808594 69.980469 L 162.84375 77.910156 L 164.074219 77.910156 L 165.121094 75.824219 L 168.488281 75.824219 L 168.640625 76.121094 L 169.542969 77.910156 L 170.773438 77.910156 Z M 165.722656 74.621094 L 166.808594 72.445312 L 167.898438 74.621094 Z M 190.335938 71.070312 L 190.335938 72.964844 L 193.789062 72.964844 L 193.789062 74.160156 L 190.335938 74.160156 L 190.335938 76.714844 L 193.789062 76.714844 L 193.789062 77.917969 L 189.125 77.917969 L 189.125 69.859375 L 193.789062 69.859375 L 193.789062 71.0625 Z M 190.335938 71.070312 "/>
<path style=" stroke:none;fill-rule:nonzero;fill:rgb(96.078432%,58.039218%,13.333334%);fill-opacity:1;" d="M 57.636719 18.191406 C 57.636719 18.191406 91.003906 -7.398438 138.269531 2.125 C 138.269531 2.125 163.195312 6.644531 185.054688 25.859375 C 185.054688 25.859375 155.46875 4.378906 116.726562 4.871094 C 77.976562 5.351562 57.636719 18.191406 57.636719 18.191406 Z M 57.636719 18.191406 "/>
<path style=" stroke:none;fill-rule:nonzero;fill:rgb(70.19608%,70.19608%,71.764708%);fill-opacity:1;" d="M 141.605469 2.164062 C 164.425781 6.128906 179.484375 14.113281 188.679688 20.878906 C 186.855469 19.867188 124.476562 -14.09375 61.671875 23.335938 C 62.65625 22.566406 98.3125 -5.359375 141.605469 2.164062 Z M 141.605469 2.164062 "/>
</g>
</svg>
