<?xml version="1.0" encoding="UTF-8"?>
<svg xmlns="http://www.w3.org/2000/svg" xmlns:xlink="http://www.w3.org/1999/xlink" width="150px" height="82px" viewBox="0 0 149 82" version="1.1">
<defs>
<linearGradient id="linear0" gradientUnits="userSpaceOnUse" x1="658.282471" y1="1212.250854" x2="1341.717529" y2="1212.250854" gradientTransform="matrix(0.0809094,0,0,-0.0811632,-6.409443,122.321881)">
<stop offset="0" style="stop-color:rgb(92.941176%,12.54902%,14.117647%);stop-opacity:1;"/>
<stop offset="0.1206" style="stop-color:rgb(93.333333%,14.901961%,14.901961%);stop-opacity:1;"/>
<stop offset="0.2721" style="stop-color:rgb(93.333333%,21.176471%,17.647059%);stop-opacity:1;"/>
<stop offset="0.4402" style="stop-color:rgb(94.117647%,28.627451%,23.137255%);stop-opacity:1;"/>
<stop offset="0.6203" style="stop-color:rgb(94.509804%,37.647059%,32.54902%);stop-opacity:1;"/>
<stop offset="0.8078" style="stop-color:rgb(95.294118%,47.843137%,43.921569%);stop-opacity:1;"/>
<stop offset="0.9315" style="stop-color:rgb(96.078431%,54.509804%,53.333333%);stop-opacity:1;"/>
</linearGradient>
</defs>
<g id="surface1">
<path style=" stroke:none;fill-rule:nonzero;fill:url(#linear0);" d="M 101.328125 19.367188 C 99.734375 17.246094 96.3125 16.304688 92.574219 17.214844 L 93.34375 16.929688 C 95.503906 14.527344 95.390625 11.90625 93.570312 10.355469 C 90.230469 7.921875 84.347656 8.472656 81.683594 9.449219 L 46.851562 23.011719 L 54.070312 26.734375 L 80.8125 15.820312 C 82.332031 15.195312 84.121094 15.332031 84.777344 16.121094 C 85.4375 16.90625 84.734375 18.082031 83.222656 18.742188 L 58.882812 29.226562 L 62.402344 31.039062 L 62.589844 31.136719 L 66.214844 33 L 87.195312 23.3125 C 88.691406 22.605469 90.398438 22.695312 90.996094 23.480469 C 91.597656 24.269531 90.859375 25.511719 89.386719 26.25 L 70.890625 35.4375 L 78.253906 39.242188 L 97.148438 28.554688 C 101.484375 26.175781 103.359375 22.019531 101.328125 19.367188 Z M 101.328125 19.367188 "/>
<path style=" stroke:none;fill-rule:nonzero;fill:rgb(88.627452%,12.156863%,14.901961%);fill-opacity:1;" d="M 62.492188 4.164062 C 61.191406 1.292969 58.15625 -0.378906 55.042969 0.0742188 L 54.523438 0.121094 C 50.398438 0.527344 47.007812 3.539062 47.007812 7.703125 L 47.007812 23.066406 L 54.328125 26.847656 L 54.328125 9.847656 C 54.265625 6.492188 58.925781 7.953125 58.867188 10.714844 L 58.867188 29.195312 L 62.476562 31.0625 L 62.558594 31.101562 L 66.207031 32.984375 L 66.207031 12.734375 C 66.207031 8.757812 70.648438 10.105469 70.746094 13.117188 L 70.746094 35.339844 L 78.027344 39.136719 L 78.027344 12.167969 C 75.90625 -3.34375 65.761719 -1.558594 62.492188 4.164062 Z M 62.492188 4.164062 "/>
<path style=" stroke:none;fill-rule:nonzero;fill:rgb(88.627452%,12.156863%,14.901961%);fill-opacity:1;" d="M 18.703125 66.199219 L 15.136719 66.199219 L 15.136719 59.394531 C 15.183594 58.699219 15.089844 58 14.835938 57.351562 C 14.449219 56.824219 13.824219 56.515625 13.171875 56.539062 C 12.5 56.523438 11.875 56.855469 11.519531 57.433594 C 11.238281 58.046875 11.109375 58.722656 11.15625 59.402344 L 11.15625 66.207031 L 7.402344 66.207031 L 7.402344 59.402344 C 7.449219 58.746094 7.371094 58.082031 7.160156 57.457031 C 6.898438 56.886719 6.332031 56.53125 5.710938 56.554688 C 4.984375 56.53125 4.277344 56.816406 3.769531 57.335938 C 3.625 57.5625 3.535156 57.820312 3.492188 58.089844 C 3.429688 58.527344 3.40625 58.964844 3.414062 59.414062 L 3.414062 66.214844 L 0.03125 66.214844 L 0.03125 53.738281 L 3.40625 53.738281 L 3.40625 55.152344 C 3.777344 54.753906 4.207031 54.40625 4.675781 54.113281 C 5.558594 53.714844 6.519531 53.511719 7.492188 53.519531 C 8.332031 53.488281 9.140625 53.820312 9.722656 54.429688 C 10.160156 54.800781 10.53125 55.242188 10.824219 55.734375 C 11.082031 55.265625 11.421875 54.851562 11.828125 54.511719 C 12.757812 53.875 13.859375 53.535156 14.984375 53.550781 C 15.757812 53.542969 16.519531 53.753906 17.167969 54.175781 C 17.839844 54.605469 18.316406 55.273438 18.519531 56.042969 C 18.65625 56.628906 18.722656 57.230469 18.703125 57.828125 Z M 18.703125 66.199219 "/>
<path style=" stroke:none;fill-rule:nonzero;fill:rgb(88.627452%,12.156863%,14.901961%);fill-opacity:1;" d="M 24.742188 48.851562 C 24.757812 49.429688 24.539062 49.980469 24.140625 50.394531 C 23.761719 50.800781 23.21875 51.035156 22.660156 51.019531 C 22.101562 51.027344 21.570312 50.800781 21.195312 50.386719 C 20.800781 49.980469 20.582031 49.429688 20.597656 48.851562 C 20.589844 48.285156 20.800781 47.742188 21.195312 47.335938 C 21.972656 46.523438 23.261719 46.5 24.070312 47.277344 C 24.085938 47.292969 24.109375 47.320312 24.125 47.335938 C 24.53125 47.742188 24.75 48.292969 24.742188 48.851562 Z M 24.539062 66.199219 L 21.058594 66.199219 L 21.058594 54.070312 L 24.539062 54.070312 Z M 24.539062 66.199219 "/>
<path style=" stroke:none;fill-rule:nonzero;fill:rgb(88.627452%,12.156863%,14.901961%);fill-opacity:1;" d="M 89.386719 66.199219 L 86.070312 66.199219 L 86.070312 64.703125 C 85.691406 65.199219 84.871094 66.5625 81.847656 66.613281 C 80.445312 66.613281 79.105469 66.074219 78.09375 65.117188 C 76.773438 63.910156 76.054688 62.171875 76.125 60.378906 C 76.054688 58.4375 76.78125 56.546875 78.140625 55.160156 C 79.144531 54.242188 80.453125 53.738281 81.804688 53.746094 C 82.613281 53.746094 84.898438 53.828125 86.03125 55.515625 L 86.03125 45.402344 L 89.347656 45.402344 Z M 86.507812 60.09375 C 86.515625 58.203125 85.003906 56.660156 83.117188 56.652344 C 83.109375 56.652344 83.101562 56.652344 83.09375 56.652344 C 82.089844 56.628906 81.125 57.074219 80.496094 57.863281 C 79.402344 59.152344 79.402344 61.042969 80.496094 62.335938 C 81.125 63.121094 82.089844 63.566406 83.09375 63.542969 C 84.96875 63.558594 86.5 62.050781 86.515625 60.167969 C 86.507812 60.144531 86.507812 60.117188 86.507812 60.09375 Z M 86.507812 60.09375 "/>
<path style=" stroke:none;fill-rule:nonzero;fill:rgb(88.627452%,12.156863%,14.901961%);fill-opacity:1;" d="M 39.296875 66.199219 L 35.988281 66.199219 L 35.988281 64.703125 C 35.605469 65.199219 34.78125 66.5625 31.761719 66.613281 C 30.371094 66.621094 29.019531 66.074219 28.007812 65.117188 C 26.691406 63.910156 25.96875 62.171875 26.035156 60.378906 C 25.960938 58.4375 26.691406 56.546875 28.050781 55.160156 C 29.054688 54.242188 30.363281 53.738281 31.722656 53.746094 C 32.523438 53.746094 34.8125 53.828125 35.945312 55.515625 L 35.945312 45.402344 L 39.253906 45.402344 Z M 36.433594 60.09375 C 36.449219 59.175781 36.085938 58.292969 35.4375 57.652344 C 34.804688 56.992188 33.925781 56.636719 33.019531 56.652344 C 32.015625 56.628906 31.050781 57.074219 30.421875 57.863281 C 29.320312 59.152344 29.320312 61.050781 30.421875 62.335938 C 31.050781 63.121094 32.015625 63.566406 33.019531 63.542969 C 34.894531 63.558594 36.425781 62.050781 36.441406 60.167969 C 36.433594 60.144531 36.433594 60.117188 36.433594 60.09375 Z M 36.433594 60.09375 "/>
<path style=" stroke:none;fill-rule:nonzero;fill:rgb(88.627452%,12.156863%,14.901961%);fill-opacity:1;" d="M 45.398438 66.199219 L 41.652344 66.199219 L 41.652344 45.410156 L 45.398438 45.410156 Z M 45.398438 66.199219 "/>
<path style=" stroke:none;fill-rule:nonzero;fill:rgb(88.627452%,12.156863%,14.901961%);fill-opacity:1;" d="M 60.503906 66.199219 L 57.273438 66.199219 L 57.273438 64.613281 C 56.183594 65.898438 54.582031 66.628906 52.898438 66.613281 C 51.523438 66.613281 50.195312 66.074219 49.207031 65.117188 C 47.914062 63.890625 47.210938 62.164062 47.289062 60.378906 C 47.210938 58.503906 47.929688 56.675781 49.265625 55.363281 C 50.226562 54.40625 51.503906 53.8125 52.855469 53.699219 C 54.570312 53.617188 56.230469 54.363281 57.296875 55.71875 L 57.296875 54.070312 L 60.503906 54.070312 Z M 57.355469 60.117188 C 57.371094 59.234375 57.03125 58.382812 56.410156 57.75 C 55.203125 56.480469 53.203125 56.433594 51.941406 57.644531 C 51.84375 57.742188 51.75 57.835938 51.667969 57.941406 C 50.632812 59.210938 50.632812 61.027344 51.667969 62.292969 C 52.25 63.054688 53.164062 63.488281 54.128906 63.460938 C 54.992188 63.480469 55.824219 63.121094 56.425781 62.496094 C 57.039062 61.863281 57.378906 61.003906 57.355469 60.117188 Z M 57.355469 60.117188 "/>
<path style=" stroke:none;fill-rule:nonzero;fill:rgb(88.627452%,12.156863%,14.901961%);fill-opacity:1;" d="M 74.242188 66.199219 L 70.957031 66.199219 L 70.957031 59.363281 C 70.957031 58.339844 71.207031 56.402344 68.480469 56.597656 C 67.273438 56.492188 66.214844 57.382812 66.109375 58.59375 C 66.101562 58.722656 66.101562 58.851562 66.109375 58.972656 L 66.109375 66.199219 L 62.710938 66.199219 L 62.710938 54.070312 L 66.109375 54.070312 L 66.109375 55.445312 C 67.046875 54.242188 68.503906 53.558594 70.027344 53.625 C 71.09375 53.578125 72.144531 53.941406 72.960938 54.640625 C 73.878906 55.550781 74.347656 56.816406 74.25 58.097656 L 74.25 66.199219 Z M 74.242188 66.199219 "/>
<path style=" stroke:none;fill-rule:nonzero;fill:rgb(57.254905%,58.039218%,58.823532%);fill-opacity:1;" d="M 91.9375 45.410156 L 95.253906 45.410156 L 95.253906 55.515625 C 96.410156 53.820312 98.691406 53.746094 99.476562 53.746094 C 100.835938 53.738281 102.136719 54.242188 103.140625 55.160156 C 104.5 56.546875 105.230469 58.429688 105.15625 60.378906 C 105.230469 62.171875 104.507812 63.902344 103.191406 65.117188 C 102.179688 66.082031 100.835938 66.621094 99.4375 66.613281 C 96.433594 66.5625 95.609375 65.199219 95.210938 64.703125 L 95.210938 66.199219 L 91.894531 66.199219 Z M 95.804688 62.546875 C 96.441406 63.203125 97.316406 63.558594 98.230469 63.542969 C 99.234375 63.566406 100.195312 63.121094 100.828125 62.335938 C 101.929688 61.042969 101.929688 59.144531 100.828125 57.863281 C 100.195312 57.074219 99.234375 56.628906 98.230469 56.652344 C 97.324219 56.636719 96.441406 57 95.8125 57.652344 C 94.484375 59.007812 94.484375 61.179688 95.804688 62.546875 Z M 95.804688 62.546875 "/>
<path style=" stroke:none;fill-rule:nonzero;fill:rgb(57.254905%,58.039218%,58.823532%);fill-opacity:1;" d="M 119.566406 66.199219 L 116.339844 66.199219 L 116.339844 64.613281 C 115.253906 65.90625 113.644531 66.636719 111.960938 66.613281 C 110.585938 66.613281 109.265625 66.074219 108.28125 65.117188 C 106.976562 63.890625 106.273438 62.164062 106.355469 60.378906 C 106.273438 58.503906 106.992188 56.675781 108.328125 55.363281 C 109.300781 54.40625 110.570312 53.8125 111.929688 53.699219 C 113.644531 53.617188 115.292969 54.363281 116.363281 55.71875 L 116.363281 54.070312 L 119.574219 54.070312 L 119.574219 66.199219 Z M 116.394531 60.117188 C 116.410156 59.234375 116.070312 58.382812 115.449219 57.75 C 114.242188 56.480469 112.246094 56.433594 110.980469 57.644531 C 110.886719 57.742188 110.789062 57.835938 110.707031 57.941406 C 109.671875 59.210938 109.671875 61.027344 110.707031 62.292969 C 111.289062 63.054688 112.203125 63.488281 113.167969 63.460938 C 114.03125 63.480469 114.867188 63.128906 115.464844 62.496094 C 116.078125 61.863281 116.410156 61.003906 116.394531 60.117188 Z M 116.394531 60.117188 "/>
<path style=" stroke:none;fill-rule:nonzero;fill:rgb(57.254905%,58.039218%,58.823532%);fill-opacity:1;" d="M 133.410156 66.199219 L 130.132812 66.199219 L 130.132812 59.363281 C 130.132812 58.339844 130.375 56.402344 127.648438 56.597656 C 126.445312 56.492188 125.382812 57.382812 125.277344 58.59375 C 125.269531 58.722656 125.269531 58.851562 125.277344 58.972656 L 125.277344 66.199219 L 121.878906 66.199219 L 121.878906 54.070312 L 125.277344 54.070312 L 125.277344 55.445312 C 126.210938 54.226562 127.664062 53.535156 129.195312 53.585938 C 130.261719 53.535156 131.304688 53.902344 132.125 54.597656 C 133.039062 55.507812 133.507812 56.773438 133.410156 58.058594 Z M 133.410156 66.199219 "/>
<path style=" stroke:none;fill-rule:nonzero;fill:rgb(57.254905%,58.039218%,58.823532%);fill-opacity:1;" d="M 148.96875 66.199219 L 144.40625 66.199219 L 139.355469 60.492188 L 139.355469 66.199219 L 136.152344 66.199219 L 136.152344 45.410156 L 139.382812 45.410156 L 139.382812 58.746094 L 143.734375 54.070312 L 148.355469 54.070312 L 142.78125 59.445312 Z M 148.96875 66.199219 "/>
<path style=" stroke:none;fill-rule:nonzero;fill:rgb(0%,0%,0%);fill-opacity:1;" d="M 2.0625 71.820312 C 1.996094 71.820312 1.949219 71.789062 1.949219 71.726562 C 1.949219 71.628906 1.980469 71.59375 2.101562 71.59375 L 2.296875 71.59375 L 2.378906 71.585938 L 2.839844 71.59375 L 3.242188 71.585938 L 3.398438 71.585938 L 3.429688 71.578125 C 3.4375 71.570312 3.519531 71.636719 3.511719 71.652344 L 3.484375 71.726562 L 1.828125 76.714844 L 1.820312 76.742188 L 1.820312 76.75 C 1.828125 76.75 1.84375 76.742188 1.851562 76.714844 L 1.996094 76.496094 C 2.839844 75.183594 3.527344 74.542969 4.117188 74.542969 C 4.644531 74.542969 4.972656 74.945312 4.972656 75.605469 C 4.972656 76.667969 4.398438 77.820312 3.476562 78.574219 C 2.847656 79.101562 2.039062 79.425781 1.414062 79.425781 C 0.921875 79.425781 0.652344 79.207031 0.652344 78.808594 C 0.652344 78.519531 0.765625 78 0.992188 77.308594 L 2.152344 73.730469 C 2.441406 72.828125 2.644531 72.097656 2.644531 71.960938 C 2.644531 71.863281 2.578125 71.839844 2.320312 71.832031 Z M 2.046875 76.894531 C 1.59375 77.578125 1.261719 78.324219 1.261719 78.640625 C 1.261719 78.898438 1.429688 79.054688 1.730469 79.054688 C 2.289062 79.054688 2.855469 78.640625 3.484375 77.722656 C 4.101562 76.847656 4.53125 75.921875 4.53125 75.464844 C 4.53125 75.207031 4.441406 75.101562 4.207031 75.101562 C 3.605469 75.101562 2.757812 75.808594 2.046875 76.894531 Z M 2.046875 76.894531 "/>
<path style=" stroke:none;fill-rule:nonzero;fill:rgb(0%,0%,0%);fill-opacity:1;" d="M 11.730469 74.484375 C 11.785156 74.363281 11.820312 74.328125 11.925781 74.355469 L 11.933594 74.355469 L 12.3125 74.363281 C 12.378906 74.371094 12.425781 74.394531 12.425781 74.425781 C 12.425781 74.453125 12.417969 74.492188 12.394531 74.550781 L 10.976562 77.828125 C 10.65625 78.597656 10.628906 78.664062 10.628906 78.753906 C 10.628906 78.785156 10.65625 78.808594 10.6875 78.808594 C 10.863281 78.800781 11.316406 78.40625 11.640625 77.972656 L 11.730469 77.851562 C 11.761719 77.8125 11.8125 77.789062 11.84375 77.789062 C 11.898438 77.789062 11.933594 77.820312 11.933594 77.875 C 11.933594 77.992188 11.632812 78.40625 11.359375 78.664062 C 10.832031 79.191406 10.347656 79.484375 10.046875 79.484375 C 9.894531 79.484375 9.789062 79.371094 9.796875 79.230469 C 9.804688 79.039062 9.933594 78.605469 10.078125 78.265625 L 10.402344 77.496094 C 10.410156 77.488281 10.410156 77.472656 10.410156 77.472656 L 10.402344 77.464844 L 10.371094 77.472656 L 9.789062 78.097656 C 9.070312 78.851562 8.015625 79.492188 7.484375 79.492188 C 7.191406 79.492188 7.046875 79.3125 7.046875 78.957031 C 7.046875 78.078125 7.847656 76.742188 8.921875 75.808594 C 9.707031 75.125 10.492188 74.777344 11.230469 74.777344 C 11.351562 74.777344 11.429688 74.785156 11.585938 74.839844 Z M 8.9375 76.40625 C 8.339844 77.15625 7.839844 78.121094 7.839844 78.550781 C 7.839844 78.730469 7.902344 78.808594 8.066406 78.808594 C 8.519531 78.808594 9.488281 78.105469 10.226562 77.285156 C 10.769531 76.667969 11.269531 75.789062 11.269531 75.472656 C 11.269531 75.246094 11.132812 75.125 10.863281 75.125 C 10.28125 75.125 9.617188 75.5625 8.9375 76.40625 Z M 8.9375 76.40625 "/>
<path style=" stroke:none;fill-rule:nonzero;fill:rgb(0%,0%,0%);fill-opacity:1;" d="M 15.121094 76.230469 C 15.113281 76.261719 15.054688 76.285156 15.015625 76.285156 C 14.96875 76.285156 14.933594 76.246094 14.933594 76.203125 C 14.933594 76.074219 15.316406 75.539062 15.664062 75.199219 C 16.011719 74.847656 16.449219 74.582031 16.699219 74.582031 C 16.875 74.582031 17.015625 74.710938 17.015625 74.914062 C 17.015625 75.191406 16.777344 75.9375 16.359375 77.007812 L 16.292969 77.1875 C 16.285156 77.195312 16.300781 77.21875 16.316406 77.21875 C 16.324219 77.21875 16.34375 77.210938 16.34375 77.210938 L 16.570312 76.863281 C 17.46875 75.417969 18.332031 74.589844 18.964844 74.589844 C 19.320312 74.589844 19.617188 74.867188 19.617188 75.207031 C 19.617188 75.523438 19.449219 75.984375 18.929688 77.023438 L 18.324219 78.273438 C 18.171875 78.605469 18.097656 78.753906 18.097656 78.828125 C 18.097656 78.90625 18.148438 78.949219 18.210938 78.949219 C 18.390625 78.949219 18.714844 78.722656 19.191406 78.257812 L 19.304688 78.136719 C 19.328125 78.113281 19.351562 78.105469 19.367188 78.105469 C 19.433594 78.105469 19.472656 78.136719 19.472656 78.195312 C 19.472656 78.265625 19.304688 78.46875 19.003906 78.730469 C 18.460938 79.222656 17.945312 79.5 17.5625 79.5 C 17.363281 79.5 17.265625 79.402344 17.265625 79.191406 C 17.265625 79.039062 17.355469 78.785156 17.554688 78.371094 L 18.355469 76.757812 C 18.730469 76.003906 18.914062 75.515625 18.914062 75.320312 C 18.914062 75.15625 18.816406 75.042969 18.648438 75.042969 C 18.035156 75.042969 16.457031 77.195312 15.574219 79.28125 L 15.492188 79.46875 C 15.46875 79.507812 15.445312 79.53125 15.402344 79.53125 C 15.394531 79.53125 15.371094 79.53125 15.355469 79.523438 L 14.984375 79.402344 C 14.925781 79.394531 14.902344 79.363281 14.902344 79.328125 C 14.902344 79.328125 14.902344 79.320312 14.910156 79.296875 L 15.671875 77.15625 C 15.984375 76.269531 16.230469 75.464844 16.230469 75.34375 C 16.230469 75.28125 16.203125 75.246094 16.148438 75.246094 C 15.953125 75.246094 15.621094 75.5625 15.242188 76.082031 Z M 15.121094 76.230469 "/>
<path style=" stroke:none;fill-rule:nonzero;fill:rgb(0%,0%,0%);fill-opacity:1;" d="M 24.085938 71.878906 C 23.964844 71.878906 23.875 71.820312 23.875 71.75 C 23.875 71.707031 23.972656 71.601562 24.011719 71.621094 L 24.070312 71.628906 L 24.261719 71.628906 C 24.578125 71.636719 24.578125 71.636719 24.667969 71.636719 C 24.78125 71.636719 24.847656 71.636719 24.917969 71.628906 L 25.152344 71.621094 L 25.324219 71.621094 L 25.355469 71.609375 C 25.363281 71.609375 25.421875 71.652344 25.421875 71.667969 L 25.394531 71.726562 L 25.363281 71.820312 L 23.921875 75.605469 C 23.890625 75.703125 23.84375 75.816406 23.785156 75.945312 C 23.730469 76.089844 23.671875 76.230469 23.664062 76.238281 L 23.640625 76.320312 L 23.632812 76.34375 L 23.640625 76.34375 C 23.648438 76.34375 23.664062 76.335938 23.664062 76.320312 L 23.835938 76.109375 C 24.183594 75.667969 24.496094 75.351562 24.820312 75.101562 C 25.21875 74.792969 25.742188 74.582031 26.09375 74.582031 C 26.527344 74.582031 26.875 74.929688 26.875 75.386719 C 26.875 76.125 26.179688 76.933594 25.234375 77.308594 C 24.949219 77.421875 24.863281 77.429688 24.425781 77.464844 C 24.320312 77.472656 24.246094 77.472656 24.191406 77.488281 C 24.15625 77.488281 24.140625 77.480469 24.070312 77.445312 L 24.09375 77.480469 L 24.328125 77.796875 C 24.394531 77.867188 24.53125 78.078125 24.636719 78.226562 L 24.847656 78.566406 C 25.339844 79.355469 25.710938 79.6875 26.117188 79.6875 C 26.34375 79.6875 26.554688 79.539062 26.554688 79.394531 C 26.554688 79.328125 26.519531 79.296875 26.398438 79.265625 L 26.308594 79.242188 C 26.1875 79.207031 26.109375 79.09375 26.109375 78.957031 C 26.109375 78.777344 26.261719 78.648438 26.480469 78.648438 C 26.746094 78.648438 26.972656 78.890625 26.972656 79.175781 C 26.972656 79.589844 26.570312 79.921875 26.066406 79.921875 C 25.453125 79.921875 24.886719 79.582031 24.359375 78.914062 L 24.101562 78.574219 C 23.695312 78.054688 23.503906 77.789062 23.300781 77.390625 C 23.292969 77.367188 23.292969 77.359375 23.277344 77.359375 C 23.277344 77.359375 23.253906 77.382812 23.253906 77.398438 L 22.507812 79.417969 C 22.476562 79.484375 22.449219 79.515625 22.410156 79.515625 C 22.386719 79.515625 22.363281 79.515625 22.328125 79.507812 L 22.007812 79.378906 C 21.949219 79.355469 21.917969 79.3125 21.917969 79.28125 C 21.917969 79.257812 21.925781 79.242188 21.941406 79.191406 L 24.402344 72.542969 C 24.523438 72.226562 24.554688 72.105469 24.554688 72.023438 C 24.554688 71.953125 24.464844 71.902344 24.320312 71.902344 L 24.085938 71.902344 Z M 24.117188 76.253906 C 23.6875 76.652344 23.375 77.023438 23.375 77.128906 C 23.375 77.195312 23.519531 77.242188 23.730469 77.242188 C 24.75 77.242188 26.585938 75.960938 26.585938 75.238281 C 26.585938 75.078125 26.472656 74.980469 26.285156 74.964844 C 25.882812 74.9375 24.917969 75.507812 24.117188 76.253906 Z M 24.117188 76.253906 "/>
<path style=" stroke:none;fill-rule:nonzero;fill:rgb(0%,0%,0%);fill-opacity:1;" d="M 35.777344 74.445312 C 36.042969 73.589844 36.246094 73.160156 36.609375 72.65625 C 37.105469 71.953125 37.886719 71.472656 38.542969 71.472656 C 38.859375 71.472656 39.085938 71.636719 39.085938 71.871094 C 39.085938 72.089844 38.890625 72.246094 38.617188 72.246094 C 38.511719 72.246094 38.421875 72.21875 38.351562 72.1875 L 38.148438 72.105469 C 38.027344 72.050781 37.914062 72.015625 37.847656 72.015625 C 37.453125 72.015625 37.039062 72.648438 36.660156 73.835938 L 36.335938 74.875 L 37.628906 74.875 C 37.652344 74.875 37.660156 74.882812 37.660156 74.898438 L 37.660156 74.921875 L 37.582031 75.183594 C 37.582031 75.214844 37.574219 75.214844 37.53125 75.214844 L 36.230469 75.214844 L 35.324219 78.324219 C 34.871094 79.890625 34.5625 80.667969 34.140625 81.246094 C 33.820312 81.707031 33.367188 81.96875 32.90625 81.96875 C 32.523438 81.96875 32.234375 81.773438 32.234375 81.488281 C 32.234375 81.261719 32.433594 81.074219 32.6875 81.074219 C 32.863281 81.074219 33 81.164062 33.089844 81.316406 L 33.15625 81.464844 C 33.21875 81.578125 33.277344 81.625 33.332031 81.625 C 33.566406 81.625 33.820312 81.066406 34.28125 79.5 L 35.5 75.246094 L 34.644531 75.246094 C 34.585938 75.246094 34.578125 75.246094 34.578125 75.222656 L 34.578125 75.214844 L 34.660156 74.9375 C 34.667969 74.914062 34.691406 74.898438 34.707031 74.898438 L 35.632812 74.898438 Z M 35.777344 74.445312 "/>
<path style=" stroke:none;fill-rule:nonzero;fill:rgb(0%,0%,0%);fill-opacity:1;" d="M 42.785156 75.886719 C 42.785156 77.550781 41.335938 79.433594 40.058594 79.433594 C 39.394531 79.433594 38.980469 78.933594 38.980469 78.128906 C 38.980469 76.464844 40.429688 74.574219 41.722656 74.574219 C 42.386719 74.574219 42.785156 75.058594 42.785156 75.886719 Z M 40.152344 76.5625 C 39.757812 77.367188 39.523438 78.113281 39.523438 78.589844 C 39.523438 78.996094 39.675781 79.191406 39.984375 79.191406 C 40.484375 79.191406 41.085938 78.558594 41.625 77.421875 C 42 76.652344 42.257812 75.824219 42.257812 75.402344 C 42.257812 75.019531 42.085938 74.777344 41.804688 74.777344 C 41.335938 74.785156 40.703125 75.464844 40.152344 76.5625 Z M 40.152344 76.5625 "/>
<path style=" stroke:none;fill-rule:nonzero;fill:rgb(0%,0%,0%);fill-opacity:1;" d="M 45.753906 79.371094 C 45.695312 79.347656 45.671875 79.328125 45.671875 79.304688 C 45.671875 79.296875 45.671875 79.273438 45.679688 79.242188 L 46.222656 77.558594 C 46.375 77.082031 46.449219 76.855469 46.511719 76.601562 L 46.617188 76.222656 L 46.683594 75.96875 C 46.75 75.757812 46.773438 75.621094 46.765625 75.554688 L 46.730469 75.402344 L 46.335938 75.652344 C 46.304688 75.683594 45.980469 76.097656 45.882812 76.238281 L 45.769531 76.414062 C 45.71875 76.488281 45.6875 76.511719 45.648438 76.511719 C 45.597656 76.511719 45.566406 76.472656 45.566406 76.398438 C 45.566406 76.320312 45.832031 75.898438 46.140625 75.492188 C 46.570312 74.921875 47 74.582031 47.273438 74.582031 C 47.445312 74.582031 47.558594 74.703125 47.558594 74.898438 C 47.558594 75.09375 47.453125 75.589844 47.324219 75.992188 L 46.949219 77.1875 L 46.949219 77.210938 C 46.949219 77.234375 46.957031 77.242188 46.972656 77.242188 C 46.984375 77.242188 47 77.234375 47.007812 77.21875 L 47.273438 76.667969 C 47.976562 75.296875 48.570312 74.582031 49.011719 74.582031 C 49.265625 74.582031 49.441406 74.777344 49.441406 75.050781 C 49.441406 75.386719 49.09375 76.050781 48.925781 76.050781 C 48.875 76.050781 48.820312 76.011719 48.820312 75.976562 C 48.820312 75.96875 48.820312 75.953125 48.828125 75.9375 L 48.875 75.824219 C 48.957031 75.660156 48.957031 75.644531 48.957031 75.546875 C 48.957031 75.394531 48.851562 75.289062 48.707031 75.289062 C 48.40625 75.289062 48.125 75.628906 47.492188 76.765625 C 46.933594 77.769531 46.546875 78.550781 46.246094 79.320312 L 46.199219 79.433594 C 46.191406 79.46875 46.164062 79.476562 46.132812 79.476562 C 46.125 79.476562 46.101562 79.476562 46.078125 79.46875 Z M 45.753906 79.371094 "/>
<path style=" stroke:none;fill-rule:nonzero;fill:rgb(0%,0%,0%);fill-opacity:1;" d="M 57.347656 76.1875 C 57.664062 75.589844 57.75 75.386719 57.75 75.320312 C 57.75 75.289062 57.71875 75.253906 57.6875 75.253906 C 57.566406 75.253906 57.136719 75.539062 56.707031 75.886719 L 56.628906 75.953125 C 56.601562 75.976562 56.570312 75.984375 56.546875 75.984375 C 56.496094 75.984375 56.457031 75.945312 56.457031 75.886719 C 56.457031 75.789062 56.59375 75.660156 57.039062 75.296875 C 57.582031 74.882812 58.132812 74.582031 58.390625 74.582031 C 58.527344 74.582031 58.617188 74.671875 58.617188 74.800781 C 58.617188 75.019531 58.328125 75.703125 57.863281 76.585938 L 57.082031 78.105469 C 57.046875 78.175781 57.015625 78.234375 56.992188 78.289062 C 56.933594 78.40625 56.910156 78.453125 56.871094 78.550781 C 56.8125 78.640625 56.789062 78.730469 56.789062 78.769531 C 56.789062 78.800781 56.8125 78.828125 56.84375 78.828125 C 57.015625 78.828125 57.566406 78.453125 57.90625 78.105469 L 57.988281 78.023438 C 57.996094 78.015625 58.042969 77.992188 58.066406 77.992188 C 58.125 77.992188 58.15625 78.03125 58.15625 78.089844 C 58.15625 78.175781 57.945312 78.421875 57.558594 78.738281 C 57.039062 79.175781 56.457031 79.507812 56.191406 79.507812 C 56.035156 79.507812 55.957031 79.410156 55.957031 79.230469 C 55.957031 79.101562 56.035156 78.867188 56.164062 78.542969 C 56.214844 78.453125 56.214844 78.453125 56.402344 78.046875 C 56.433594 78.007812 56.464844 77.917969 56.523438 77.796875 Z M 58.738281 72.878906 C 58.738281 73.160156 58.5625 73.355469 58.308594 73.355469 C 58.042969 73.355469 57.824219 73.097656 57.824219 72.761719 C 57.824219 72.488281 58.003906 72.285156 58.253906 72.285156 C 58.527344 72.285156 58.738281 72.542969 58.738281 72.878906 Z M 58.738281 72.878906 "/>
<path style=" stroke:none;fill-rule:nonzero;fill:rgb(0%,0%,0%);fill-opacity:1;" d="M 61.367188 76.230469 C 61.359375 76.261719 61.304688 76.285156 61.261719 76.285156 C 61.214844 76.285156 61.183594 76.246094 61.183594 76.203125 C 61.183594 76.074219 61.5625 75.539062 61.910156 75.199219 C 62.257812 74.847656 62.695312 74.582031 62.945312 74.582031 C 63.125 74.582031 63.261719 74.710938 63.261719 74.914062 C 63.261719 75.191406 63.027344 75.9375 62.605469 77.007812 L 62.542969 77.1875 C 62.535156 77.195312 62.550781 77.21875 62.566406 77.21875 C 62.574219 77.21875 62.589844 77.210938 62.589844 77.210938 L 62.816406 76.863281 C 63.714844 75.417969 64.582031 74.589844 65.210938 74.589844 C 65.566406 74.589844 65.867188 74.867188 65.867188 75.207031 C 65.867188 75.523438 65.695312 75.984375 65.179688 77.023438 L 64.574219 78.273438 C 64.417969 78.605469 64.347656 78.753906 64.347656 78.828125 C 64.347656 78.90625 64.394531 78.949219 64.460938 78.949219 C 64.636719 78.949219 64.960938 78.722656 65.4375 78.257812 L 65.550781 78.136719 C 65.574219 78.113281 65.601562 78.105469 65.617188 78.105469 C 65.679688 78.105469 65.722656 78.136719 65.722656 78.195312 C 65.722656 78.265625 65.550781 78.46875 65.253906 78.730469 C 64.710938 79.222656 64.191406 79.5 63.8125 79.5 C 63.609375 79.5 63.511719 79.402344 63.511719 79.191406 C 63.511719 79.039062 63.601562 78.785156 63.804688 78.371094 L 64.605469 76.757812 C 64.976562 76.003906 65.164062 75.515625 65.164062 75.320312 C 65.164062 75.15625 65.066406 75.042969 64.894531 75.042969 C 64.28125 75.042969 62.703125 77.195312 61.820312 79.28125 L 61.742188 79.46875 C 61.714844 79.507812 61.691406 79.53125 61.652344 79.53125 C 61.644531 79.53125 61.621094 79.53125 61.601562 79.523438 L 61.230469 79.402344 C 61.175781 79.394531 61.148438 79.363281 61.148438 79.328125 C 61.148438 79.328125 61.148438 79.320312 61.15625 79.296875 L 61.917969 77.15625 C 62.234375 76.269531 62.476562 75.464844 62.476562 75.34375 C 62.476562 75.28125 62.453125 75.246094 62.394531 75.246094 C 62.203125 75.246094 61.871094 75.5625 61.488281 76.082031 Z M 61.367188 76.230469 "/>
<path style=" stroke:none;fill-rule:nonzero;fill:rgb(0%,0%,0%);fill-opacity:1;" d="M 70.875 75.027344 C 70.820312 74.972656 70.753906 74.929688 70.679688 74.929688 C 70.339844 74.929688 69.929688 75.433594 69.621094 76.230469 C 69.328125 76.945312 69.152344 77.753906 69.152344 78.265625 C 69.152344 78.640625 69.296875 78.859375 69.53125 78.859375 C 69.832031 78.859375 70.203125 78.566406 70.480469 78.089844 L 70.59375 77.894531 C 70.625 77.835938 70.671875 77.804688 70.714844 77.804688 C 70.769531 77.804688 70.800781 77.84375 70.800781 77.902344 C 70.800781 78.054688 70.550781 78.519531 70.308594 78.828125 C 69.9375 79.265625 69.507812 79.515625 69.152344 79.515625 C 68.691406 79.515625 68.421875 79.101562 68.421875 78.355469 C 68.421875 77.609375 68.773438 76.578125 69.28125 75.789062 C 69.773438 75.035156 70.445312 74.574219 71.070312 74.574219 C 71.464844 74.574219 71.734375 74.753906 71.734375 75.011719 C 71.734375 75.222656 71.585938 75.359375 71.375 75.359375 C 71.222656 75.359375 71.054688 75.289062 70.964844 75.167969 Z M 70.875 75.027344 "/>
<path style=" stroke:none;fill-rule:nonzero;fill:rgb(0%,0%,0%);fill-opacity:1;" d="M 75.390625 71.863281 C 75.308594 71.863281 75.246094 71.804688 75.246094 71.742188 C 75.246094 71.652344 75.300781 71.621094 75.421875 71.621094 L 75.679688 71.621094 C 76.039062 71.621094 76.039062 71.621094 76.433594 71.609375 L 76.667969 71.609375 C 76.734375 71.609375 76.75 71.621094 76.75 71.644531 C 76.75 71.765625 76.570312 72.300781 76.039062 73.753906 L 74.742188 77.339844 C 74.460938 78.144531 74.339844 78.5 74.339844 78.582031 C 74.339844 78.640625 74.363281 78.65625 74.402344 78.65625 C 74.574219 78.65625 75.058594 78.21875 75.566406 77.59375 L 75.722656 77.40625 C 75.753906 77.367188 75.800781 77.339844 75.84375 77.339844 C 75.898438 77.339844 75.933594 77.382812 75.933594 77.453125 C 75.933594 77.578125 75.558594 78.078125 75.113281 78.527344 C 74.53125 79.144531 73.949219 79.523438 73.617188 79.523438 C 73.480469 79.523438 73.40625 79.453125 73.40625 79.3125 C 73.40625 79.214844 73.464844 79.011719 73.554688 78.730469 L 75.574219 73.03125 C 75.730469 72.585938 75.867188 72.121094 75.867188 72.023438 C 75.867188 71.925781 75.746094 71.863281 75.542969 71.863281 Z M 75.390625 71.863281 "/>
<path style=" stroke:none;fill-rule:nonzero;fill:rgb(0%,0%,0%);fill-opacity:1;" d="M 79.671875 77.535156 C 79.347656 78.128906 79.0625 78.710938 79.0625 78.800781 C 79.0625 78.84375 79.085938 78.867188 79.144531 78.867188 C 79.347656 78.867188 79.929688 78.5 80.480469 78.03125 C 81.378906 77.285156 82.03125 76.398438 82.703125 75.011719 L 82.859375 74.679688 C 82.890625 74.636719 82.90625 74.613281 82.921875 74.613281 C 82.953125 74.613281 82.953125 74.613281 83.117188 74.695312 L 83.351562 74.816406 C 83.382812 74.824219 83.40625 74.859375 83.40625 74.882812 C 83.40625 74.890625 83.40625 74.90625 83.328125 75.070312 L 82 78.0625 C 81.683594 78.835938 81.683594 78.835938 81.683594 78.914062 C 81.683594 78.980469 81.710938 79.003906 81.765625 79.003906 C 81.9375 79.003906 82.378906 78.65625 82.695312 78.28125 L 82.792969 78.152344 C 82.816406 78.128906 82.851562 78.113281 82.882812 78.113281 C 82.9375 78.113281 82.964844 78.136719 82.964844 78.183594 C 82.964844 78.257812 82.867188 78.414062 82.679688 78.597656 C 82.105469 79.191406 81.613281 79.5 81.207031 79.5 C 80.996094 79.5 80.882812 79.402344 80.882812 79.214844 C 80.882812 79.0625 81.03125 78.597656 81.183594 78.273438 L 81.734375 77.15625 L 81.734375 77.128906 C 81.734375 77.121094 81.726562 77.105469 81.710938 77.105469 C 81.699219 77.105469 81.683594 77.113281 81.675781 77.128906 L 81.597656 77.226562 C 80.578125 78.492188 79.160156 79.507812 78.425781 79.507812 C 78.253906 79.507812 78.15625 79.410156 78.15625 79.222656 C 78.15625 79.03125 78.367188 78.511719 78.738281 77.84375 L 79.773438 75.945312 C 79.96875 75.605469 80.148438 75.230469 80.15625 75.175781 C 80.15625 75.140625 80.132812 75.109375 80.097656 75.109375 C 80.042969 75.109375 80.042969 75.109375 79.6875 75.304688 C 79.53125 75.394531 79.515625 75.402344 79.054688 75.832031 L 78.917969 75.960938 C 78.886719 75.984375 78.859375 76.003906 78.835938 76.003906 C 78.789062 76.003906 78.746094 75.945312 78.746094 75.90625 C 78.746094 75.816406 79.160156 75.402344 79.546875 75.101562 C 79.945312 74.808594 80.40625 74.597656 80.671875 74.597656 C 80.867188 74.597656 80.988281 74.695312 80.988281 74.824219 C 80.988281 74.953125 80.925781 75.175781 80.835938 75.351562 C 80.730469 75.546875 80.664062 75.695312 80.625 75.789062 Z M 79.671875 77.535156 "/>
<path style=" stroke:none;fill-rule:nonzero;fill:rgb(0%,0%,0%);fill-opacity:1;" d="M 86.691406 76.742188 C 86.667969 76.464844 86.660156 76.34375 86.660156 76.1875 C 86.660156 75.222656 87.257812 74.53125 88.078125 74.53125 C 88.480469 74.53125 88.796875 74.785156 88.796875 75.117188 C 88.796875 75.335938 88.644531 75.5 88.441406 75.5 C 88.246094 75.5 88.070312 75.335938 88.070312 75.148438 L 88.070312 75.027344 C 88.070312 74.898438 87.988281 74.808594 87.875 74.808594 C 87.558594 74.808594 87.355469 75.140625 87.355469 75.644531 C 87.355469 75.800781 87.378906 76.058594 87.40625 76.269531 L 87.519531 77.195312 C 87.566406 77.503906 87.566406 77.503906 87.566406 77.640625 C 87.566406 78.730469 86.953125 79.425781 86.003906 79.425781 C 85.480469 79.425781 85.082031 79.117188 85.082031 78.710938 C 85.082031 78.46875 85.238281 78.308594 85.457031 78.308594 C 85.683594 78.308594 85.835938 78.460938 85.835938 78.671875 L 85.835938 78.828125 C 85.835938 79.039062 85.972656 79.160156 86.214844 79.160156 C 86.621094 79.160156 86.855469 78.808594 86.855469 78.21875 C 86.855469 78.105469 86.855469 78.105469 86.824219 77.835938 Z M 86.691406 76.742188 "/>
<path style=" stroke:none;fill-rule:nonzero;fill:rgb(0%,0%,0%);fill-opacity:1;" d="M 91.929688 76.1875 C 92.242188 75.589844 92.332031 75.386719 92.332031 75.320312 C 92.332031 75.289062 92.300781 75.253906 92.269531 75.253906 C 92.144531 75.253906 91.71875 75.539062 91.289062 75.886719 L 91.207031 75.953125 C 91.183594 75.976562 91.152344 75.984375 91.125 75.984375 C 91.078125 75.984375 91.039062 75.945312 91.039062 75.886719 C 91.039062 75.789062 91.175781 75.660156 91.621094 75.296875 C 92.164062 74.882812 92.710938 74.582031 92.972656 74.582031 C 93.109375 74.582031 93.199219 74.671875 93.199219 74.800781 C 93.199219 75.019531 92.90625 75.703125 92.445312 76.585938 L 91.660156 78.105469 C 91.628906 78.175781 91.597656 78.234375 91.570312 78.289062 C 91.515625 78.40625 91.492188 78.453125 91.449219 78.550781 C 91.394531 78.640625 91.371094 78.730469 91.371094 78.769531 C 91.371094 78.800781 91.394531 78.828125 91.425781 78.828125 C 91.597656 78.828125 92.144531 78.453125 92.476562 78.105469 L 92.558594 78.023438 C 92.566406 78.015625 92.617188 77.992188 92.640625 77.992188 C 92.695312 77.992188 92.730469 78.03125 92.730469 78.089844 C 92.730469 78.175781 92.519531 78.421875 92.128906 78.738281 C 91.613281 79.175781 91.03125 79.507812 90.761719 79.507812 C 90.609375 79.507812 90.527344 79.410156 90.527344 79.230469 C 90.527344 79.101562 90.609375 78.867188 90.738281 78.542969 C 90.785156 78.453125 90.785156 78.453125 90.972656 78.046875 C 91.003906 78.007812 91.039062 77.917969 91.09375 77.796875 Z M 93.320312 72.878906 C 93.320312 73.160156 93.140625 73.355469 92.890625 73.355469 C 92.625 73.355469 92.40625 73.097656 92.40625 72.761719 C 92.40625 72.488281 92.582031 72.285156 92.835938 72.285156 C 93.109375 72.285156 93.320312 72.542969 93.320312 72.878906 Z M 93.320312 72.878906 "/>
<path style=" stroke:none;fill-rule:nonzero;fill:rgb(0%,0%,0%);fill-opacity:1;" d="M 95.738281 76.300781 C 95.691406 76.367188 95.65625 76.375 95.625 76.375 C 95.570312 76.375 95.535156 76.335938 95.535156 76.277344 C 95.535156 76.164062 95.738281 75.90625 96.117188 75.523438 C 96.675781 74.9375 97.226562 74.589844 97.566406 74.589844 C 97.746094 74.589844 97.851562 74.710938 97.851562 74.90625 C 97.851562 75.058594 97.714844 75.5625 97.566406 76.003906 L 96.839844 78.070312 C 96.75 78.324219 96.683594 78.597656 96.683594 78.6875 C 96.683594 78.820312 96.796875 78.898438 96.984375 78.898438 C 97.914062 78.898438 99.183594 77.179688 99.183594 75.929688 C 99.183594 75.71875 99.160156 75.621094 99.039062 75.394531 L 98.949219 75.207031 C 98.917969 75.125 98.894531 75.050781 98.894531 74.964844 C 98.894531 74.734375 99.046875 74.566406 99.265625 74.566406 C 99.523438 74.566406 99.671875 74.792969 99.671875 75.222656 C 99.671875 77.113281 97.882812 79.492188 96.484375 79.492188 C 96.101562 79.492188 95.902344 79.304688 95.902344 78.972656 C 95.902344 78.792969 95.957031 78.566406 96.078125 78.226562 L 96.652344 76.609375 C 96.960938 75.734375 97.058594 75.417969 97.058594 75.273438 C 97.058594 75.214844 97.035156 75.199219 96.992188 75.199219 C 96.796875 75.199219 96.476562 75.472656 95.890625 76.140625 Z M 95.738281 76.300781 "/>
<path style=" stroke:none;fill-rule:nonzero;fill:rgb(0%,0%,0%);fill-opacity:1;" d="M 104.515625 77.894531 C 104.550781 77.859375 104.582031 77.835938 104.613281 77.835938 C 104.671875 77.835938 104.71875 77.875 104.71875 77.949219 C 104.71875 78.015625 104.597656 78.210938 104.371094 78.519531 C 103.917969 79.136719 103.394531 79.453125 102.816406 79.453125 C 102.234375 79.453125 101.894531 79.046875 101.894531 78.324219 C 101.894531 76.675781 103.5625 74.589844 104.867188 74.589844 C 105.246094 74.589844 105.496094 74.847656 105.496094 75.246094 C 105.496094 75.863281 104.996094 76.464844 104.195312 76.804688 C 103.820312 76.960938 103.578125 77.023438 102.890625 77.113281 C 102.714844 77.648438 102.640625 77.949219 102.640625 78.234375 C 102.640625 78.664062 102.816406 78.851562 103.222656 78.851562 C 103.621094 78.851562 104.007812 78.589844 104.414062 78.039062 Z M 103.59375 76.691406 C 104.371094 76.375 105.148438 75.546875 105.148438 75.042969 C 105.148438 74.890625 105.066406 74.800781 104.921875 74.800781 C 104.6875 74.800781 104.363281 74.996094 104.007812 75.351562 C 103.546875 75.816406 103.304688 76.164062 102.996094 76.847656 C 103.320312 76.789062 103.402344 76.773438 103.59375 76.691406 Z M 103.59375 76.691406 "/>
<path style=" stroke:none;fill-rule:nonzero;fill:rgb(0%,0%,0%);fill-opacity:1;" d="M 114.996094 79.710938 C 115.511719 79.953125 115.714844 80.214844 115.714844 80.636719 C 115.714844 81.457031 114.753906 82 113.265625 82 C 111.992188 82 111.121094 81.480469 111.121094 80.734375 C 111.121094 80.394531 111.296875 80.101562 111.644531 79.855469 C 111.894531 79.671875 112.164062 79.574219 112.828125 79.394531 C 112.566406 79.085938 112.445312 78.792969 112.445312 78.460938 C 112.445312 78.421875 112.472656 78.371094 112.496094 78.371094 L 112.585938 78.371094 C 112.609375 78.371094 112.609375 78.371094 113.019531 78.25 C 113.085938 78.226562 113.175781 78.160156 113.378906 78.023438 C 112.972656 77.828125 112.800781 77.542969 112.800781 77.082031 C 112.800781 75.800781 113.765625 74.597656 114.800781 74.597656 C 115.171875 74.597656 115.472656 74.761719 115.707031 75.078125 L 116.621094 75.078125 C 116.644531 75.078125 116.652344 75.085938 116.652344 75.101562 L 116.652344 75.125 L 116.558594 75.402344 C 116.546875 75.425781 116.53125 75.433594 116.53125 75.433594 C 116.53125 75.433594 116.507812 75.441406 116.484375 75.433594 L 115.796875 75.425781 C 115.84375 75.589844 115.851562 75.652344 115.851562 75.765625 C 115.851562 76.238281 115.601562 76.945312 115.277344 77.390625 C 114.960938 77.804688 114.4375 78.105469 113.984375 78.105469 L 113.902344 78.105469 C 113.667969 78.105469 113.667969 78.105469 113.636719 78.113281 C 113.441406 78.175781 113.265625 78.40625 113.265625 78.605469 C 113.265625 78.851562 113.410156 78.972656 114.046875 79.265625 Z M 113.046875 79.550781 C 112.542969 79.742188 112.347656 79.839844 112.121094 80.011719 C 111.871094 80.222656 111.726562 80.492188 111.726562 80.765625 C 111.726562 81.382812 112.382812 81.765625 113.410156 81.765625 C 114.371094 81.765625 115.035156 81.382812 115.035156 80.808594 C 115.035156 80.554688 114.867188 80.375 114.40625 80.171875 Z M 114.054688 75.449219 C 113.699219 76.097656 113.425781 76.878906 113.425781 77.308594 C 113.425781 77.65625 113.605469 77.875 113.886719 77.875 C 114.242188 77.875 114.597656 77.527344 114.898438 76.871094 C 115.109375 76.390625 115.269531 75.78125 115.269531 75.425781 C 115.269531 75.050781 115.101562 74.832031 114.808594 74.832031 C 114.550781 74.824219 114.273438 75.042969 114.054688 75.449219 Z M 114.054688 75.449219 "/>
<path style=" stroke:none;fill-rule:nonzero;fill:rgb(0%,0%,0%);fill-opacity:1;" d="M 118.910156 79.371094 C 118.855469 79.347656 118.832031 79.328125 118.832031 79.304688 C 118.832031 79.296875 118.832031 79.273438 118.839844 79.242188 L 119.378906 77.558594 C 119.535156 77.082031 119.605469 76.855469 119.671875 76.601562 L 119.769531 76.222656 L 119.832031 75.96875 C 119.898438 75.757812 119.921875 75.621094 119.914062 75.554688 L 119.882812 75.402344 L 119.484375 75.652344 C 119.453125 75.683594 119.128906 76.097656 119.03125 76.238281 L 118.917969 76.414062 C 118.871094 76.488281 118.839844 76.511719 118.796875 76.511719 C 118.757812 76.511719 118.71875 76.472656 118.71875 76.398438 C 118.71875 76.320312 118.984375 75.898438 119.292969 75.492188 C 119.71875 74.921875 120.148438 74.582031 120.425781 74.582031 C 120.59375 74.582031 120.707031 74.703125 120.707031 74.898438 C 120.707031 75.09375 120.609375 75.589844 120.472656 75.992188 L 120.101562 77.1875 L 120.101562 77.210938 C 120.101562 77.234375 120.109375 77.242188 120.125 77.242188 C 120.132812 77.242188 120.148438 77.234375 120.15625 77.21875 L 120.425781 76.667969 C 121.128906 75.296875 121.71875 74.582031 122.164062 74.582031 C 122.414062 74.582031 122.59375 74.777344 122.59375 75.050781 C 122.59375 75.386719 122.246094 76.050781 122.074219 76.050781 C 122.027344 76.050781 121.976562 76.011719 121.976562 75.976562 C 121.976562 75.96875 121.976562 75.953125 121.984375 75.9375 L 122.035156 75.824219 C 122.113281 75.660156 122.113281 75.644531 122.113281 75.546875 C 122.113281 75.394531 122.019531 75.289062 121.863281 75.289062 C 121.566406 75.289062 121.28125 75.628906 120.652344 76.765625 C 120.09375 77.769531 119.703125 78.550781 119.40625 79.320312 L 119.355469 79.433594 C 119.347656 79.46875 119.324219 79.476562 119.292969 79.476562 C 119.285156 79.476562 119.257812 79.476562 119.234375 79.46875 Z M 118.910156 79.371094 "/>
<path style=" stroke:none;fill-rule:nonzero;fill:rgb(0%,0%,0%);fill-opacity:1;" d="M 128.023438 75.886719 C 128.023438 77.550781 126.574219 79.433594 125.296875 79.433594 C 124.632812 79.433594 124.21875 78.933594 124.21875 78.128906 C 124.21875 76.464844 125.667969 74.574219 126.960938 74.574219 C 127.625 74.574219 128.023438 75.058594 128.023438 75.886719 Z M 125.390625 76.5625 C 124.996094 77.367188 124.761719 78.113281 124.761719 78.589844 C 124.761719 78.996094 124.914062 79.191406 125.222656 79.191406 C 125.722656 79.191406 126.324219 78.558594 126.863281 77.421875 C 127.238281 76.652344 127.496094 75.824219 127.496094 75.402344 C 127.496094 75.019531 127.324219 74.777344 127.042969 74.777344 C 126.574219 74.785156 125.941406 75.464844 125.390625 76.5625 Z M 125.390625 76.5625 "/>
<path style=" stroke:none;fill-rule:nonzero;fill:rgb(0%,0%,0%);fill-opacity:1;" d="M 130.941406 79.484375 C 130.878906 79.476562 130.863281 79.476562 130.863281 79.453125 C 130.863281 79.417969 130.886719 79.386719 130.941406 79.257812 C 131.460938 78.257812 131.960938 76.539062 131.960938 75.789062 C 131.960938 75.34375 131.808594 75.078125 131.53125 75.078125 C 131.296875 75.078125 131.0625 75.304688 130.894531 75.703125 L 130.835938 75.847656 C 130.8125 75.90625 130.78125 75.9375 130.738281 75.9375 C 130.683594 75.9375 130.636719 75.898438 130.636719 75.839844 C 130.636719 75.683594 130.773438 75.394531 130.984375 75.101562 C 131.210938 74.792969 131.582031 74.597656 131.9375 74.597656 C 132.40625 74.597656 132.664062 74.914062 132.664062 75.523438 C 132.664062 76.375 132.367188 77.480469 131.777344 78.710938 C 131.75 78.769531 131.726562 78.808594 131.726562 78.835938 L 131.703125 78.890625 L 131.695312 78.914062 L 131.703125 78.925781 C 131.710938 78.925781 131.726562 78.914062 131.757812 78.898438 L 131.816406 78.867188 C 132.164062 78.65625 133.230469 77.714844 133.847656 77.082031 C 134.25 76.652344 134.308594 76.496094 134.308594 75.824219 C 134.308594 75.441406 134.136719 75.148438 133.894531 75.148438 C 133.683594 75.148438 133.5 75.335938 133.378906 75.703125 L 133.328125 75.832031 C 133.320312 75.898438 133.28125 75.921875 133.242188 75.921875 C 133.183594 75.921875 133.152344 75.863281 133.152344 75.789062 C 133.152344 75.628906 133.242188 75.351562 133.378906 75.132812 C 133.578125 74.792969 133.863281 74.605469 134.179688 74.605469 C 134.695312 74.605469 135.011719 75.019531 135.011719 75.703125 C 135.011719 76.335938 134.6875 77.503906 134.226562 78.550781 L 134.015625 79.019531 C 133.984375 79.09375 133.960938 79.152344 133.960938 79.152344 C 133.960938 79.160156 133.96875 79.160156 133.984375 79.160156 C 133.992188 79.160156 134.007812 79.152344 134.015625 79.136719 C 134.066406 79.109375 134.242188 79.046875 134.519531 78.957031 C 135.042969 78.792969 135.96875 77.867188 136.339844 77.113281 C 136.492188 76.796875 136.636719 76.269531 136.636719 76.035156 C 136.636719 75.871094 136.582031 75.757812 136.378906 75.472656 L 136.234375 75.296875 C 136.152344 75.183594 136.121094 75.085938 136.121094 74.964844 C 136.121094 74.742188 136.265625 74.582031 136.476562 74.582031 C 136.800781 74.582031 137.003906 74.945312 137.003906 75.546875 C 137.003906 77.414062 135.101562 79.433594 133.265625 79.515625 C 133.207031 79.515625 133.183594 79.507812 133.183594 79.484375 C 133.183594 79.460938 133.183594 79.453125 133.191406 79.425781 L 133.257812 79.296875 C 133.492188 78.800781 133.773438 78.089844 134 77.40625 L 134.082031 77.144531 L 134.089844 77.121094 L 134.082031 77.113281 C 134.082031 77.113281 134.074219 77.113281 134.074219 77.121094 L 133.644531 77.550781 C 133.175781 78.023438 132.429688 78.648438 131.871094 79.054688 L 131.296875 79.433594 C 131.234375 79.492188 131.175781 79.507812 131.152344 79.5 L 131.128906 79.5 Z M 130.941406 79.484375 "/>
<path style=" stroke:none;fill-rule:nonzero;fill:rgb(0%,0%,0%);fill-opacity:1;" d="M 139.90625 75.199219 C 139.875 75.199219 139.851562 75.199219 139.851562 75.191406 C 139.851562 75.191406 139.851562 75.167969 139.859375 75.148438 L 139.941406 74.9375 C 139.964844 74.882812 139.972656 74.875 140.003906 74.875 L 140.765625 74.875 L 141.257812 73.542969 L 141.265625 73.503906 C 141.265625 73.503906 141.289062 73.492188 141.316406 73.492188 L 141.945312 73.414062 L 141.953125 73.40625 C 141.960938 73.40625 141.976562 73.414062 141.976562 73.429688 C 141.976562 73.429688 141.976562 73.453125 141.96875 73.460938 L 141.453125 74.890625 L 142.359375 74.890625 C 142.390625 74.890625 142.390625 74.890625 142.390625 74.898438 C 142.390625 74.90625 142.390625 74.921875 142.382812 74.929688 L 142.300781 75.148438 C 142.292969 75.191406 142.292969 75.191406 142.246094 75.191406 L 141.324219 75.191406 L 140.261719 78.097656 C 140.09375 78.589844 140.09375 78.589844 140.09375 78.648438 C 140.09375 78.710938 140.125 78.746094 140.183594 78.746094 C 140.375 78.746094 140.757812 78.394531 141.136719 77.875 L 141.257812 77.699219 C 141.308594 77.632812 141.339844 77.601562 141.378906 77.601562 C 141.421875 77.601562 141.476562 77.640625 141.476562 77.699219 C 141.476562 77.820312 140.949219 78.535156 140.609375 78.851562 C 140.199219 79.257812 139.703125 79.539062 139.398438 79.539062 C 139.261719 79.539062 139.164062 79.453125 139.164062 79.328125 C 139.164062 79.242188 139.164062 79.242188 139.308594 78.792969 L 140.621094 75.199219 Z M 139.90625 75.199219 "/>
<path style=" stroke:none;fill-rule:nonzero;fill:rgb(0%,0%,0%);fill-opacity:1;" d="M 144.347656 79.460938 C 144.324219 79.523438 144.292969 79.550781 144.261719 79.550781 C 144.253906 79.550781 144.210938 79.550781 144.195312 79.539062 L 143.914062 79.425781 C 143.863281 79.417969 143.847656 79.394531 143.847656 79.371094 C 143.847656 79.347656 143.847656 79.335938 143.855469 79.3125 L 146.28125 72.359375 C 146.347656 72.179688 146.386719 72.050781 146.386719 71.992188 C 146.386719 71.902344 146.300781 71.871094 146.039062 71.871094 L 145.847656 71.863281 C 145.757812 71.855469 145.691406 71.796875 145.691406 71.734375 C 145.691406 71.699219 145.78125 71.601562 145.804688 71.609375 L 145.828125 71.621094 L 146.0625 71.621094 C 146.097656 71.621094 146.203125 71.621094 146.332031 71.628906 L 146.597656 71.628906 L 146.9375 71.621094 L 147.140625 71.621094 C 147.195312 71.621094 147.207031 71.628906 147.207031 71.660156 C 147.207031 71.804688 146.550781 73.664062 145.871094 75.507812 L 145.417969 76.691406 C 145.394531 76.765625 145.359375 76.855469 145.328125 76.933594 C 145.296875 77.03125 145.273438 77.097656 145.261719 77.113281 C 145.253906 77.121094 145.253906 77.136719 145.253906 77.136719 C 145.253906 77.144531 145.28125 77.164062 145.289062 77.164062 C 145.289062 77.164062 145.296875 77.164062 145.296875 77.15625 L 145.53125 76.789062 C 146.476562 75.304688 147.214844 74.597656 147.820312 74.597656 C 148.339844 74.597656 148.710938 75.15625 148.710938 75.914062 C 148.710938 77.683594 147.300781 79.53125 145.96875 79.53125 C 145.609375 79.53125 145.367188 79.371094 145.367188 79.125 C 145.367188 78.90625 145.5625 78.746094 145.804688 78.746094 C 145.960938 78.746094 146.121094 78.808594 146.203125 78.925781 L 146.265625 79.019531 C 146.332031 79.109375 146.386719 79.144531 146.445312 79.144531 C 146.945312 79.144531 148.234375 76.480469 148.234375 75.425781 C 148.234375 75.140625 148.136719 75.011719 147.917969 75.011719 C 147.480469 75.011719 146.695312 75.628906 146.046875 76.472656 C 145.578125 77.097656 145.085938 77.933594 144.566406 79.019531 Z M 144.347656 79.460938 "/>
</g>
</svg>
