<?xml version="1.0" encoding="UTF-8"?>
<svg xmlns="http://www.w3.org/2000/svg" xmlns:xlink="http://www.w3.org/1999/xlink" width="200px" height="29px" viewBox="0 0 197 29" version="1.1">
<g id="surface1">
<path style=" stroke:none;fill-rule:nonzero;fill:rgb(6.666667%,29.411766%,55.29412%);fill-opacity:1;" d="M 0.0976562 21.667969 L 3.636719 24.441406 C 4.503906 21.25 6.953125 18.722656 10.125 17.78125 L 10.125 11.390625 C 7.128906 10.476562 4.75 8.148438 3.761719 5.152344 L 0.292969 7.257812 C 2.449219 8.890625 3.835938 11.464844 3.835938 14.386719 C 3.835938 17.386719 2.347656 20.035156 0.0976562 21.667969 "/>
<path style=" stroke:none;fill-rule:nonzero;fill:rgb(6.666667%,29.411766%,55.29412%);fill-opacity:1;" d="M 28.542969 7.898438 L 25.003906 5.152344 C 24.136719 8.347656 21.6875 10.871094 18.515625 11.8125 L 18.515625 18.226562 C 21.511719 19.144531 23.914062 21.472656 24.878906 24.46875 L 28.347656 22.339844 C 26.191406 20.703125 24.804688 18.128906 24.804688 15.207031 C 24.804688 12.183594 26.292969 9.511719 28.542969 7.898438 "/>
<path style=" stroke:none;fill-rule:nonzero;fill:rgb(88.235295%,11.372549%,21.568628%);fill-opacity:1;" d="M 21.214844 29 L 23.964844 25.457031 C 20.769531 24.59375 18.246094 22.140625 17.304688 18.96875 L 10.917969 18.96875 C 10 21.964844 7.671875 24.367188 4.675781 25.335938 L 6.804688 28.800781 C 8.441406 26.671875 11.015625 25.261719 13.9375 25.261719 C 16.933594 25.261719 19.582031 26.746094 21.214844 29 "/>
<path style=" stroke:none;fill-rule:nonzero;fill:rgb(88.235295%,11.372549%,21.568628%);fill-opacity:1;" d="M 7.425781 0.542969 L 4.675781 4.085938 C 7.871094 4.953125 10.394531 7.40625 11.335938 10.574219 L 17.726562 10.574219 C 18.640625 7.554688 20.96875 5.175781 23.964844 4.210938 L 21.859375 0.742188 C 20.226562 2.898438 17.625 4.285156 14.730469 4.285156 C 11.707031 4.285156 9.058594 2.796875 7.425781 0.542969 "/>
<path style=" stroke:none;fill-rule:nonzero;fill:rgb(88.235295%,11.372549%,21.568628%);fill-opacity:1;" d="M 14.308594 18.476562 L 11.089844 14.785156 L 17.550781 14.785156 L 14.308594 18.476562 "/>
<path style=" stroke:none;fill-rule:nonzero;fill:rgb(6.666667%,29.411766%,55.29412%);fill-opacity:1;" d="M 14.308594 11.09375 L 17.550781 14.785156 L 11.089844 14.785156 L 14.308594 11.09375 "/>
<path style=" stroke:none;fill-rule:nonzero;fill:rgb(88.235295%,11.372549%,21.568628%);fill-opacity:1;" d="M 56.421875 28.28125 L 57.214844 28.28125 L 57.214844 9.957031 C 57.214844 8.792969 57.289062 7.898438 57.414062 7.332031 C 57.535156 6.761719 57.785156 6.289062 58.15625 5.917969 C 58.800781 5.25 59.714844 4.902344 60.878906 4.902344 L 60.878906 4.507812 L 52.855469 4.507812 L 52.855469 4.902344 C 53.527344 4.953125 54.046875 5.027344 54.464844 5.175781 C 54.886719 5.324219 55.257812 5.570312 55.582031 5.917969 C 55.925781 6.289062 56.175781 6.761719 56.324219 7.332031 C 56.449219 7.898438 56.523438 8.765625 56.523438 9.980469 L 56.523438 22.5625 L 42.382812 4.507812 L 35.675781 4.507812 L 35.675781 4.902344 C 36.34375 4.953125 36.886719 5.027344 37.308594 5.175781 C 37.730469 5.324219 38.078125 5.570312 38.398438 5.917969 C 38.769531 6.289062 38.992188 6.761719 39.140625 7.332031 C 39.289062 7.898438 39.339844 8.765625 39.339844 9.957031 L 39.339844 22.808594 C 39.339844 23.996094 39.265625 24.863281 39.140625 25.457031 C 39.015625 26.027344 38.769531 26.5 38.398438 26.871094 C 38.078125 27.21875 37.703125 27.441406 37.285156 27.613281 C 36.863281 27.761719 36.34375 27.859375 35.675781 27.886719 L 35.675781 28.28125 L 43.695312 28.28125 L 43.695312 27.886719 C 43.027344 27.859375 42.484375 27.761719 42.085938 27.613281 C 41.667969 27.464844 41.296875 27.21875 40.972656 26.871094 C 40.601562 26.5 40.355469 26.027344 40.230469 25.457031 C 40.105469 24.890625 40.03125 23.996094 40.03125 22.808594 L 40.03125 7.652344 L 56.421875 28.28125 "/>
<path style=" stroke:none;fill-rule:nonzero;fill:rgb(88.235295%,11.372549%,21.568628%);fill-opacity:1;" d="M 83.210938 27.589844 C 82.9375 27.441406 82.667969 27.191406 82.371094 26.84375 C 82 26.398438 81.550781 25.679688 81.03125 24.714844 C 80.511719 23.726562 79.71875 22.191406 78.679688 20.058594 C 78.234375 19.117188 77.914062 18.476562 77.691406 18.128906 C 77.46875 17.757812 77.21875 17.460938 76.949219 17.210938 C 76.601562 16.890625 76.105469 16.59375 75.386719 16.296875 C 76.230469 16.121094 76.898438 15.925781 77.417969 15.699219 C 77.9375 15.503906 78.382812 15.230469 78.804688 14.910156 C 80.167969 13.820312 80.859375 12.359375 80.859375 10.550781 C 80.859375 9.335938 80.539062 8.273438 79.917969 7.332031 C 79.300781 6.414062 78.382812 5.722656 77.246094 5.25 C 76.230469 4.855469 74.816406 4.605469 73.011719 4.507812 C 72.566406 4.507812 71.648438 4.484375 70.238281 4.484375 L 61.871094 4.484375 L 61.871094 4.878906 C 62.539062 4.929688 63.082031 5.003906 63.480469 5.152344 C 63.898438 5.300781 64.269531 5.546875 64.566406 5.894531 C 64.941406 6.265625 65.1875 6.734375 65.3125 7.304688 C 65.433594 7.875 65.507812 8.742188 65.507812 9.957031 L 65.507812 22.808594 C 65.507812 23.996094 65.433594 24.890625 65.3125 25.457031 C 65.1875 26.027344 64.941406 26.5 64.566406 26.871094 C 64.246094 27.191406 63.898438 27.441406 63.480469 27.589844 C 63.058594 27.738281 62.511719 27.835938 61.84375 27.886719 L 61.84375 28.28125 L 72.960938 28.28125 L 72.960938 27.886719 C 72.292969 27.859375 71.75 27.761719 71.328125 27.589844 C 70.90625 27.441406 70.558594 27.191406 70.238281 26.871094 C 69.867188 26.5 69.617188 26.027344 69.496094 25.457031 C 69.347656 24.890625 69.296875 23.996094 69.296875 22.808594 L 69.296875 16.640625 L 70.140625 16.640625 C 70.660156 16.640625 71.105469 16.691406 71.449219 16.789062 C 71.796875 16.890625 72.144531 17.0625 72.464844 17.285156 C 73.085938 17.757812 73.753906 18.625 74.496094 19.886719 C 75.238281 21.148438 75.980469 22.636719 76.699219 24.292969 L 77.914062 27.066406 C 77.988281 27.242188 78.183594 27.664062 78.484375 28.28125 L 84.277344 28.28125 L 84.277344 27.886719 C 83.855469 27.835938 83.484375 27.738281 83.210938 27.589844 M 73.085938 16 C 72.464844 16.171875 71.425781 16.246094 69.992188 16.246094 L 69.320312 16.246094 L 69.320312 5.027344 L 70.039062 5.027344 C 71.277344 5.027344 72.242188 5.101562 72.910156 5.273438 C 73.582031 5.421875 74.175781 5.695312 74.644531 6.09375 C 75.265625 6.613281 75.757812 7.28125 76.105469 8.097656 C 76.453125 8.914062 76.652344 9.757812 76.652344 10.671875 C 76.652344 12.382812 76.03125 13.84375 74.816406 15.007812 C 74.296875 15.503906 73.703125 15.851562 73.085938 16 Z M 73.085938 16 "/>
<path style=" stroke:none;fill-rule:nonzero;fill:rgb(88.235295%,11.372549%,21.568628%);fill-opacity:1;" d="M 105.195312 19.070312 C 104.777344 18.175781 104.207031 17.410156 103.464844 16.816406 C 102.96875 16.417969 102.398438 16.121094 101.78125 15.898438 C 101.160156 15.675781 100.296875 15.476562 99.179688 15.28125 C 99.996094 14.984375 100.617188 14.734375 101.039062 14.488281 C 101.457031 14.238281 101.855469 13.941406 102.175781 13.597656 C 103.117188 12.628906 103.589844 11.367188 103.589844 9.855469 C 103.589844 8.914062 103.390625 8.074219 102.96875 7.304688 C 102.546875 6.5625 101.980469 5.945312 101.210938 5.472656 C 100.34375 4.953125 99.230469 4.632812 97.917969 4.53125 C 97.570312 4.507812 96.804688 4.507812 95.640625 4.507812 L 84.203125 4.507812 L 84.203125 4.902344 C 84.871094 4.953125 85.390625 5.027344 85.8125 5.175781 C 86.230469 5.324219 86.601562 5.570312 86.902344 5.917969 C 87.273438 6.289062 87.519531 6.761719 87.644531 7.332031 C 87.765625 7.898438 87.839844 8.765625 87.839844 9.980469 L 87.839844 22.808594 C 87.839844 23.996094 87.765625 24.890625 87.644531 25.457031 C 87.519531 26.027344 87.273438 26.5 86.902344 26.871094 C 86.578125 27.191406 86.230469 27.441406 85.8125 27.589844 C 85.390625 27.738281 84.84375 27.835938 84.175781 27.886719 L 84.175781 28.28125 L 96.902344 28.28125 C 98.613281 28.28125 99.949219 28.183594 100.890625 28.007812 C 101.828125 27.835938 102.648438 27.488281 103.339844 27.019531 C 104.082031 26.472656 104.675781 25.78125 105.097656 24.890625 C 105.519531 24.023438 105.742188 23.054688 105.742188 21.992188 C 105.816406 20.953125 105.617188 19.960938 105.195312 19.070312 M 91.703125 5.027344 L 93.3125 5.027344 C 94.550781 5.027344 95.492188 5.101562 96.085938 5.226562 C 96.703125 5.375 97.226562 5.621094 97.71875 6.019531 C 98.265625 6.464844 98.710938 7.082031 99.03125 7.875 C 99.355469 8.667969 99.527344 9.511719 99.527344 10.402344 C 99.527344 11.242188 99.378906 12.011719 99.058594 12.679688 C 98.734375 13.375 98.289062 13.941406 97.695312 14.386719 C 97.375 14.613281 97.027344 14.785156 96.65625 14.910156 C 96.285156 15.03125 95.789062 15.15625 95.171875 15.253906 C 94.453125 15.355469 93.785156 15.402344 93.113281 15.402344 L 91.703125 15.402344 Z M 99.972656 26.203125 C 98.882812 27.21875 97.398438 27.738281 95.542969 27.738281 C 94.105469 27.738281 93.089844 27.339844 92.496094 26.574219 C 92.222656 26.203125 92.027344 25.753906 91.902344 25.210938 C 91.777344 24.667969 91.726562 23.972656 91.726562 23.105469 L 91.726562 15.925781 L 94.847656 15.925781 C 97.078125 15.925781 98.710938 16.34375 99.773438 17.210938 C 100.34375 17.683594 100.789062 18.351562 101.136719 19.21875 C 101.484375 20.085938 101.632812 21.027344 101.632812 22.039062 C 101.605469 23.773438 101.0625 25.1875 99.972656 26.203125 Z M 99.972656 26.203125 "/>
<path style=" stroke:none;fill-rule:nonzero;fill:rgb(6.666667%,29.411766%,55.29412%);fill-opacity:1;" d="M 182.074219 0 L 176.28125 0.71875 L 176.28125 1.164062 C 176.875 1.214844 177.34375 1.3125 177.664062 1.460938 C 177.988281 1.632812 178.261719 1.882812 178.484375 2.277344 C 178.707031 2.625 178.855469 3.09375 178.929688 3.640625 C 179.003906 4.210938 179.027344 5.175781 179.027344 6.539062 L 179.027344 22.3125 C 179.027344 23.503906 179.003906 24.394531 178.929688 25.011719 C 178.855469 25.632812 178.753906 26.101562 178.605469 26.425781 C 178.382812 26.894531 178.113281 27.21875 177.765625 27.414062 C 177.417969 27.613281 176.847656 27.761719 176.03125 27.859375 L 176.03125 28.28125 L 184.921875 28.28125 L 184.921875 27.859375 C 183.90625 27.664062 183.210938 27.390625 182.839844 27.042969 C 182.519531 26.769531 182.320312 26.398438 182.195312 25.980469 C 182.097656 25.558594 182.046875 24.890625 182.046875 23.972656 L 182.023438 22.4375 L 182.023438 20.976562 L 183.261719 19.640625 L 188.140625 25.039062 L 188.558594 25.53125 C 188.957031 25.953125 189.128906 26.375 189.128906 26.746094 C 189.128906 27.09375 188.980469 27.390625 188.660156 27.589844 C 188.4375 27.738281 188.039062 27.8125 187.46875 27.859375 L 187.46875 28.28125 L 196.902344 28.28125 L 196.902344 27.859375 C 196.085938 27.785156 195.441406 27.636719 194.921875 27.367188 C 194.476562 27.117188 194.105469 26.871094 193.785156 26.597656 C 193.460938 26.324219 192.941406 25.828125 192.222656 25.113281 L 191.332031 24.171875 C 191.183594 24.046875 190.910156 23.726562 190.492188 23.277344 L 185.292969 17.433594 L 187.46875 15.082031 L 188.289062 14.164062 C 189.253906 13.101562 190.046875 12.433594 190.640625 12.085938 C 191.234375 11.761719 192.027344 11.589844 193.015625 11.589844 L 193.015625 11.167969 L 185.265625 11.167969 L 185.265625 11.613281 C 185.960938 11.664062 186.457031 11.738281 186.703125 11.835938 C 187.296875 12.0625 187.59375 12.457031 187.59375 13.027344 C 187.59375 13.449219 187.46875 13.84375 187.222656 14.265625 C 186.949219 14.6875 186.457031 15.304688 185.710938 16.148438 L 182.046875 20.160156 L 182.046875 0 "/>
<path style=" stroke:none;fill-rule:nonzero;fill:rgb(6.666667%,29.411766%,55.29412%);fill-opacity:1;" d="M 136.492188 19.019531 C 136.070312 18.128906 135.5 17.386719 134.757812 16.765625 C 134.265625 16.371094 133.71875 16.074219 133.101562 15.851562 C 132.480469 15.625 131.640625 15.429688 130.527344 15.253906 C 131.34375 14.957031 131.960938 14.710938 132.382812 14.460938 C 132.804688 14.214844 133.175781 13.917969 133.519531 13.570312 C 134.460938 12.605469 134.933594 11.367188 134.933594 9.855469 C 134.933594 8.914062 134.734375 8.074219 134.3125 7.332031 C 133.890625 6.585938 133.324219 5.96875 132.582031 5.523438 C 131.714844 5.003906 130.625 4.707031 129.3125 4.582031 C 128.964844 4.558594 128.199219 4.53125 127.035156 4.53125 L 115.644531 4.53125 L 115.644531 4.929688 C 116.3125 4.953125 116.832031 5.050781 117.253906 5.199219 C 117.675781 5.347656 118.046875 5.597656 118.34375 5.917969 C 118.714844 6.289062 118.964844 6.761719 119.085938 7.332031 C 119.210938 7.898438 119.285156 8.765625 119.285156 9.957031 L 119.285156 22.734375 C 119.285156 23.921875 119.210938 24.816406 119.085938 25.359375 C 118.964844 25.929688 118.714844 26.398438 118.34375 26.769531 C 118.023438 27.09375 117.675781 27.339844 117.253906 27.488281 C 116.859375 27.636719 116.3125 27.738281 115.644531 27.785156 L 115.644531 28.183594 L 128.296875 28.183594 C 130.003906 28.183594 131.34375 28.082031 132.285156 27.910156 C 133.222656 27.710938 134.042969 27.390625 134.710938 26.917969 C 135.453125 26.398438 136.046875 25.679688 136.46875 24.816406 C 136.886719 23.949219 137.085938 22.980469 137.085938 21.917969 C 137.109375 20.878906 136.886719 19.910156 136.492188 19.019531 M 123.074219 5.050781 L 124.683594 5.050781 C 125.921875 5.050781 126.835938 5.101562 127.457031 5.25 C 128.074219 5.398438 128.59375 5.644531 129.066406 6.019531 C 129.609375 6.464844 130.054688 7.082031 130.375 7.851562 C 130.699219 8.644531 130.871094 9.484375 130.871094 10.351562 C 130.871094 11.195312 130.699219 11.9375 130.402344 12.628906 C 130.078125 13.324219 129.632812 13.894531 129.039062 14.3125 C 128.71875 14.539062 128.371094 14.710938 128 14.835938 C 127.628906 14.957031 127.132812 15.082031 126.515625 15.15625 C 125.820312 15.253906 125.128906 15.28125 124.460938 15.28125 L 123.046875 15.28125 L 123.046875 5.050781 Z M 131.292969 26.101562 C 130.203125 27.117188 128.742188 27.636719 126.886719 27.636719 C 125.449219 27.636719 124.433594 27.242188 123.839844 26.472656 C 123.566406 26.101562 123.371094 25.65625 123.246094 25.136719 C 123.121094 24.617188 123.074219 23.898438 123.074219 23.03125 L 123.074219 15.898438 L 126.167969 15.898438 C 128.371094 15.898438 130.003906 16.320312 131.046875 17.1875 C 131.613281 17.65625 132.058594 18.300781 132.382812 19.167969 C 132.730469 20.035156 132.878906 20.953125 132.878906 21.964844 C 132.902344 23.699219 132.382812 25.085938 131.292969 26.101562 Z M 131.292969 26.101562 "/>
<path style=" stroke:none;fill-rule:nonzero;fill:rgb(6.666667%,29.411766%,55.29412%);fill-opacity:1;" d="M 155.953125 26.300781 C 155.628906 26.746094 155.359375 27.042969 155.109375 27.191406 C 154.863281 27.339844 154.542969 27.414062 154.121094 27.414062 C 153.253906 27.414062 152.710938 26.945312 152.460938 25.980469 C 152.363281 25.53125 152.289062 24.667969 152.289062 23.402344 L 152.289062 15.949219 C 152.289062 15.007812 152.238281 14.3125 152.140625 13.917969 C 151.917969 13.125 151.371094 12.480469 150.503906 11.988281 C 149.910156 11.640625 149.144531 11.367188 148.253906 11.167969 C 147.359375 10.945312 146.496094 10.847656 145.652344 10.847656 C 144.910156 10.847656 144.167969 10.921875 143.375 11.070312 C 142.609375 11.21875 141.964844 11.417969 141.417969 11.664062 C 140.453125 12.136719 139.984375 12.703125 139.984375 13.398438 C 139.984375 13.867188 140.132812 14.238281 140.453125 14.539062 C 140.75 14.835938 141.148438 14.984375 141.59375 14.984375 C 142.285156 14.984375 142.78125 14.660156 143.054688 14.042969 L 143.546875 12.878906 C 143.769531 12.382812 144.09375 11.988281 144.515625 11.714844 C 144.960938 11.441406 145.429688 11.292969 146 11.292969 C 146.445312 11.292969 146.890625 11.390625 147.3125 11.589844 C 147.734375 11.789062 148.078125 12.0625 148.351562 12.40625 C 148.945312 13.125 149.242188 14.289062 149.242188 15.851562 C 149.242188 16.59375 149.167969 17.164062 149.019531 17.582031 C 148.847656 18.003906 148.550781 18.351562 148.128906 18.671875 C 147.757812 18.945312 147.285156 19.191406 146.71875 19.390625 C 146.148438 19.589844 145.304688 19.835938 144.117188 20.132812 C 143.128906 20.382812 142.359375 20.652344 141.839844 20.902344 C 141.320312 21.148438 140.851562 21.496094 140.453125 21.890625 C 139.734375 22.636719 139.390625 23.578125 139.390625 24.691406 C 139.390625 25.90625 139.808594 26.84375 140.703125 27.5625 C 141.566406 28.28125 142.730469 28.628906 144.21875 28.628906 C 145.378906 28.628906 146.394531 28.382812 147.261719 27.910156 C 147.734375 27.664062 148.402344 27.117188 149.292969 26.324219 C 149.738281 27.09375 150.160156 27.636719 150.578125 27.933594 C 151.222656 28.40625 152.015625 28.652344 152.957031 28.652344 C 154.691406 28.652344 155.804688 27.933594 156.273438 26.546875 L 155.953125 26.300781 M 149.292969 21.742188 C 149.292969 23.453125 149.09375 24.742188 148.671875 25.65625 C 148.375 26.351562 147.929688 26.894531 147.359375 27.292969 C 146.792969 27.710938 146.171875 27.910156 145.503906 27.910156 C 144.761719 27.910156 144.144531 27.636719 143.648438 27.042969 C 143.152344 26.472656 142.929688 25.730469 142.929688 24.839844 C 142.929688 23.800781 143.25 22.90625 143.871094 22.117188 C 144.191406 21.742188 144.515625 21.421875 144.886719 21.148438 C 145.257812 20.878906 145.949219 20.480469 146.914062 19.960938 C 147.78125 19.488281 148.574219 18.96875 149.316406 18.375 L 149.316406 21.742188 Z M 149.292969 21.742188 "/>
<path style=" stroke:none;fill-rule:nonzero;fill:rgb(6.666667%,29.411766%,55.29412%);fill-opacity:1;" d="M 155.605469 11.566406 L 155.605469 11.988281 C 156.199219 12.035156 156.671875 12.136719 156.992188 12.308594 C 157.3125 12.480469 157.585938 12.753906 157.808594 13.125 C 158.03125 13.472656 158.179688 13.917969 158.253906 14.460938 C 158.328125 15.03125 158.355469 15.972656 158.355469 17.359375 L 158.355469 22.3125 C 158.355469 23.503906 158.328125 24.394531 158.253906 25.011719 C 158.207031 25.632812 158.082031 26.101562 157.933594 26.398438 C 157.710938 26.871094 157.4375 27.191406 157.089844 27.390625 C 156.746094 27.589844 156.175781 27.738281 155.359375 27.835938 L 155.359375 28.257812 L 164.246094 28.257812 L 164.246094 27.835938 C 163.230469 27.664062 162.5625 27.367188 162.167969 27.019531 C 161.84375 26.746094 161.648438 26.375 161.546875 25.953125 C 161.449219 25.53125 161.398438 24.863281 161.398438 23.949219 L 161.375 22.460938 L 161.375 18.523438 C 161.375 16.9375 161.449219 15.824219 161.574219 15.15625 C 161.695312 14.488281 161.96875 13.867188 162.363281 13.347656 C 162.738281 12.828125 163.257812 12.433594 163.898438 12.136719 C 164.542969 11.835938 165.238281 11.6875 166.003906 11.6875 C 166.699219 11.6875 167.339844 11.8125 167.910156 12.085938 C 168.480469 12.359375 168.925781 12.703125 169.222656 13.175781 C 169.496094 13.597656 169.695312 14.140625 169.792969 14.835938 C 169.890625 15.527344 169.941406 16.59375 169.941406 18.054688 L 169.941406 22.3125 C 169.941406 23.476562 169.917969 24.367188 169.84375 24.988281 C 169.792969 25.605469 169.667969 26.078125 169.519531 26.398438 C 169.296875 26.871094 169.023438 27.191406 168.679688 27.390625 C 168.332031 27.589844 167.761719 27.738281 166.945312 27.835938 L 166.945312 28.257812 L 175.832031 28.257812 L 175.832031 27.835938 C 174.820312 27.664062 174.125 27.367188 173.753906 27.019531 C 173.457031 26.746094 173.234375 26.375 173.136719 25.953125 C 173.035156 25.53125 172.960938 24.863281 172.960938 23.949219 L 172.960938 15.429688 C 172.960938 13.96875 172.441406 12.828125 171.425781 12.0625 C 170.386719 11.269531 169 10.847656 167.265625 10.847656 C 164.964844 10.847656 163.007812 11.6875 161.324219 13.347656 L 161.324219 13.027344 C 161.324219 12.359375 161.226562 11.613281 161.054688 10.847656 L 155.605469 11.566406 "/>
</g>
</svg>
