<?xml version="1.0" encoding="UTF-8"?>
<svg xmlns="http://www.w3.org/2000/svg" xmlns:xlink="http://www.w3.org/1999/xlink" width="200px" height="39px" viewBox="0 0 198 39" version="1.1">
<g id="surface1">
<path style=" stroke:none;fill-rule:nonzero;fill:rgb(6.666667%,23.529412%,39.215687%);fill-opacity:1;" d="M 186.613281 28.917969 L 180.449219 28.917969 C 179.929688 28.917969 179.488281 28.8125 179.097656 28.554688 C 178.707031 28.292969 178.34375 27.957031 178.058594 27.433594 L 163.46875 7.246094 C 163.390625 7.117188 163.367188 6.933594 163.367188 6.777344 C 163.367188 6.4375 163.523438 6.050781 163.808594 5.632812 L 166.980469 1.601562 Z M 186.613281 28.917969 "/>
<path style=" stroke:none;fill-rule:nonzero;fill:rgb(6.666667%,23.529412%,39.215687%);fill-opacity:1;" d="M 166.953125 1.027344 L 187.261719 29.230469 L 180.421875 29.230469 C 179.878906 29.230469 179.332031 29.101562 178.890625 28.8125 C 178.421875 28.527344 178.058594 28.113281 177.71875 27.589844 L 177.71875 27.566406 L 163.160156 7.402344 L 163.160156 7.375 C 163.082031 7.21875 162.976562 7.039062 162.976562 6.726562 C 162.976562 6.386719 163.105469 5.945312 163.46875 5.398438 L 163.496094 5.398438 L 166.953125 1.027344 M 166.929688 2.171875 L 164.042969 5.816406 C 163.757812 6.257812 163.679688 6.59375 163.679688 6.777344 C 163.679688 6.933594 163.730469 7.039062 163.757812 7.117188 L 178.289062 27.226562 C 178.628906 27.773438 178.914062 28.085938 179.277344 28.292969 C 179.589844 28.5 179.980469 28.605469 180.449219 28.605469 L 185.960938 28.605469 Z M 166.929688 2.171875 "/>
<path style=" stroke:none;fill-rule:nonzero;fill:rgb(0%,52.156866%,29.019609%);fill-opacity:1;" d="M 197.351562 28.917969 L 189.835938 28.917969 L 169.269531 0.378906 L 176.808594 0.378906 Z M 197.351562 28.917969 "/>
<path style=" stroke:none;fill-rule:nonzero;fill:rgb(0%,52.156866%,29.019609%);fill-opacity:1;" d="M 176.992188 0.0390625 L 198 29.257812 L 189.628906 29.257812 L 168.59375 0.0390625 Z M 176.625 0.691406 L 169.917969 0.691406 L 190.019531 28.605469 L 196.699219 28.605469 Z M 176.625 0.691406 "/>
<path style=" stroke:none;fill-rule:nonzero;fill:rgb(0%,52.156866%,29.019609%);fill-opacity:1;" d="M 191.527344 16.324219 L 180.03125 0.351562 L 185.625 0.351562 C 186.429688 0.351562 187.027344 0.535156 187.625 0.976562 C 188.042969 1.289062 188.429688 1.679688 188.820312 2.171875 C 188.820312 2.171875 189.109375 2.535156 194.386719 9.875 C 194.410156 9.925781 194.515625 10.082031 194.621094 10.34375 C 194.699219 10.574219 194.828125 10.914062 194.828125 11.304688 C 194.828125 11.617188 194.75 11.902344 194.59375 12.136719 C 194.464844 12.320312 192.410156 15.128906 191.527344 16.324219 "/>
<path style=" stroke:none;fill-rule:nonzero;fill:rgb(0%,52.156866%,29.019609%);fill-opacity:1;" d="M 181.019531 0.0390625 L 185.648438 0.0390625 C 186.535156 0.0390625 187.210938 0.273438 187.859375 0.714844 C 188.378906 1.078125 188.796875 1.546875 189.132812 1.964844 C 189.132812 1.964844 194.699219 9.664062 194.699219 9.664062 C 194.75 9.71875 194.855469 9.898438 194.984375 10.210938 C 195.085938 10.5 195.21875 10.863281 195.21875 11.277344 C 195.21875 11.589844 195.140625 11.953125 194.933594 12.265625 C 194.90625 12.292969 194.800781 12.421875 194.800781 12.421875 C 194.722656 12.527344 191.527344 16.898438 191.527344 16.898438 L 179.355469 0.0117188 L 181.019531 0.0117188 M 181.019531 0.691406 L 180.683594 0.691406 L 191.550781 15.753906 C 192.617188 14.296875 194.179688 12.136719 194.253906 12.058594 C 194.28125 12.007812 194.332031 11.953125 194.359375 11.929688 C 194.464844 11.746094 194.515625 11.539062 194.515625 11.304688 C 194.515625 10.964844 194.410156 10.652344 194.332031 10.445312 C 194.253906 10.238281 194.152344 10.109375 194.125 10.03125 C 188.742188 2.5625 188.5625 2.328125 188.535156 2.277344 C 188.535156 2.328125 188.5625 2.328125 188.585938 2.378906 C 188.199219 1.886719 187.808594 1.546875 187.445312 1.261719 C 186.898438 0.871094 186.378906 0.714844 185.675781 0.714844 L 181.019531 0.714844 Z M 181.019531 0.691406 "/>
<path style=" stroke:none;fill-rule:nonzero;fill:rgb(0%,0%,0%);fill-opacity:1;" d="M 101.535156 37.035156 L 102.445312 36.984375 C 102.445312 37.242188 102.496094 37.453125 102.574219 37.632812 C 102.652344 37.816406 102.808594 37.972656 103.015625 38.078125 C 103.226562 38.179688 103.484375 38.257812 103.769531 38.257812 C 104.160156 38.257812 104.449219 38.179688 104.65625 38.023438 C 104.863281 37.867188 104.96875 37.6875 104.96875 37.453125 C 104.96875 37.296875 104.890625 37.164062 104.785156 37.007812 C 104.65625 36.851562 104.371094 36.699219 103.875 36.488281 C 103.40625 36.28125 103.09375 36.152344 102.964844 36.074219 C 102.730469 35.941406 102.574219 35.785156 102.472656 35.605469 C 102.367188 35.421875 102.316406 35.214844 102.316406 34.980469 C 102.316406 34.5625 102.472656 34.199219 102.808594 33.914062 C 103.148438 33.628906 103.613281 33.472656 104.214844 33.472656 C 104.890625 33.472656 105.382812 33.628906 105.722656 33.941406 C 106.058594 34.25 106.242188 34.640625 106.265625 35.136719 L 105.382812 35.1875 C 105.382812 34.875 105.253906 34.617188 105.046875 34.433594 C 104.835938 34.25 104.523438 34.148438 104.160156 34.148438 C 103.847656 34.148438 103.613281 34.226562 103.433594 34.355469 C 103.25 34.484375 103.171875 34.640625 103.171875 34.824219 C 103.171875 34.980469 103.25 35.136719 103.40625 35.265625 C 103.511719 35.34375 103.769531 35.5 104.1875 35.65625 C 104.863281 35.96875 105.304688 36.203125 105.488281 36.359375 C 105.773438 36.644531 105.902344 36.957031 105.902344 37.375 C 105.902344 37.632812 105.824219 37.894531 105.644531 38.152344 C 105.488281 38.414062 105.226562 38.597656 104.914062 38.753906 C 104.578125 38.910156 104.1875 38.988281 103.746094 38.988281 C 103.148438 38.988281 102.628906 38.832031 102.183594 38.542969 C 101.71875 38.207031 101.507812 37.710938 101.535156 37.035156 Z M 101.535156 37.035156 "/>
<path style=" stroke:none;fill-rule:nonzero;fill:rgb(0%,0%,0%);fill-opacity:1;" d="M 110.921875 37.035156 L 111.804688 37.140625 C 111.675781 37.582031 111.390625 38 110.949219 38.386719 C 110.503906 38.777344 109.960938 38.988281 109.335938 38.988281 C 108.945312 38.988281 108.582031 38.882812 108.269531 38.726562 C 107.957031 38.542969 107.699219 38.285156 107.542969 37.945312 C 107.359375 37.609375 107.28125 37.21875 107.28125 36.773438 C 107.28125 36.203125 107.410156 35.628906 107.671875 35.109375 C 107.957031 34.5625 108.296875 34.171875 108.710938 33.886719 C 109.128906 33.628906 109.59375 33.496094 110.089844 33.496094 C 110.714844 33.496094 111.207031 33.707031 111.597656 34.070312 C 111.988281 34.460938 112.167969 35.007812 112.167969 35.65625 C 112.167969 35.917969 112.144531 36.175781 112.089844 36.464844 L 108.164062 36.464844 C 108.164062 36.566406 108.140625 36.671875 108.140625 36.75 C 108.140625 37.242188 108.242188 37.609375 108.476562 37.867188 C 108.710938 38.128906 108.996094 38.257812 109.308594 38.257812 C 109.621094 38.257812 109.90625 38.152344 110.21875 37.972656 C 110.503906 37.710938 110.738281 37.425781 110.921875 37.035156 Z M 108.296875 35.734375 L 111.234375 35.734375 C 111.234375 35.628906 111.234375 35.578125 111.234375 35.527344 C 111.234375 35.085938 111.128906 34.71875 110.894531 34.484375 C 110.660156 34.25 110.375 34.121094 110.039062 34.121094 C 109.648438 34.121094 109.308594 34.25 108.996094 34.539062 C 108.683594 34.796875 108.453125 35.1875 108.296875 35.734375 Z M 108.296875 35.734375 "/>
<path style=" stroke:none;fill-rule:nonzero;fill:rgb(0%,0%,0%);fill-opacity:1;" d="M 112.898438 38.832031 L 113.988281 33.550781 L 114.796875 33.550781 L 114.5625 34.640625 C 114.847656 34.226562 115.109375 33.941406 115.367188 33.730469 C 115.628906 33.550781 115.886719 33.445312 116.175781 33.445312 C 116.355469 33.445312 116.5625 33.523438 116.824219 33.628906 L 116.460938 34.460938 C 116.304688 34.355469 116.148438 34.304688 115.964844 34.304688 C 115.652344 34.304688 115.34375 34.484375 115.003906 34.824219 C 114.664062 35.1875 114.40625 35.8125 114.222656 36.722656 L 113.78125 38.855469 L 112.898438 38.855469 Z M 112.898438 38.832031 "/>
<path style=" stroke:none;fill-rule:nonzero;fill:rgb(0%,0%,0%);fill-opacity:1;" d="M 118.488281 38.832031 L 117.628906 33.550781 L 118.515625 33.550781 L 118.957031 36.464844 C 119.007812 36.773438 119.058594 37.296875 119.136719 38.023438 C 119.320312 37.660156 119.527344 37.21875 119.789062 36.722656 L 121.554688 33.550781 L 122.519531 33.550781 L 119.503906 38.832031 Z M 118.488281 38.832031 "/>
<path style=" stroke:none;fill-rule:nonzero;fill:rgb(0%,0%,0%);fill-opacity:1;" d="M 122.910156 38.832031 L 124 33.550781 L 124.910156 33.550781 L 123.792969 38.832031 Z M 124.207031 32.5625 L 124.417969 31.546875 L 125.300781 31.546875 L 125.09375 32.5625 Z M 124.207031 32.5625 "/>
<path style=" stroke:none;fill-rule:nonzero;fill:rgb(0%,0%,0%);fill-opacity:1;" d="M 129.042969 36.90625 L 129.953125 37.007812 C 129.71875 37.660156 129.410156 38.152344 128.992188 38.492188 C 128.578125 38.804688 128.109375 38.960938 127.589844 38.960938 C 127.015625 38.960938 126.546875 38.777344 126.183594 38.414062 C 125.820312 38.050781 125.636719 37.53125 125.636719 36.851562 C 125.636719 36.28125 125.742188 35.707031 125.976562 35.164062 C 126.210938 34.617188 126.523438 34.171875 126.964844 33.886719 C 127.378906 33.601562 127.875 33.445312 128.421875 33.445312 C 128.992188 33.445312 129.433594 33.601562 129.773438 33.914062 C 130.109375 34.226562 130.265625 34.640625 130.265625 35.1875 L 129.382812 35.242188 C 129.382812 34.902344 129.277344 34.640625 129.097656 34.460938 C 128.914062 34.277344 128.65625 34.171875 128.34375 34.171875 C 127.976562 34.171875 127.667969 34.277344 127.40625 34.511719 C 127.144531 34.746094 126.9375 35.085938 126.78125 35.550781 C 126.625 36.019531 126.546875 36.464844 126.546875 36.90625 C 126.546875 37.347656 126.652344 37.6875 126.835938 37.921875 C 127.042969 38.152344 127.277344 38.257812 127.5625 38.257812 C 127.847656 38.257812 128.132812 38.152344 128.394531 37.921875 C 128.707031 37.710938 128.914062 37.375 129.042969 36.90625 Z M 129.042969 36.90625 "/>
<path style=" stroke:none;fill-rule:nonzero;fill:rgb(0%,0%,0%);fill-opacity:1;" d="M 135.078125 37.035156 L 135.960938 37.140625 C 135.832031 37.582031 135.542969 38 135.101562 38.386719 C 134.660156 38.777344 134.113281 38.988281 133.492188 38.988281 C 133.101562 38.988281 132.738281 38.882812 132.425781 38.726562 C 132.085938 38.542969 131.851562 38.285156 131.671875 37.945312 C 131.515625 37.609375 131.410156 37.21875 131.410156 36.773438 C 131.410156 36.203125 131.539062 35.628906 131.800781 35.109375 C 132.0625 34.5625 132.425781 34.171875 132.839844 33.886719 C 133.257812 33.628906 133.726562 33.496094 134.21875 33.496094 C 134.84375 33.496094 135.335938 33.707031 135.726562 34.070312 C 136.117188 34.460938 136.300781 35.007812 136.300781 35.65625 C 136.300781 35.917969 136.273438 36.175781 136.222656 36.464844 L 132.347656 36.464844 C 132.320312 36.566406 132.320312 36.671875 132.320312 36.75 C 132.320312 37.242188 132.425781 37.609375 132.660156 37.867188 C 132.894531 38.128906 133.152344 38.257812 133.492188 38.257812 C 133.804688 38.257812 134.113281 38.152344 134.402344 37.972656 C 134.6875 37.710938 134.921875 37.425781 135.078125 37.035156 Z M 132.476562 35.734375 L 135.441406 35.734375 C 135.441406 35.628906 135.441406 35.578125 135.441406 35.527344 C 135.441406 35.085938 135.335938 34.71875 135.101562 34.484375 C 134.867188 34.25 134.582031 34.121094 134.21875 34.121094 C 133.828125 34.121094 133.492188 34.25 133.179688 34.539062 C 132.867188 34.796875 132.605469 35.1875 132.476562 35.734375 Z M 132.476562 35.734375 "/>
<path style=" stroke:none;fill-rule:nonzero;fill:rgb(0%,0%,0%);fill-opacity:1;" d="M 140.875 38.832031 L 141.835938 34.25 L 141.03125 34.25 L 141.160156 33.550781 L 141.96875 33.550781 L 142.125 32.792969 C 142.203125 32.40625 142.277344 32.144531 142.355469 31.988281 C 142.433594 31.832031 142.589844 31.675781 142.773438 31.570312 C 142.957031 31.46875 143.214844 31.414062 143.554688 31.414062 C 143.789062 31.414062 144.125 31.46875 144.542969 31.546875 L 144.386719 32.328125 C 144.074219 32.25 143.8125 32.195312 143.605469 32.195312 C 143.421875 32.195312 143.292969 32.25 143.214844 32.328125 C 143.109375 32.40625 143.035156 32.613281 142.980469 32.949219 L 142.878906 33.523438 L 143.890625 33.523438 L 143.761719 34.226562 L 142.746094 34.226562 L 141.785156 38.804688 L 140.875 38.804688 Z M 140.875 38.832031 "/>
<path style=" stroke:none;fill-rule:nonzero;fill:rgb(0%,0%,0%);fill-opacity:1;" d="M 144.253906 38.832031 L 145.347656 33.550781 L 146.230469 33.550781 L 145.140625 38.832031 Z M 145.554688 32.5625 L 145.761719 31.546875 L 146.648438 31.546875 L 146.4375 32.5625 Z M 145.554688 32.5625 "/>
<path style=" stroke:none;fill-rule:nonzero;fill:rgb(0%,0%,0%);fill-opacity:1;" d="M 147.21875 38.832031 L 148.3125 33.550781 L 149.117188 33.550781 L 148.882812 34.640625 C 149.144531 34.226562 149.429688 33.941406 149.691406 33.730469 C 149.949219 33.550781 150.210938 33.445312 150.496094 33.445312 C 150.675781 33.445312 150.910156 33.523438 151.144531 33.628906 L 150.78125 34.460938 C 150.625 34.355469 150.46875 34.304688 150.289062 34.304688 C 149.976562 34.304688 149.636719 34.484375 149.324219 34.824219 C 148.988281 35.1875 148.726562 35.8125 148.546875 36.722656 L 148.101562 38.855469 L 147.21875 38.855469 Z M 147.21875 38.832031 "/>
<path style=" stroke:none;fill-rule:nonzero;fill:rgb(0%,0%,0%);fill-opacity:1;" d="M 151.40625 37.035156 L 152.289062 36.984375 C 152.289062 37.242188 152.339844 37.453125 152.417969 37.632812 C 152.496094 37.816406 152.652344 37.972656 152.863281 38.078125 C 153.070312 38.179688 153.328125 38.257812 153.589844 38.257812 C 153.980469 38.257812 154.292969 38.179688 154.5 38.023438 C 154.683594 37.867188 154.785156 37.6875 154.785156 37.453125 C 154.785156 37.296875 154.734375 37.164062 154.605469 37.007812 C 154.472656 36.851562 154.1875 36.699219 153.71875 36.488281 C 153.25 36.28125 152.941406 36.152344 152.808594 36.074219 C 152.574219 35.941406 152.417969 35.785156 152.316406 35.605469 C 152.210938 35.421875 152.132812 35.214844 152.132812 34.980469 C 152.132812 34.5625 152.316406 34.199219 152.628906 33.914062 C 152.964844 33.628906 153.433594 33.472656 154.003906 33.472656 C 154.683594 33.472656 155.175781 33.628906 155.515625 33.941406 C 155.851562 34.25 156.035156 34.640625 156.058594 35.136719 L 155.175781 35.1875 C 155.175781 34.875 155.046875 34.617188 154.835938 34.433594 C 154.628906 34.25 154.316406 34.148438 153.953125 34.148438 C 153.640625 34.148438 153.40625 34.226562 153.226562 34.355469 C 153.070312 34.484375 152.964844 34.640625 152.964844 34.824219 C 152.964844 34.980469 153.042969 35.136719 153.171875 35.265625 C 153.277344 35.34375 153.539062 35.5 153.953125 35.65625 C 154.628906 35.96875 155.070312 36.203125 155.253906 36.359375 C 155.539062 36.644531 155.667969 36.957031 155.667969 37.375 C 155.667969 37.632812 155.59375 37.894531 155.4375 38.152344 C 155.28125 38.414062 155.019531 38.597656 154.707031 38.753906 C 154.394531 38.910156 154.003906 38.988281 153.539062 38.988281 C 152.941406 38.988281 152.417969 38.832031 151.976562 38.542969 C 151.585938 38.207031 151.378906 37.710938 151.40625 37.035156 Z M 151.40625 37.035156 "/>
<path style=" stroke:none;fill-rule:nonzero;fill:rgb(0%,0%,0%);fill-opacity:1;" d="M 159.207031 38.101562 L 159.050781 38.832031 C 158.84375 38.882812 158.632812 38.910156 158.425781 38.910156 C 158.0625 38.910156 157.777344 38.832031 157.566406 38.648438 C 157.410156 38.519531 157.332031 38.335938 157.332031 38.101562 C 157.332031 37.972656 157.386719 37.710938 157.464844 37.296875 L 158.113281 34.226562 L 157.410156 34.226562 L 157.566406 33.523438 L 158.269531 33.523438 L 158.53125 32.222656 L 159.542969 31.597656 L 159.128906 33.523438 L 160.011719 33.523438 L 159.855469 34.226562 L 158.972656 34.226562 L 158.375 37.140625 C 158.296875 37.503906 158.242188 37.738281 158.242188 37.816406 C 158.242188 37.921875 158.269531 38 158.347656 38.050781 C 158.398438 38.101562 158.503906 38.128906 158.632812 38.128906 C 158.867188 38.152344 159.050781 38.152344 159.207031 38.101562 Z M 159.207031 38.101562 "/>
<path style=" stroke:none;fill-rule:nonzero;fill:rgb(25.490198%,25.098041%,25.882354%);fill-opacity:1;" d="M 11.542969 9.222656 C 10.53125 8.859375 9.125 8.652344 7.359375 8.652344 L 0.0273438 8.652344 L 0.0273438 9.664062 L 0.960938 9.664062 C 1.636719 9.664062 2.132812 9.847656 2.445312 10.238281 C 2.574219 10.394531 2.78125 10.863281 2.78125 12.421875 L 2.78125 25.355469 C 2.78125 26.785156 2.625 27.226562 2.523438 27.382812 C 2.210938 27.878906 1.691406 28.113281 0.9375 28.113281 L 0 28.113281 L 0 29.125 L 8.738281 29.125 L 8.738281 28.113281 L 7.773438 28.113281 C 7.125 28.113281 6.605469 27.929688 6.292969 27.539062 C 6.136719 27.355469 5.953125 26.8125 5.953125 25.355469 L 5.953125 19.8125 C 6.472656 19.917969 6.96875 19.996094 7.460938 20.074219 C 8.035156 20.152344 8.554688 20.175781 8.996094 20.175781 C 10.945312 20.175781 12.507812 19.628906 13.574219 18.5625 C 14.664062 17.496094 15.210938 16.117188 15.210938 14.425781 C 15.210938 13.179688 14.847656 12.085938 14.144531 11.175781 C 13.441406 10.265625 12.558594 9.613281 11.542969 9.222656 Z M 11.050781 12.398438 C 11.386719 13.101562 11.542969 13.878906 11.542969 14.710938 C 11.542969 15.910156 11.207031 16.871094 10.53125 17.625 C 9.828125 18.382812 9.046875 18.746094 8.113281 18.746094 C 7.851562 18.746094 7.515625 18.71875 7.148438 18.667969 C 6.839844 18.617188 6.449219 18.5625 6.007812 18.484375 L 6.007812 10.550781 C 6.683594 10.394531 7.226562 10.316406 7.644531 10.316406 C 8.425781 10.316406 9.074219 10.5 9.671875 10.835938 C 10.269531 11.175781 10.710938 11.695312 11.050781 12.398438 Z M 11.050781 12.398438 "/>
<path style=" stroke:none;fill-rule:nonzero;fill:rgb(25.490198%,25.098041%,25.882354%);fill-opacity:1;" d="M 24.15625 14.738281 C 23.0625 14.738281 22.023438 15.546875 21.007812 17.160156 L 21.007812 14.738281 L 20.175781 14.738281 L 15.9375 16.480469 L 16.199219 17.445312 L 16.433594 17.339844 C 17.058594 17.082031 17.550781 17.082031 17.835938 17.289062 C 17.96875 17.394531 18.042969 17.574219 18.097656 17.808594 C 18.148438 18.015625 18.175781 18.667969 18.175781 20.566406 L 18.175781 25.796875 C 18.175781 26.835938 18.121094 27.097656 18.097656 27.175781 C 18.019531 27.460938 17.890625 27.667969 17.679688 27.800781 C 17.394531 27.980469 16.953125 28.085938 16.328125 28.085938 L 16.09375 28.085938 L 16.09375 29.074219 L 23.246094 29.074219 L 23.246094 28.113281 L 23.011719 28.113281 C 22.4375 28.113281 22.050781 28.035156 21.761719 27.878906 C 21.476562 27.722656 21.296875 27.539062 21.191406 27.304688 C 21.035156 26.96875 20.957031 26.445312 20.957031 25.71875 L 20.957031 19.292969 C 21.375 18.433594 21.816406 17.808594 22.207031 17.417969 C 22.359375 17.261719 22.492188 17.183594 22.59375 17.183594 C 22.671875 17.183594 22.882812 17.238281 23.375 17.625 C 23.816406 17.992188 24.234375 18.199219 24.625 18.199219 C 25.039062 18.199219 25.378906 18.042969 25.664062 17.730469 C 25.949219 17.417969 26.105469 17.054688 26.105469 16.585938 C 26.105469 16.089844 25.898438 15.648438 25.507812 15.285156 C 25.222656 14.921875 24.753906 14.738281 24.15625 14.738281 Z M 24.15625 14.738281 "/>
<path style=" stroke:none;fill-rule:nonzero;fill:rgb(25.490198%,25.098041%,25.882354%);fill-opacity:1;" d="M 37.3125 23.585938 C 36.894531 24.703125 36.402344 25.511719 35.804688 25.976562 C 35.207031 26.421875 34.503906 26.65625 33.699219 26.65625 C 32.476562 26.65625 31.4375 26.132812 30.5 25.015625 C 29.617188 23.949219 29.171875 22.492188 29.148438 20.671875 L 38.195312 20.671875 L 38.195312 20.4375 C 38.195312 18.71875 37.703125 17.316406 36.714844 16.273438 C 35.726562 15.234375 34.453125 14.710938 32.945312 14.710938 C 31.148438 14.710938 29.640625 15.390625 28.445312 16.714844 C 27.273438 18.042969 26.675781 19.917969 26.675781 22.257812 C 26.675781 24.441406 27.25 26.210938 28.417969 27.511719 C 29.5625 28.8125 30.992188 29.492188 32.632812 29.492188 C 34.140625 29.492188 35.414062 28.917969 36.429688 27.773438 C 37.414062 26.628906 38.015625 25.355469 38.222656 23.976562 L 38.246094 23.820312 L 37.441406 23.296875 Z M 29.148438 19.371094 C 29.277344 18.433594 29.617188 17.652344 30.136719 17.105469 C 30.707031 16.535156 31.359375 16.222656 32.113281 16.222656 C 32.578125 16.222656 33.046875 16.378906 33.464844 16.664062 C 33.90625 16.949219 34.21875 17.339844 34.453125 17.859375 C 34.582031 18.148438 34.660156 18.667969 34.710938 19.371094 Z M 29.148438 19.371094 "/>
<path style=" stroke:none;fill-rule:nonzero;fill:rgb(25.490198%,25.098041%,25.882354%);fill-opacity:1;" d="M 60.269531 27.929688 C 60.0625 27.800781 59.90625 27.644531 59.828125 27.488281 C 59.726562 27.199219 59.648438 26.65625 59.648438 25.847656 L 59.648438 20.046875 C 59.648438 18.796875 59.542969 17.886719 59.308594 17.289062 C 58.972656 16.402344 58.527344 15.78125 57.929688 15.363281 C 57.359375 14.972656 56.683594 14.765625 55.953125 14.765625 C 55.199219 14.765625 54.472656 14.945312 53.769531 15.335938 C 53.148438 15.675781 52.394531 16.351562 51.507812 17.394531 C 51.273438 16.613281 50.882812 15.988281 50.339844 15.546875 C 49.714844 15.023438 48.960938 14.765625 48.078125 14.765625 C 47.554688 14.765625 47.035156 14.867188 46.515625 15.078125 C 45.996094 15.285156 45.503906 15.597656 45.058594 15.988281 C 44.902344 16.117188 44.539062 16.480469 43.734375 17.316406 L 43.734375 14.765625 L 42.902344 14.765625 L 38.664062 16.507812 L 39.054688 17.445312 L 39.261719 17.367188 C 39.859375 17.132812 40.355469 17.105469 40.589844 17.289062 C 40.667969 17.339844 40.769531 17.496094 40.820312 17.808594 C 40.898438 18.226562 40.953125 19.1875 40.953125 20.644531 L 40.953125 25.796875 C 40.953125 26.835938 40.847656 27.253906 40.796875 27.382812 C 40.691406 27.617188 40.535156 27.800781 40.355469 27.902344 C 40.25 27.957031 39.9375 28.085938 39.210938 28.085938 L 38.976562 28.085938 L 38.976562 29.074219 L 45.890625 29.074219 L 45.890625 28.113281 L 45.660156 28.113281 C 44.773438 28.113281 44.460938 28.007812 44.332031 27.929688 C 44.148438 27.824219 43.996094 27.667969 43.890625 27.460938 C 43.8125 27.304688 43.734375 26.863281 43.734375 25.820312 L 43.734375 18.667969 C 44.148438 18.171875 44.722656 17.730469 45.449219 17.316406 C 45.917969 17.054688 46.414062 16.925781 46.878906 16.925781 C 47.554688 16.925781 48.078125 17.210938 48.464844 17.757812 C 48.753906 18.199219 48.910156 18.953125 48.910156 19.996094 L 48.910156 25.796875 C 48.910156 26.835938 48.855469 27.121094 48.855469 27.175781 C 48.777344 27.488281 48.621094 27.695312 48.386719 27.851562 C 48.234375 27.957031 47.867188 28.085938 47.011719 28.085938 L 46.777344 28.085938 L 46.777344 29.074219 L 53.824219 29.074219 L 53.824219 28.113281 L 53.589844 28.113281 C 52.964844 28.113281 52.523438 28.035156 52.289062 27.929688 C 52.054688 27.800781 51.898438 27.644531 51.820312 27.460938 C 51.769531 27.355469 51.691406 26.992188 51.691406 25.820312 L 51.691406 19.371094 L 51.664062 18.773438 L 51.664062 18.695312 C 52.367188 18.015625 52.9375 17.574219 53.40625 17.339844 C 53.875 17.105469 54.34375 16.976562 54.835938 16.976562 C 55.589844 16.976562 56.109375 17.238281 56.421875 17.808594 C 56.65625 18.226562 56.785156 18.953125 56.785156 20.019531 L 56.785156 25.820312 C 56.785156 26.890625 56.734375 27.148438 56.734375 27.199219 C 56.65625 27.488281 56.527344 27.695312 56.34375 27.824219 C 56.085938 28.035156 55.667969 28.113281 55.148438 28.113281 L 54.65625 28.113281 L 54.65625 29.101562 L 61.570312 29.101562 L 61.570312 28.113281 L 61.335938 28.113281 C 60.894531 28.113281 60.503906 28.035156 60.269531 27.929688 Z M 60.269531 27.929688 "/>
<path style=" stroke:none;fill-rule:nonzero;fill:rgb(25.490198%,25.098041%,25.882354%);fill-opacity:1;" d="M 68.148438 27.929688 C 67.96875 27.824219 67.8125 27.644531 67.707031 27.410156 C 67.628906 27.226562 67.550781 26.8125 67.550781 25.820312 L 67.550781 14.738281 L 66.695312 14.738281 L 62.457031 16.480469 L 62.820312 17.445312 L 63.027344 17.367188 C 63.652344 17.132812 64.144531 17.105469 64.378906 17.289062 C 64.484375 17.367188 64.5625 17.546875 64.613281 17.808594 C 64.691406 18.226562 64.742188 19.160156 64.742188 20.617188 L 64.742188 25.820312 C 64.742188 26.8125 64.640625 27.226562 64.585938 27.410156 C 64.484375 27.667969 64.328125 27.851562 64.171875 27.929688 C 64.066406 27.980469 63.78125 28.085938 63 28.085938 L 62.765625 28.085938 L 62.765625 29.074219 L 69.578125 29.074219 L 69.578125 28.113281 L 69.34375 28.113281 C 68.617188 28.113281 68.304688 28.007812 68.148438 27.929688 Z M 68.148438 27.929688 "/>
<path style=" stroke:none;fill-rule:nonzero;fill:rgb(25.490198%,25.098041%,25.882354%);fill-opacity:1;" d="M 66.148438 11.148438 C 66.617188 11.148438 67.003906 10.964844 67.34375 10.628906 C 67.65625 10.289062 67.835938 9.875 67.835938 9.40625 C 67.835938 8.9375 67.679688 8.519531 67.34375 8.183594 C 67.003906 7.84375 66.617188 7.6875 66.171875 7.6875 C 65.707031 7.6875 65.316406 7.84375 64.976562 8.183594 C 64.664062 8.519531 64.484375 8.9375 64.484375 9.40625 C 64.484375 9.875 64.640625 10.289062 64.976562 10.628906 C 65.289062 10.964844 65.707031 11.148438 66.148438 11.148438 Z M 66.148438 11.148438 "/>
<path style=" stroke:none;fill-rule:nonzero;fill:rgb(25.490198%,25.098041%,25.882354%);fill-opacity:1;" d="M 81.203125 23.585938 C 80.785156 24.703125 80.265625 25.511719 79.667969 25.976562 C 79.070312 26.421875 78.367188 26.65625 77.5625 26.65625 C 76.339844 26.65625 75.300781 26.132812 74.363281 25.015625 C 73.480469 23.976562 73.039062 22.492188 73.011719 20.671875 L 82.058594 20.671875 L 82.058594 20.4375 C 82.058594 18.71875 81.566406 17.316406 80.578125 16.273438 C 79.589844 15.234375 78.316406 14.710938 76.808594 14.710938 C 75.015625 14.710938 73.503906 15.390625 72.308594 16.714844 C 71.140625 18.042969 70.515625 19.917969 70.515625 22.257812 C 70.515625 24.441406 71.085938 26.210938 72.257812 27.511719 C 73.402344 28.8125 74.832031 29.492188 76.445312 29.492188 C 77.953125 29.492188 79.226562 28.917969 80.238281 27.773438 C 81.226562 26.628906 81.824219 25.355469 82.035156 23.976562 L 82.058594 23.820312 L 81.253906 23.296875 Z M 78.601562 19.371094 L 73.039062 19.371094 C 73.167969 18.433594 73.503906 17.652344 74.027344 17.105469 C 74.597656 16.507812 75.246094 16.222656 76 16.222656 C 76.46875 16.222656 76.9375 16.378906 77.355469 16.664062 C 77.769531 16.949219 78.109375 17.339844 78.34375 17.859375 C 78.472656 18.171875 78.550781 18.640625 78.601562 19.371094 Z M 78.601562 19.371094 "/>
<path style=" stroke:none;fill-rule:nonzero;fill:rgb(25.490198%,25.098041%,25.882354%);fill-opacity:1;" d="M 90.796875 14.738281 C 89.703125 14.738281 88.664062 15.546875 87.652344 17.183594 L 87.652344 14.738281 L 86.820312 14.738281 L 82.582031 16.480469 L 82.839844 17.445312 L 83.074219 17.339844 C 83.722656 17.082031 84.191406 17.054688 84.476562 17.289062 C 84.609375 17.394531 84.6875 17.574219 84.738281 17.808594 C 84.789062 17.992188 84.816406 18.640625 84.816406 20.566406 L 84.816406 25.796875 C 84.816406 26.757812 84.789062 27.070312 84.738281 27.175781 C 84.660156 27.460938 84.53125 27.667969 84.320312 27.800781 C 84.035156 27.980469 83.566406 28.085938 82.945312 28.085938 L 82.710938 28.085938 L 82.710938 29.074219 L 89.859375 29.074219 L 89.859375 28.113281 L 89.703125 28.113281 C 89.132812 28.113281 88.714844 28.035156 88.457031 27.878906 C 88.171875 27.722656 87.988281 27.539062 87.882812 27.304688 C 87.726562 26.941406 87.625 26.421875 87.625 25.71875 L 87.625 19.292969 C 88.066406 18.433594 88.484375 17.78125 88.871094 17.417969 C 89.027344 17.261719 89.160156 17.183594 89.261719 17.183594 C 89.339844 17.183594 89.546875 17.238281 90.042969 17.625 C 90.484375 17.992188 90.902344 18.199219 91.289062 18.199219 C 91.707031 18.199219 92.042969 18.042969 92.332031 17.730469 C 92.617188 17.417969 92.773438 17.054688 92.773438 16.585938 C 92.773438 16.089844 92.566406 15.648438 92.175781 15.285156 C 91.863281 14.945312 91.367188 14.738281 90.796875 14.738281 Z M 90.796875 14.738281 "/>
<path style=" stroke:none;fill-rule:nonzero;fill:rgb(25.490198%,25.098041%,25.882354%);fill-opacity:1;" d="M 113.988281 18.640625 C 114.847656 18.25 115.523438 17.730469 116.042969 17.054688 C 116.667969 16.222656 116.980469 15.285156 116.980469 14.21875 C 116.980469 12.996094 116.589844 11.902344 115.808594 10.964844 C 115.03125 10.03125 113.886719 9.378906 112.429688 9.015625 C 111.46875 8.78125 110.195312 8.652344 108.609375 8.652344 L 100.027344 8.652344 L 100.027344 9.664062 L 100.964844 9.664062 C 101.640625 9.664062 102.132812 9.847656 102.445312 10.238281 C 102.601562 10.421875 102.808594 10.964844 102.808594 12.421875 L 102.808594 25.355469 C 102.808594 26.734375 102.628906 27.253906 102.523438 27.410156 C 102.210938 27.878906 101.691406 28.113281 100.964844 28.113281 L 100.027344 28.113281 L 100.027344 29.125 L 109.386719 29.125 C 111.597656 29.125 113.261719 28.917969 114.328125 28.476562 C 115.417969 28.035156 116.304688 27.355469 116.953125 26.394531 C 117.578125 25.457031 117.914062 24.441406 117.914062 23.402344 C 117.914062 22.050781 117.421875 20.851562 116.460938 19.917969 C 115.835938 19.371094 115.03125 18.925781 113.988281 18.640625 Z M 113.027344 16.089844 C 112.664062 16.691406 112.167969 17.132812 111.519531 17.417969 C 110.84375 17.703125 109.828125 17.859375 108.476562 17.859375 C 107.90625 17.859375 107.4375 17.835938 106.996094 17.808594 C 106.605469 17.78125 106.265625 17.730469 105.980469 17.679688 L 105.980469 10.367188 C 106.683594 10.1875 107.464844 10.109375 108.320312 10.109375 C 110.0625 10.109375 111.335938 10.5 112.222656 11.277344 C 113.078125 12.058594 113.523438 12.996094 113.523438 14.089844 C 113.546875 14.816406 113.367188 15.492188 113.027344 16.089844 Z M 105.980469 19.421875 C 106.214844 19.394531 106.476562 19.371094 106.789062 19.34375 C 107.175781 19.316406 107.644531 19.316406 108.296875 19.316406 C 109.621094 19.316406 110.738281 19.527344 111.648438 19.917969 C 112.535156 20.304688 113.15625 20.851562 113.546875 21.503906 C 113.9375 22.179688 114.121094 22.882812 114.121094 23.636719 C 114.121094 24.730469 113.679688 25.667969 112.84375 26.421875 C 111.988281 27.175781 110.714844 27.566406 109.050781 27.566406 C 108.035156 27.566406 107.019531 27.460938 106.007812 27.226562 L 106.007812 19.421875 Z M 105.980469 19.421875 "/>
<path style=" stroke:none;fill-rule:nonzero;fill:rgb(25.490198%,25.098041%,25.882354%);fill-opacity:1;" d="M 130.917969 25.5625 L 130.527344 25.953125 C 129.953125 26.523438 129.589844 26.890625 129.410156 26.992188 C 129.332031 27.046875 129.253906 27.070312 129.121094 27.070312 C 129.042969 27.070312 128.964844 27.046875 128.886719 26.992188 C 128.835938 26.96875 128.785156 26.863281 128.734375 26.550781 C 128.679688 26.289062 128.679688 25.535156 128.679688 24.210938 L 128.679688 19.628906 C 128.679688 18.304688 128.578125 17.394531 128.394531 16.949219 C 128.109375 16.246094 127.640625 15.726562 127.042969 15.414062 C 126.289062 15 125.300781 14.789062 124.078125 14.789062 C 122.519531 14.789062 121.269531 15.15625 120.410156 15.910156 C 119.527344 16.664062 119.058594 17.523438 119.058594 18.40625 C 119.058594 18.902344 119.191406 19.316406 119.449219 19.605469 C 119.710938 19.917969 120.074219 20.074219 120.488281 20.074219 C 120.90625 20.074219 121.269531 19.917969 121.53125 19.628906 C 121.789062 19.34375 121.921875 18.925781 121.921875 18.40625 L 121.894531 17.546875 C 121.894531 17.183594 122.050781 16.871094 122.363281 16.558594 C 122.675781 16.273438 123.089844 16.117188 123.636719 16.117188 C 124.363281 16.117188 124.910156 16.351562 125.273438 16.792969 C 125.664062 17.261719 125.847656 18.121094 125.847656 19.421875 L 125.847656 19.785156 C 123.609375 20.617188 122.074219 21.320312 121.140625 21.894531 C 120.152344 22.492188 119.425781 23.167969 119.035156 23.871094 C 118.722656 24.390625 118.566406 25.015625 118.566406 25.691406 C 118.566406 26.785156 118.878906 27.695312 119.503906 28.371094 C 120.125 29.046875 120.933594 29.414062 121.894531 29.414062 C 122.492188 29.414062 123.089844 29.28125 123.636719 29.023438 C 124.050781 28.8125 125.039062 28.058594 125.871094 27.410156 C 125.925781 28.035156 126.082031 28.5 126.339844 28.8125 C 126.652344 29.203125 127.09375 29.386719 127.613281 29.386719 C 128.679688 29.386719 129.71875 28.632812 130.839844 27.070312 L 130.890625 27.019531 L 130.890625 25.5625 Z M 123.402344 22.285156 C 123.765625 22.074219 124.574219 21.710938 125.871094 21.164062 L 125.871094 25.847656 C 124.78125 26.734375 123.894531 27.199219 123.246094 27.199219 C 122.777344 27.199219 122.363281 26.992188 122 26.578125 C 121.609375 26.132812 121.425781 25.613281 121.425781 24.964844 C 121.425781 24.441406 121.582031 23.976562 121.867188 23.558594 C 122.179688 23.117188 122.699219 22.699219 123.402344 22.285156 Z M 123.402344 22.285156 "/>
<path style=" stroke:none;fill-rule:nonzero;fill:rgb(25.490198%,25.098041%,25.882354%);fill-opacity:1;" d="M 144.488281 27.929688 C 144.308594 27.824219 144.152344 27.644531 144.074219 27.460938 C 143.996094 27.277344 143.890625 26.835938 143.890625 25.820312 L 143.890625 20.074219 C 143.890625 18.796875 143.789062 17.886719 143.554688 17.289062 C 143.242188 16.402344 142.800781 15.753906 142.253906 15.363281 C 141.707031 14.972656 141.03125 14.765625 140.277344 14.765625 C 138.949219 14.765625 137.546875 15.597656 136.117188 17.238281 L 136.117188 14.765625 L 135.285156 14.765625 L 131.046875 16.507812 L 131.4375 17.445312 L 131.644531 17.367188 C 132.242188 17.132812 132.738281 17.105469 132.972656 17.289062 C 133.046875 17.339844 133.152344 17.496094 133.230469 17.886719 C 133.308594 18.199219 133.335938 19.136719 133.335938 20.800781 L 133.335938 25.820312 C 133.335938 26.992188 133.179688 27.488281 133.023438 27.695312 C 132.839844 27.980469 132.449219 28.113281 131.851562 28.113281 L 131.332031 28.113281 L 131.332031 29.101562 L 138.25 29.101562 L 138.25 28.113281 L 138.015625 28.113281 C 137.183594 28.113281 136.84375 28.007812 136.6875 27.929688 C 136.507812 27.824219 136.351562 27.644531 136.222656 27.410156 C 136.167969 27.304688 136.089844 26.96875 136.089844 25.820312 L 136.089844 18.796875 C 137.15625 17.625 138.222656 17.027344 139.261719 17.027344 C 139.914062 17.027344 140.355469 17.261719 140.640625 17.757812 C 140.925781 18.277344 141.082031 19.136719 141.082031 20.304688 L 141.082031 25.820312 C 141.082031 26.863281 141.058594 27.097656 141.03125 27.148438 C 140.953125 27.488281 140.796875 27.722656 140.589844 27.878906 C 140.382812 28.035156 139.992188 28.113281 139.445312 28.113281 L 138.949219 28.113281 L 138.949219 29.101562 L 145.867188 29.101562 L 145.867188 28.113281 L 145.632812 28.113281 C 144.957031 28.113281 144.644531 28.007812 144.488281 27.929688 Z M 144.488281 27.929688 "/>
<path style=" stroke:none;fill-rule:nonzero;fill:rgb(25.490198%,25.098041%,25.882354%);fill-opacity:1;" d="M 161.675781 28.113281 C 161.105469 28.113281 160.714844 28.058594 160.507812 27.980469 C 160.195312 27.851562 159.804688 27.566406 159.386719 27.148438 C 159.074219 26.835938 158.503906 26.109375 157.515625 24.859375 L 154.292969 20.644531 L 157.488281 17.574219 C 158.113281 17.003906 158.660156 16.613281 159.128906 16.402344 C 159.621094 16.195312 160.246094 16.066406 161 16.039062 L 161.207031 16.039062 L 161.207031 15.101562 L 155.070312 15.101562 L 155.070312 16.015625 L 155.28125 16.015625 C 155.59375 16.039062 155.800781 16.089844 155.929688 16.195312 C 156.035156 16.300781 156.085938 16.402344 156.085938 16.535156 C 156.085938 16.613281 156.058594 16.691406 156.007812 16.742188 C 155.957031 16.792969 155.746094 17.082031 154.8125 17.964844 L 151.875 20.828125 L 151.875 7.6875 L 150.988281 7.6875 L 146.804688 9.457031 L 147.21875 10.394531 L 147.425781 10.316406 C 147.921875 10.109375 148.15625 10.082031 148.257812 10.082031 C 148.441406 10.082031 148.597656 10.132812 148.703125 10.210938 C 148.832031 10.316406 148.910156 10.523438 148.960938 10.808594 C 149.039062 11.121094 149.066406 12.03125 149.066406 13.621094 L 149.066406 25.898438 C 149.066406 26.65625 148.988281 27.199219 148.882812 27.488281 C 148.78125 27.667969 148.675781 27.800781 148.519531 27.878906 C 148.234375 28.035156 147.765625 28.113281 147.117188 28.113281 L 146.90625 28.113281 L 146.90625 29.101562 L 154.003906 29.101562 L 154.003906 28.113281 L 153.796875 28.113281 C 152.941406 28.113281 152.601562 28.007812 152.472656 27.957031 C 152.289062 27.851562 152.160156 27.695312 152.054688 27.460938 C 151.953125 27.226562 151.898438 26.628906 151.898438 25.820312 L 151.898438 21.996094 L 155.515625 26.757812 C 156.007812 27.410156 156.035156 27.644531 156.035156 27.695312 C 156.035156 27.800781 156.007812 27.878906 155.929688 27.929688 C 155.851562 27.980469 155.695312 28.035156 155.304688 28.058594 L 155.097656 28.058594 L 155.097656 29.046875 L 161.910156 29.046875 L 161.910156 28.113281 Z M 161.675781 28.113281 "/>
</g>
</svg>
