<?xml version="1.0" encoding="UTF-8"?>
<svg xmlns="http://www.w3.org/2000/svg" xmlns:xlink="http://www.w3.org/1999/xlink" width="200px" height="37px" viewBox="0 0 201 37" version="1.1">
<g id="surface1">
<path style=" stroke:none;fill-rule:nonzero;fill:rgb(9.803922%,40.784314%,20.784314%);fill-opacity:1;" d="M 24.945312 36.996094 C 26.59375 36.996094 29.984375 35.925781 31.050781 30.675781 L 12.246094 30.675781 C 10.789062 30.675781 10.304688 29.800781 10.984375 28.34375 L 16.898438 17.453125 L 13.40625 11.136719 L 4.003906 28.148438 C 1.09375 33.398438 3.035156 36.996094 8.851562 36.898438 L 24.945312 36.898438 Z M 24.945312 36.996094 "/>
<path style=" stroke:none;fill-rule:nonzero;fill:rgb(3.529412%,30.588236%,61.960787%);fill-opacity:1;" d="M 27.949219 5.691406 C 27.175781 4.136719 24.554688 1.707031 19.710938 3.359375 L 29.113281 20.46875 C 29.792969 21.828125 29.402344 22.703125 27.851562 22.703125 L 15.929688 22.703125 L 12.4375 29.023438 L 31.148438 29.023438 C 36.867188 29.023438 38.90625 25.425781 35.996094 20.175781 Z M 27.949219 5.691406 "/>
<path style=" stroke:none;fill-rule:nonzero;fill:rgb(76.862746%,12.941177%,14.901961%);fill-opacity:1;" d="M 0.707031 18.621094 C -0.164062 20.175781 -0.941406 23.773438 2.9375 27.371094 L 12.339844 10.261719 C 13.117188 8.898438 14.085938 8.898438 14.863281 10.261719 L 20.777344 21.050781 L 27.757812 21.050781 L 18.351562 3.941406 C 15.445312 -1.308594 11.566406 -1.308594 8.65625 3.941406 Z M 0.707031 18.621094 "/>
<path style=" stroke:none;fill-rule:nonzero;fill:rgb(13.333334%,11.764706%,12.156863%);fill-opacity:1;" d="M 54.511719 9.773438 C 54.511719 9.09375 54.902344 8.707031 55.96875 8.707031 C 58.488281 8.707031 59.554688 9.871094 59.554688 13.46875 C 59.554688 17.359375 58.195312 18.328125 54.511719 18.234375 Z M 47.144531 28.925781 L 57.226562 28.925781 L 57.226562 28.148438 C 55.191406 27.855469 54.609375 27.757812 54.609375 25.230469 L 54.609375 19.398438 C 58.585938 19.398438 60.136719 19.300781 62.074219 18.234375 C 64.5 16.773438 64.789062 14.539062 64.789062 13.46875 C 64.789062 8.121094 59.261719 7.636719 56.9375 7.636719 L 47.242188 7.636719 L 47.242188 8.414062 C 48.792969 8.609375 49.761719 8.707031 49.761719 11.332031 L 49.761719 25.230469 C 49.761719 26.980469 49.375 27.46875 48.988281 27.757812 C 48.792969 27.953125 48.695312 27.953125 47.242188 28.246094 L 47.242188 28.925781 Z M 47.144531 28.925781 "/>
<path style=" stroke:none;fill-rule:nonzero;fill:rgb(13.333334%,11.764706%,12.156863%);fill-opacity:1;" d="M 73.902344 28.925781 L 65.855469 28.925781 L 65.855469 28.148438 C 66.824219 27.953125 67.503906 27.855469 67.503906 26.203125 L 67.503906 16.871094 C 67.503906 15.316406 66.824219 15.121094 65.855469 15.023438 L 65.855469 14.246094 L 71.574219 14.246094 L 71.574219 16.773438 L 71.671875 16.773438 C 72.351562 15.800781 73.707031 13.859375 75.648438 13.859375 C 77.683594 13.859375 78.167969 15.609375 78.167969 16.289062 C 78.167969 17.066406 77.78125 18.425781 76.230469 18.425781 C 74.484375 18.425781 74.484375 16.578125 73.515625 16.578125 C 73.03125 16.578125 71.769531 17.261719 71.769531 19.59375 L 71.769531 25.621094 C 71.769531 27.566406 72.15625 28.050781 74 28.148438 L 74 28.925781 Z M 73.902344 28.925781 "/>
<path style=" stroke:none;fill-rule:nonzero;fill:rgb(13.333334%,11.764706%,12.156863%);fill-opacity:1;" d="M 86.117188 28.925781 L 78.847656 28.925781 L 78.847656 28.148438 C 79.914062 27.855469 80.398438 27.757812 80.398438 26.203125 L 80.398438 16.871094 C 80.398438 15.414062 79.914062 15.21875 78.847656 15.023438 L 78.847656 14.246094 L 84.664062 14.246094 L 84.664062 26.300781 C 84.664062 27.273438 84.859375 27.953125 86.117188 28.050781 Z M 82.53125 7.054688 C 83.792969 7.054688 84.859375 8.121094 84.859375 9.484375 C 84.859375 10.84375 83.886719 11.914062 82.53125 11.914062 C 81.171875 11.914062 80.203125 10.84375 80.203125 9.484375 C 80.203125 8.21875 81.171875 7.054688 82.53125 7.054688 Z M 82.53125 7.054688 "/>
<path style=" stroke:none;fill-rule:nonzero;fill:rgb(13.333334%,11.764706%,12.156863%);fill-opacity:1;" d="M 111.324219 28.925781 L 104.148438 28.925781 L 104.148438 28.148438 C 105.605469 28.148438 105.605469 27.078125 105.605469 26.398438 L 105.605469 18.71875 C 105.605469 17.746094 105.605469 16.09375 103.957031 16.09375 C 102.695312 16.09375 101.433594 17.648438 101.433594 17.941406 L 101.433594 26.398438 C 101.433594 27.371094 101.726562 28.050781 102.890625 28.148438 L 102.890625 28.925781 L 95.8125 28.925781 L 95.8125 28.148438 C 97.265625 28.050781 97.265625 27.078125 97.265625 26.398438 L 97.265625 18.71875 C 97.265625 17.746094 97.265625 16.09375 95.617188 16.09375 C 94.359375 16.09375 93.097656 17.648438 93.097656 17.941406 L 93.097656 26.398438 C 93.097656 27.371094 93.292969 28.050781 94.457031 28.148438 L 94.457031 28.925781 L 87.183594 28.925781 L 87.183594 28.148438 C 88.152344 27.953125 88.832031 27.855469 88.832031 26.203125 L 88.832031 16.871094 C 88.832031 15.21875 88.058594 15.121094 87.183594 15.023438 L 87.183594 14.246094 L 92.902344 14.246094 L 92.902344 16.484375 L 93 16.484375 C 93.390625 15.707031 94.746094 13.859375 97.265625 13.859375 C 99.980469 13.859375 100.757812 15.609375 101.242188 16.578125 C 102.597656 14.734375 103.957031 13.859375 105.703125 13.859375 C 107.347656 13.859375 109.773438 14.832031 109.773438 18.328125 L 109.773438 26.300781 C 109.773438 27.078125 109.773438 28.050781 111.324219 28.050781 Z M 111.324219 28.925781 "/>
<path style=" stroke:none;fill-rule:nonzero;fill:rgb(13.333334%,11.764706%,12.156863%);fill-opacity:1;" d="M 116.753906 19.984375 C 116.753906 15.609375 117.820312 14.925781 118.886719 14.925781 C 119.953125 14.925781 120.339844 15.707031 120.535156 16.386719 C 120.726562 17.359375 120.726562 19.011719 120.824219 19.984375 Z M 124.023438 25.039062 C 123.441406 25.816406 122.375 27.175781 120.632812 27.175781 C 117.722656 27.175781 117.140625 23.96875 117.042969 21.246094 L 124.605469 21.246094 C 124.507812 19.496094 124.121094 14.050781 118.886719 14.050781 C 115.394531 14.050781 112.679688 17.066406 112.679688 21.730469 C 112.679688 27.175781 115.785156 29.507812 118.789062 29.507812 C 121.210938 29.507812 122.957031 28.539062 124.800781 25.523438 Z M 124.023438 25.039062 "/>
<path style=" stroke:none;fill-rule:nonzero;fill:rgb(13.333334%,11.764706%,12.156863%);fill-opacity:1;" d="M 140.699219 18.039062 L 141.570312 18.039062 C 143.511719 18.136719 146.226562 18.621094 146.226562 23.191406 C 146.226562 25.136719 145.835938 27.953125 142.539062 27.953125 C 141.28125 27.953125 140.699219 27.46875 140.699219 26.007812 Z M 140.699219 10.066406 C 140.699219 9.289062 140.796875 8.511719 142.25 8.511719 C 144.675781 8.511719 145.351562 10.359375 145.351562 12.59375 C 145.351562 15.800781 144.675781 17.164062 140.601562 17.164062 L 140.601562 10.066406 Z M 133.234375 28.925781 L 142.929688 28.925781 C 149.328125 28.828125 151.363281 25.71875 151.363281 22.996094 C 151.363281 19.398438 148.164062 17.84375 145.644531 17.359375 L 145.644531 17.261719 C 146.902344 16.871094 150.296875 15.996094 150.296875 12.496094 C 150.296875 7.539062 144.1875 7.441406 142.445312 7.441406 L 133.136719 7.441406 L 133.136719 8.21875 C 134.496094 8.316406 135.753906 8.414062 135.753906 10.457031 L 135.753906 25.816406 C 135.753906 27.757812 134.785156 27.855469 133.136719 28.050781 L 133.136719 28.925781 Z M 133.234375 28.925781 "/>
<path style=" stroke:none;fill-rule:nonzero;fill:rgb(13.333334%,11.764706%,12.156863%);fill-opacity:1;" d="M 161.738281 25.816406 C 161.347656 26.300781 160.671875 27.175781 159.605469 27.175781 C 158.539062 27.175781 158.050781 26.007812 158.050781 25.039062 C 158.050781 22.21875 161.058594 21.34375 161.738281 21.148438 Z M 167.070312 26.882812 L 166.777344 27.175781 C 166.679688 27.273438 166.582031 27.273438 166.488281 27.273438 C 165.808594 27.273438 165.808594 26.691406 165.808594 26.496094 L 165.808594 18.234375 C 165.808594 15.21875 163.09375 13.859375 159.796875 13.859375 C 156.015625 13.859375 154.175781 15.800781 154.175781 17.746094 C 154.175781 19.886719 155.824219 19.886719 156.210938 19.886719 C 157.761719 19.886719 158.246094 18.71875 158.246094 18.136719 C 158.246094 16.871094 157.375 16.675781 157.375 15.996094 C 157.375 15.511719 158.050781 14.832031 159.117188 14.832031 C 161.347656 14.832031 161.738281 15.996094 161.738281 17.648438 L 161.738281 19.984375 C 157.472656 21.34375 153.59375 22.605469 153.59375 25.914062 C 153.59375 28.34375 155.433594 29.316406 156.890625 29.316406 C 157.566406 29.316406 159.699219 29.121094 161.640625 27.078125 C 161.832031 27.953125 162.027344 29.316406 164.160156 29.316406 C 165.515625 29.316406 166.679688 28.539062 167.457031 27.46875 Z M 167.070312 26.882812 "/>
<path style=" stroke:none;fill-rule:nonzero;fill:rgb(13.333334%,11.764706%,12.156863%);fill-opacity:1;" d="M 184.132812 28.925781 L 177.054688 28.925781 L 177.054688 28.148438 C 178.023438 28.050781 178.507812 27.46875 178.507812 26.398438 L 178.507812 18.71875 C 178.507812 17.84375 178.507812 16.09375 176.859375 16.09375 C 175.695312 16.09375 174.339844 17.648438 174.339844 17.941406 L 174.339844 26.398438 C 174.339844 27.078125 174.4375 28.050781 175.792969 28.148438 L 175.792969 28.925781 L 168.523438 28.925781 L 168.523438 28.148438 C 169.589844 27.953125 170.171875 27.855469 170.171875 26.203125 L 170.171875 16.871094 C 170.171875 15.414062 169.78125 15.21875 168.523438 15.023438 L 168.523438 14.246094 L 174.242188 14.246094 L 174.242188 16.484375 L 174.339844 16.484375 C 174.726562 15.707031 176.085938 13.859375 178.605469 13.859375 C 180.253906 13.859375 182.675781 14.832031 182.675781 18.328125 L 182.675781 26.300781 C 182.675781 27.078125 182.675781 28.050781 184.132812 28.050781 Z M 184.132812 28.925781 "/>
<path style=" stroke:none;fill-rule:nonzero;fill:rgb(13.333334%,11.764706%,12.156863%);fill-opacity:1;" d="M 200.128906 15.023438 C 198.964844 15.21875 198.382812 15.414062 197.511719 16.09375 C 196.832031 16.675781 195.183594 18.234375 194.40625 19.203125 L 200.222656 27.664062 C 200.515625 28.148438 200.710938 28.148438 201 28.148438 L 201 28.925781 L 193.921875 28.925781 L 193.921875 28.148438 C 194.3125 28.148438 195.183594 28.050781 195.183594 27.566406 C 195.183594 27.175781 194.796875 26.59375 194.503906 26.105469 L 191.597656 21.828125 L 190.917969 22.605469 L 190.917969 26.203125 C 190.917969 27.566406 191.015625 27.855469 192.46875 28.148438 L 192.46875 28.925781 L 185.292969 28.925781 L 185.292969 28.148438 C 186.457031 28.148438 186.75 26.980469 186.75 26.203125 L 186.75 10.066406 C 186.75 9.773438 186.75 8.21875 185.292969 8.21875 L 185.292969 7.441406 L 190.917969 7.441406 L 190.917969 21.148438 L 194.796875 17.066406 C 195.085938 16.773438 195.472656 16.191406 195.472656 15.898438 C 195.472656 15.21875 195.183594 15.21875 193.730469 14.925781 L 193.730469 14.246094 L 200.128906 14.246094 Z M 200.128906 15.023438 "/>
</g>
</svg>
