<?xml version="1.0" encoding="UTF-8"?>
<svg xmlns="http://www.w3.org/2000/svg" xmlns:xlink="http://www.w3.org/1999/xlink" width="150px" height="20px" viewBox="0 0 154 20" version="1.1">
<g id="surface1">
<path style=" stroke:none;fill-rule:nonzero;fill:rgb(72.549021%,19.607843%,57.254905%);fill-opacity:1;" d="M 16.597656 1.53125 C 18.589844 1.53125 20.199219 3.207031 20.199219 5.234375 L 20.199219 5.324219 C 20.199219 7.324219 18.648438 8.941406 16.714844 9.03125 L 12.46875 9.03125 L 13.875 10.734375 L 16.683594 10.734375 C 18.675781 10.734375 20.285156 12.382812 20.285156 14.410156 L 20.285156 14.941406 C 20.285156 16.96875 18.675781 18.589844 16.683594 18.589844 L 14.050781 18.589844 C 13.433594 19.46875 12.175781 19.941406 12.03125 19.96875 L 22.335938 19.96875 C 26.433594 19.675781 27.050781 16.148438 27.050781 16.148438 C 28.132812 10.96875 23.476562 9.851562 23.476562 9.851562 C 23.886719 9.851562 24.882812 9.234375 24.882812 9.234375 C 27.988281 7.117188 27.050781 3.824219 27.050781 3.824219 C 26.171875 0.0898438 22.628906 0 22.628906 0 L 15.222656 0 L 15.222656 1.46875 L 16.597656 1.46875 Z M 16.597656 1.53125 "/>
<path style=" stroke:none;fill-rule:nonzero;fill:rgb(6.666667%,51.372552%,77.64706%);fill-opacity:1;" d="M 14.664062 14.5 C 14.664062 13.382812 13.816406 12.234375 13.171875 11.382812 C 12.441406 10.351562 11.5625 9.441406 10.769531 8.441406 C 10.304688 7.882812 9.863281 7.292969 9.484375 6.648438 C 9.277344 6.324219 9.074219 5.96875 8.898438 5.617188 L 8.957031 5.734375 L 8.925781 5.675781 C 8.605469 5 8.515625 4.410156 8.546875 3.941406 L 8.546875 3.824219 L 8.574219 3.734375 C 8.808594 2.46875 9.894531 1.53125 11.179688 1.53125 L 14.371094 1.53125 L 14.371094 0.0585938 L 5.824219 0.0585938 C 1.109375 0.441406 0.261719 4 0.261719 4 C -0.96875 7.175781 3.160156 10.675781 3.160156 10.675781 C 4.039062 11.441406 4.652344 12.117188 5.089844 12.707031 C 5.882812 13.792969 6.085938 14.589844 6.117188 15.058594 L 6.117188 15.265625 C 6.058594 17.117188 4.5625 18.617188 2.75 18.617188 L 0.0546875 18.617188 L 0.0546875 20 L 9.191406 20 C 10.828125 20 12.351562 18.882812 12.351562 18.882812 C 14.929688 16.941406 14.664062 14.5 14.664062 14.5 "/>
<path style=" stroke:none;fill-rule:nonzero;fill:rgb(0%,0%,0%);fill-opacity:1;" d="M 33.257812 7.117188 C 33.8125 7.410156 34.660156 7.675781 35.511719 7.675781 C 36.449219 7.675781 36.945312 7.292969 36.945312 6.707031 C 36.945312 6.148438 36.507812 5.824219 35.421875 5.441406 C 33.929688 4.910156 32.933594 4.089844 32.933594 2.765625 C 32.933594 1.207031 34.222656 0.03125 36.332031 0.03125 C 37.355469 0.03125 38.085938 0.234375 38.644531 0.5 L 38.175781 2.148438 C 37.824219 1.96875 37.179688 1.707031 36.300781 1.707031 C 35.421875 1.707031 34.984375 2.117188 34.984375 2.589844 C 34.984375 3.175781 35.480469 3.410156 36.652344 3.851562 C 38.234375 4.441406 38.996094 5.265625 38.996094 6.558594 C 38.996094 8.089844 37.824219 9.351562 35.363281 9.351562 C 34.339844 9.351562 33.316406 9.089844 32.816406 8.792969 Z M 33.257812 7.117188 "/>
<path style=" stroke:none;fill-rule:nonzero;fill:rgb(0%,0%,0%);fill-opacity:1;" d="M 46.898438 5.851562 C 46.898438 8.265625 45.203125 9.351562 43.445312 9.351562 C 41.542969 9.351562 40.046875 8.089844 40.046875 5.96875 C 40.046875 3.851562 41.453125 2.5 43.53125 2.5 C 45.554688 2.5 46.898438 3.882812 46.898438 5.851562 M 42.15625 5.941406 C 42.15625 7.058594 42.625 7.910156 43.503906 7.910156 C 44.292969 7.910156 44.792969 7.117188 44.792969 5.941406 C 44.792969 4.96875 44.410156 3.96875 43.503906 3.96875 C 42.507812 3.941406 42.15625 4.96875 42.15625 5.941406 "/>
<path style=" stroke:none;fill-rule:nonzero;fill:rgb(0%,0%,0%);fill-opacity:1;" d="M 54.308594 7.117188 C 54.308594 7.96875 54.335938 8.675781 54.367188 9.234375 L 52.609375 9.234375 L 52.519531 8.292969 L 52.492188 8.292969 C 52.226562 8.707031 51.613281 9.382812 50.441406 9.382812 C 49.125 9.382812 48.128906 8.558594 48.128906 6.53125 L 48.128906 2.648438 L 50.179688 2.648438 L 50.179688 6.175781 C 50.179688 7.117188 50.5 7.707031 51.203125 7.707031 C 51.761719 7.707031 52.082031 7.324219 52.226562 7 C 52.285156 6.882812 52.285156 6.707031 52.285156 6.558594 L 52.285156 2.648438 L 54.335938 2.648438 L 54.335938 7.117188 Z M 54.308594 7.117188 "/>
<path style=" stroke:none;fill-rule:nonzero;fill:rgb(0%,0%,0%);fill-opacity:1;" d="M 58.199219 0.765625 L 58.199219 2.648438 L 59.664062 2.648438 L 59.664062 4.148438 L 58.199219 4.148438 L 58.199219 6.53125 C 58.199219 7.324219 58.375 7.675781 58.992188 7.675781 C 59.253906 7.675781 59.460938 7.648438 59.605469 7.617188 L 59.605469 9.175781 C 59.34375 9.292969 58.84375 9.351562 58.289062 9.351562 C 57.644531 9.351562 57.089844 9.117188 56.765625 8.792969 C 56.386719 8.410156 56.210938 7.765625 56.210938 6.851562 L 56.210938 4.175781 L 55.332031 4.175781 L 55.332031 2.648438 L 56.210938 2.648438 L 56.210938 1.234375 Z M 58.199219 0.765625 "/>
<path style=" stroke:none;fill-rule:nonzero;fill:rgb(0%,0%,0%);fill-opacity:1;" d="M 60.835938 0.03125 L 62.855469 0.03125 L 62.855469 3.441406 L 62.886719 3.441406 C 63.089844 3.148438 63.355469 2.941406 63.675781 2.765625 C 63.96875 2.617188 64.347656 2.5 64.730469 2.5 C 66.019531 2.5 67.011719 3.410156 67.011719 5.382812 L 67.011719 9.234375 L 65.023438 9.234375 L 65.023438 5.617188 C 65.023438 4.765625 64.730469 4.175781 63.96875 4.175781 C 63.441406 4.175781 63.089844 4.53125 62.945312 4.882812 C 62.886719 5.03125 62.886719 5.207031 62.886719 5.351562 L 62.886719 9.234375 L 60.863281 9.234375 L 60.863281 0.03125 Z M 60.835938 0.03125 "/>
<path style=" stroke:none;fill-rule:nonzero;fill:rgb(0%,0%,0%);fill-opacity:1;" d="M 70.234375 6.589844 C 70.292969 7.441406 71.140625 7.824219 72.078125 7.824219 C 72.78125 7.824219 73.335938 7.734375 73.894531 7.558594 L 74.15625 8.941406 C 73.484375 9.207031 72.664062 9.351562 71.785156 9.351562 C 69.5625 9.351562 68.300781 8.058594 68.300781 6 C 68.300781 4.324219 69.328125 2.5 71.609375 2.5 C 73.71875 2.5 74.539062 4.148438 74.539062 5.765625 C 74.539062 6.117188 74.507812 6.410156 74.480469 6.558594 L 70.234375 6.558594 Z M 72.632812 5.175781 C 72.632812 4.675781 72.429688 3.851562 71.492188 3.851562 C 70.644531 3.851562 70.292969 4.617188 70.234375 5.175781 Z M 72.632812 5.175781 "/>
<path style=" stroke:none;fill-rule:nonzero;fill:rgb(0%,0%,0%);fill-opacity:1;" d="M 79.457031 9.207031 L 79.339844 8.558594 L 79.308594 8.558594 C 78.871094 9.089844 78.226562 9.351562 77.4375 9.351562 C 76.117188 9.351562 75.328125 8.382812 75.328125 7.324219 C 75.328125 5.617188 76.851562 4.792969 79.164062 4.824219 L 79.164062 4.734375 C 79.164062 4.382812 78.988281 3.882812 77.964844 3.882812 C 77.289062 3.882812 76.585938 4.117188 76.148438 4.382812 L 75.765625 3.058594 C 76.234375 2.792969 77.113281 2.46875 78.316406 2.46875 C 80.480469 2.46875 81.183594 3.765625 81.183594 5.292969 L 81.183594 7.589844 C 81.183594 8.207031 81.214844 8.824219 81.273438 9.175781 L 79.457031 9.175781 Z M 79.222656 6.117188 C 78.140625 6.117188 77.320312 6.351562 77.320312 7.148438 C 77.320312 7.675781 77.671875 7.910156 78.109375 7.910156 C 78.605469 7.910156 79.046875 7.589844 79.164062 7.148438 C 79.191406 7.03125 79.191406 6.910156 79.191406 6.792969 L 79.191406 6.117188 Z M 79.222656 6.117188 "/>
<path style=" stroke:none;fill-rule:nonzero;fill:rgb(0%,0%,0%);fill-opacity:1;" d="M 82.792969 7.441406 C 83.175781 7.675781 83.9375 7.941406 84.550781 7.941406 C 85.164062 7.941406 85.429688 7.734375 85.429688 7.382812 C 85.429688 7.058594 85.222656 6.882812 84.460938 6.617188 C 83.117188 6.148438 82.589844 5.410156 82.617188 4.648438 C 82.617188 3.410156 83.671875 2.5 85.28125 2.5 C 86.042969 2.5 86.71875 2.675781 87.128906 2.882812 L 86.777344 4.292969 C 86.484375 4.148438 85.925781 3.910156 85.371094 3.910156 C 84.871094 3.910156 84.609375 4.117188 84.609375 4.441406 C 84.609375 4.734375 84.871094 4.910156 85.664062 5.207031 C 86.894531 5.648438 87.417969 6.265625 87.449219 7.234375 C 87.449219 8.46875 86.484375 9.351562 84.609375 9.351562 C 83.761719 9.351562 83 9.175781 82.5 8.882812 Z M 82.792969 7.441406 "/>
<path style=" stroke:none;fill-rule:nonzero;fill:rgb(0%,0%,0%);fill-opacity:1;" d="M 90.875 0.765625 L 90.875 2.648438 L 92.339844 2.648438 L 92.339844 4.148438 L 90.875 4.148438 L 90.875 6.53125 C 90.875 7.324219 91.050781 7.675781 91.664062 7.675781 C 91.929688 7.675781 92.132812 7.648438 92.28125 7.617188 L 92.28125 9.175781 C 92.015625 9.292969 91.519531 9.351562 90.960938 9.351562 C 90.320312 9.351562 89.761719 9.117188 89.441406 8.792969 C 89.058594 8.410156 88.882812 7.765625 88.882812 6.851562 L 88.882812 4.175781 L 88.003906 4.175781 L 88.003906 2.648438 L 88.882812 2.648438 L 88.882812 1.234375 Z M 90.875 0.765625 "/>
<path style=" stroke:none;fill-rule:nonzero;fill:rgb(0%,0%,0%);fill-opacity:1;" d="M 96.261719 0.292969 C 96.789062 0.175781 97.871094 0.117188 98.898438 0.117188 C 100.125 0.117188 100.917969 0.234375 101.5625 0.617188 C 102.175781 0.941406 102.644531 1.558594 102.644531 2.382812 C 102.644531 3.175781 102.175781 3.941406 101.152344 4.324219 L 101.152344 4.351562 C 102.175781 4.648438 102.9375 5.410156 102.9375 6.589844 C 102.9375 7.410156 102.554688 8.058594 102 8.5 C 101.355469 9.03125 100.242188 9.324219 98.457031 9.324219 C 97.460938 9.324219 96.699219 9.265625 96.261719 9.175781 Z M 98.28125 3.765625 L 98.957031 3.765625 C 100.039062 3.765625 100.59375 3.324219 100.59375 2.648438 C 100.59375 1.96875 100.066406 1.589844 99.160156 1.589844 C 98.722656 1.589844 98.457031 1.617188 98.28125 1.648438 Z M 98.28125 7.765625 C 98.488281 7.792969 98.722656 7.792969 99.074219 7.792969 C 100.007812 7.792969 100.800781 7.441406 100.800781 6.5 C 100.800781 5.589844 99.980469 5.234375 98.957031 5.234375 L 98.253906 5.234375 L 98.253906 7.765625 Z M 98.28125 7.765625 "/>
<path style=" stroke:none;fill-rule:nonzero;fill:rgb(0%,0%,0%);fill-opacity:1;" d="M 108.03125 9.207031 L 107.914062 8.558594 L 107.886719 8.558594 C 107.445312 9.089844 106.800781 9.351562 106.011719 9.351562 C 104.695312 9.351562 103.902344 8.382812 103.902344 7.324219 C 103.902344 5.617188 105.425781 4.792969 107.738281 4.824219 L 107.738281 4.734375 C 107.738281 4.382812 107.5625 3.882812 106.539062 3.882812 C 105.863281 3.882812 105.160156 4.117188 104.722656 4.382812 L 104.34375 3.058594 C 104.8125 2.792969 105.6875 2.46875 106.890625 2.46875 C 109.054688 2.46875 109.757812 3.765625 109.757812 5.292969 L 109.757812 7.589844 C 109.757812 8.207031 109.789062 8.824219 109.847656 9.175781 L 108.03125 9.175781 Z M 107.796875 6.117188 C 106.714844 6.117188 105.894531 6.351562 105.894531 7.148438 C 105.894531 7.675781 106.246094 7.910156 106.683594 7.910156 C 107.183594 7.910156 107.621094 7.589844 107.738281 7.148438 C 107.769531 7.03125 107.769531 6.910156 107.769531 6.792969 L 107.769531 6.117188 Z M 107.796875 6.117188 "/>
<path style=" stroke:none;fill-rule:nonzero;fill:rgb(0%,0%,0%);fill-opacity:1;" d="M 111.367188 4.734375 C 111.367188 3.910156 111.339844 3.207031 111.308594 2.648438 L 113.066406 2.648438 L 113.15625 3.558594 L 113.183594 3.558594 C 113.449219 3.148438 114.121094 2.5 115.203125 2.5 C 116.550781 2.5 117.546875 3.382812 117.546875 5.324219 L 117.546875 9.207031 L 115.527344 9.207031 L 115.527344 5.589844 C 115.527344 4.734375 115.234375 4.175781 114.5 4.175781 C 113.945312 4.175781 113.59375 4.558594 113.476562 4.941406 C 113.417969 5.058594 113.390625 5.265625 113.390625 5.441406 L 113.390625 9.234375 L 111.367188 9.234375 Z M 111.367188 4.734375 "/>
<path style=" stroke:none;fill-rule:nonzero;fill:rgb(0%,0%,0%);fill-opacity:1;" d="M 121.265625 5.410156 C 121.441406 5.148438 121.585938 4.882812 121.761719 4.617188 L 123.078125 2.648438 L 125.539062 2.648438 L 123.195312 5.292969 L 125.859375 9.207031 L 123.371094 9.207031 L 121.792969 6.5 L 121.265625 7.148438 L 121.265625 9.207031 L 119.246094 9.207031 L 119.246094 0 L 121.265625 0 Z M 121.265625 5.410156 "/>
<path style=" stroke:none;fill-rule:nonzero;fill:rgb(0%,0%,0%);fill-opacity:1;" d="M 129.226562 0.292969 C 129.84375 0.175781 130.75 0.117188 131.980469 0.117188 C 133.238281 0.117188 134.148438 0.351562 134.734375 0.851562 C 135.316406 1.324219 135.699219 2.058594 135.699219 2.941406 C 135.699219 3.824219 135.40625 4.589844 134.878906 5.089844 C 134.175781 5.734375 133.152344 6.03125 131.949219 6.03125 C 131.6875 6.03125 131.453125 6.03125 131.25 6 L 131.25 9.234375 L 129.226562 9.234375 Z M 131.25 4.382812 C 131.425781 4.410156 131.628906 4.441406 131.921875 4.441406 C 133.003906 4.441406 133.679688 3.882812 133.679688 2.96875 C 133.679688 2.148438 133.09375 1.648438 132.097656 1.648438 C 131.6875 1.648438 131.394531 1.675781 131.25 1.734375 Z M 131.25 4.382812 "/>
<path style=" stroke:none;fill-rule:nonzero;fill:rgb(0%,0%,0%);fill-opacity:1;" d="M 136.988281 0.175781 L 139.035156 0.175781 L 139.035156 7.5 L 142.636719 7.5 L 142.636719 9.207031 L 136.988281 9.207031 Z M 136.988281 0.175781 "/>
<path style=" stroke:none;fill-rule:nonzero;fill:rgb(0%,0%,0%);fill-opacity:1;" d="M 149.957031 8.96875 C 149.574219 9.148438 148.726562 9.351562 147.644531 9.351562 C 144.539062 9.351562 142.929688 7.410156 142.929688 4.824219 C 142.929688 1.734375 145.125 0 147.847656 0 C 148.902344 0 149.691406 0.207031 150.074219 0.410156 L 149.632812 2.058594 C 149.226562 1.882812 148.640625 1.734375 147.9375 1.734375 C 146.328125 1.734375 145.066406 2.707031 145.066406 4.734375 C 145.066406 6.558594 146.152344 7.675781 147.964844 7.675781 C 148.582031 7.675781 149.253906 7.53125 149.664062 7.382812 Z M 149.957031 8.96875 "/>
<path style=" stroke:none;fill-rule:nonzero;fill:rgb(72.549021%,19.607843%,57.254905%);fill-opacity:1;" d="M 64.320312 19.882812 L 64.261719 19.265625 L 64.230469 19.265625 C 63.96875 19.648438 63.414062 20 62.710938 20 C 61.714844 20 61.1875 19.292969 61.1875 18.589844 C 61.1875 17.382812 62.242188 16.734375 64.144531 16.734375 L 64.144531 16.648438 C 64.144531 16.234375 64.027344 15.5 63.03125 15.5 C 62.5625 15.5 62.09375 15.648438 61.742188 15.882812 L 61.539062 15.292969 C 61.949219 15.03125 62.535156 14.851562 63.148438 14.851562 C 64.671875 14.851562 65.023438 15.882812 65.023438 16.882812 L 65.023438 18.734375 C 65.023438 19.175781 65.050781 19.589844 65.109375 19.910156 L 64.320312 19.910156 Z M 64.171875 17.351562 C 63.207031 17.324219 62.09375 17.5 62.09375 18.46875 C 62.09375 19.058594 62.476562 19.324219 62.945312 19.324219 C 63.589844 19.324219 63.996094 18.910156 64.144531 18.5 C 64.171875 18.410156 64.203125 18.292969 64.203125 18.207031 L 64.203125 17.351562 Z M 64.171875 17.351562 "/>
<path style=" stroke:none;fill-rule:nonzero;fill:rgb(72.549021%,19.607843%,57.254905%);fill-opacity:1;" d="M 70.644531 19.882812 C 70.671875 19.558594 70.671875 19.03125 70.671875 18.589844 L 70.671875 12.589844 L 71.550781 12.589844 L 71.550781 15.707031 L 71.582031 15.707031 C 71.902344 15.148438 72.460938 14.792969 73.25 14.792969 C 74.480469 14.792969 75.328125 15.824219 75.328125 17.324219 C 75.328125 19.089844 74.214844 19.96875 73.101562 19.96875 C 72.402344 19.96875 71.816406 19.707031 71.464844 19.03125 L 71.433594 19.851562 L 70.644531 19.851562 Z M 71.582031 17.910156 C 71.582031 18.03125 71.609375 18.148438 71.609375 18.234375 C 71.785156 18.851562 72.3125 19.292969 72.957031 19.292969 C 73.894531 19.292969 74.449219 18.53125 74.449219 17.382812 C 74.449219 16.382812 73.953125 15.53125 72.984375 15.53125 C 72.371094 15.53125 71.816406 15.941406 71.609375 16.648438 C 71.582031 16.734375 71.550781 16.882812 71.550781 17.03125 L 71.550781 17.910156 Z M 71.582031 17.910156 "/>
<path style=" stroke:none;fill-rule:nonzero;fill:rgb(72.549021%,19.607843%,57.254905%);fill-opacity:1;" d="M 80.246094 19.882812 L 80.1875 19.265625 L 80.160156 19.265625 C 79.894531 19.648438 79.339844 20 78.636719 20 C 77.640625 20 77.113281 19.292969 77.113281 18.589844 C 77.113281 17.382812 78.167969 16.734375 80.070312 16.734375 L 80.070312 16.648438 C 80.070312 16.234375 79.953125 15.5 78.957031 15.5 C 78.488281 15.5 78.023438 15.648438 77.671875 15.882812 L 77.464844 15.292969 C 77.875 15.03125 78.460938 14.851562 79.074219 14.851562 C 80.597656 14.851562 80.949219 15.882812 80.949219 16.882812 L 80.949219 18.734375 C 80.949219 19.175781 80.980469 19.589844 81.039062 19.910156 L 80.246094 19.910156 Z M 80.128906 17.351562 C 79.164062 17.324219 78.050781 17.5 78.050781 18.46875 C 78.050781 19.058594 78.433594 19.324219 78.898438 19.324219 C 79.542969 19.324219 79.953125 18.910156 80.101562 18.5 C 80.128906 18.410156 80.160156 18.292969 80.160156 18.207031 L 80.160156 17.351562 Z M 80.128906 17.351562 "/>
<path style=" stroke:none;fill-rule:nonzero;fill:rgb(72.549021%,19.607843%,57.254905%);fill-opacity:1;" d="M 83.4375 16.265625 C 83.4375 15.765625 83.4375 15.324219 83.410156 14.910156 L 84.199219 14.910156 L 84.257812 15.734375 L 84.289062 15.734375 C 84.519531 15.265625 85.105469 14.792969 85.925781 14.792969 C 86.601562 14.792969 87.683594 15.207031 87.683594 16.910156 L 87.683594 19.882812 L 86.777344 19.882812 L 86.777344 17.03125 C 86.777344 16.234375 86.484375 15.558594 85.632812 15.558594 C 85.046875 15.558594 84.578125 15.96875 84.433594 16.46875 C 84.402344 16.589844 84.375 16.734375 84.375 16.882812 L 84.375 19.851562 L 83.46875 19.851562 L 83.46875 16.265625 Z M 83.4375 16.265625 "/>
<path style=" stroke:none;fill-rule:nonzero;fill:rgb(72.549021%,19.607843%,57.254905%);fill-opacity:1;" d="M 91.019531 17.207031 C 91.167969 17.03125 91.34375 16.824219 91.488281 16.648438 L 92.925781 14.941406 L 94.007812 14.941406 L 92.105469 16.96875 L 94.269531 19.882812 L 93.1875 19.882812 L 91.488281 17.5 L 91.019531 18 L 91.019531 19.851562 L 90.144531 19.851562 L 90.144531 12.589844 L 91.019531 12.589844 Z M 91.019531 17.207031 "/>
<path style=" stroke:none;fill-rule:nonzero;fill:rgb(72.549021%,19.607843%,57.254905%);fill-opacity:1;" d="M 99.480469 14.941406 L 100.125 17.46875 C 100.273438 18.03125 100.390625 18.53125 100.507812 19.058594 L 100.535156 19.058594 C 100.652344 18.558594 100.800781 18.03125 100.976562 17.5 L 101.796875 14.96875 L 102.554688 14.96875 L 103.316406 17.441406 C 103.492188 18.03125 103.640625 18.558594 103.757812 19.058594 L 103.785156 19.058594 C 103.875 18.558594 103.992188 18.03125 104.167969 17.441406 L 104.871094 14.941406 L 105.746094 14.941406 L 104.167969 19.910156 L 103.347656 19.910156 L 102.585938 17.558594 C 102.410156 17 102.261719 16.5 102.148438 15.941406 L 102.117188 15.941406 C 102 16.53125 101.855469 17.058594 101.679688 17.589844 L 100.886719 19.941406 L 100.066406 19.941406 L 98.574219 14.96875 L 99.480469 14.96875 Z M 99.480469 14.941406 "/>
<path style=" stroke:none;fill-rule:nonzero;fill:rgb(72.549021%,19.607843%,57.254905%);fill-opacity:1;" d="M 108.644531 13.53125 C 108.644531 13.824219 108.441406 14.089844 108.0625 14.089844 C 107.738281 14.089844 107.535156 13.851562 107.535156 13.53125 C 107.535156 13.207031 107.769531 12.96875 108.089844 12.96875 C 108.410156 12.96875 108.644531 13.207031 108.644531 13.53125 M 107.652344 14.941406 L 108.558594 14.941406 L 108.558594 19.910156 L 107.652344 19.910156 Z M 107.652344 14.941406 "/>
<path style=" stroke:none;fill-rule:nonzero;fill:rgb(72.549021%,19.607843%,57.254905%);fill-opacity:1;" d="M 112.128906 13.5 L 112.128906 14.910156 L 113.417969 14.910156 L 113.417969 15.589844 L 112.128906 15.589844 L 112.128906 18.265625 C 112.128906 18.882812 112.304688 19.234375 112.804688 19.234375 C 113.039062 19.234375 113.214844 19.207031 113.332031 19.175781 L 113.359375 19.851562 C 113.183594 19.910156 112.921875 19.96875 112.570312 19.96875 C 112.160156 19.96875 111.808594 19.824219 111.601562 19.589844 C 111.339844 19.324219 111.25 18.882812 111.25 18.292969 L 111.25 15.589844 L 110.492188 15.589844 L 110.492188 14.910156 L 111.25 14.910156 L 111.25 13.734375 Z M 112.128906 13.5 "/>
<path style=" stroke:none;fill-rule:nonzero;fill:rgb(72.549021%,19.607843%,57.254905%);fill-opacity:1;" d="M 115.4375 12.617188 L 116.347656 12.617188 L 116.347656 15.707031 L 116.375 15.707031 C 116.523438 15.441406 116.757812 15.234375 117.019531 15.058594 C 117.28125 14.910156 117.605469 14.792969 117.925781 14.792969 C 118.601562 14.792969 119.65625 15.207031 119.65625 16.910156 L 119.65625 19.851562 L 118.746094 19.851562 L 118.746094 17 C 118.746094 16.207031 118.453125 15.53125 117.605469 15.53125 C 117.019531 15.53125 116.550781 15.941406 116.40625 16.441406 C 116.347656 16.558594 116.347656 16.707031 116.347656 16.882812 L 116.347656 19.882812 L 115.4375 19.882812 Z M 115.4375 12.617188 "/>
<path style=" stroke:none;fill-rule:nonzero;fill:rgb(72.549021%,19.607843%,57.254905%);fill-opacity:1;" d="M 125.65625 14.941406 L 126.621094 17.734375 C 126.796875 18.175781 126.914062 18.589844 127.03125 19 L 127.0625 19 C 127.179688 18.589844 127.324219 18.175781 127.472656 17.734375 L 128.4375 14.941406 L 129.375 14.941406 L 127.441406 19.910156 L 126.59375 19.910156 L 124.71875 14.941406 Z M 125.65625 14.941406 "/>
<path style=" stroke:none;fill-rule:nonzero;fill:rgb(72.549021%,19.607843%,57.254905%);fill-opacity:1;" d="M 132.214844 13.53125 C 132.214844 13.824219 132.007812 14.089844 131.628906 14.089844 C 131.308594 14.089844 131.101562 13.851562 131.101562 13.53125 C 131.101562 13.207031 131.335938 12.96875 131.660156 12.96875 C 132.007812 12.96875 132.214844 13.207031 132.214844 13.53125 M 131.21875 14.941406 L 132.125 14.941406 L 132.125 19.910156 L 131.21875 19.910156 Z M 131.21875 14.941406 "/>
<path style=" stroke:none;fill-rule:nonzero;fill:rgb(72.549021%,19.607843%,57.254905%);fill-opacity:1;" d="M 134.5 18.96875 C 134.761719 19.148438 135.230469 19.324219 135.667969 19.324219 C 136.3125 19.324219 136.636719 19 136.636719 18.589844 C 136.636719 18.148438 136.371094 17.910156 135.726562 17.675781 C 134.847656 17.351562 134.410156 16.851562 134.410156 16.265625 C 134.410156 15.46875 135.054688 14.824219 136.109375 14.824219 C 136.605469 14.824219 137.046875 14.96875 137.308594 15.117188 L 137.074219 15.765625 C 136.871094 15.648438 136.519531 15.46875 136.078125 15.46875 C 135.550781 15.46875 135.257812 15.765625 135.257812 16.148438 C 135.257812 16.558594 135.550781 16.734375 136.195312 17 C 137.046875 17.324219 137.484375 17.765625 137.484375 18.5 C 137.484375 19.382812 136.8125 19.96875 135.640625 19.96875 C 135.113281 19.96875 134.585938 19.824219 134.265625 19.648438 Z M 134.5 18.96875 "/>
<path style=" stroke:none;fill-rule:nonzero;fill:rgb(72.549021%,19.607843%,57.254905%);fill-opacity:1;" d="M 140.675781 13.53125 C 140.675781 13.824219 140.472656 14.089844 140.089844 14.089844 C 139.769531 14.089844 139.5625 13.851562 139.5625 13.53125 C 139.5625 13.207031 139.796875 12.96875 140.121094 12.96875 C 140.472656 12.96875 140.675781 13.207031 140.675781 13.53125 M 139.679688 14.941406 L 140.589844 14.941406 L 140.589844 19.910156 L 139.679688 19.910156 Z M 139.679688 14.941406 "/>
<path style=" stroke:none;fill-rule:nonzero;fill:rgb(72.549021%,19.607843%,57.254905%);fill-opacity:1;" d="M 147.554688 17.382812 C 147.554688 19.207031 146.296875 20 145.097656 20 C 143.75 20 142.726562 19.03125 142.726562 17.441406 C 142.726562 15.792969 143.808594 14.824219 145.183594 14.824219 C 146.589844 14.824219 147.554688 15.851562 147.554688 17.382812 M 143.632812 17.410156 C 143.632812 18.5 144.246094 19.324219 145.125 19.324219 C 145.976562 19.324219 146.617188 18.5 146.617188 17.410156 C 146.617188 16.558594 146.210938 15.5 145.125 15.5 C 144.101562 15.5 143.632812 16.46875 143.632812 17.410156 "/>
<path style=" stroke:none;fill-rule:nonzero;fill:rgb(72.549021%,19.607843%,57.254905%);fill-opacity:1;" d="M 149.722656 16.265625 C 149.722656 15.765625 149.722656 15.324219 149.691406 14.910156 L 150.484375 14.910156 L 150.542969 15.734375 L 150.570312 15.734375 C 150.804688 15.265625 151.390625 14.792969 152.210938 14.792969 C 152.882812 14.792969 153.96875 15.207031 153.96875 16.910156 L 153.96875 19.882812 L 153.058594 19.882812 L 153.058594 17.03125 C 153.058594 16.234375 152.765625 15.558594 151.917969 15.558594 C 151.332031 15.558594 150.863281 15.96875 150.71875 16.46875 C 150.6875 16.589844 150.660156 16.734375 150.660156 16.882812 L 150.660156 19.851562 L 149.75 19.851562 L 149.75 16.265625 Z M 149.722656 16.265625 "/>
<path style=" stroke:none;fill-rule:nonzero;fill:rgb(0%,0%,0%);fill-opacity:1;" d="M 152.09375 1.207031 L 151.859375 1.207031 L 151.859375 0.207031 L 151.539062 0.207031 L 151.539062 0 L 152.417969 0 L 152.417969 0.207031 L 152.09375 0.207031 Z M 152.09375 1.207031 "/>
<path style=" stroke:none;fill-rule:nonzero;fill:rgb(0%,0%,0%);fill-opacity:1;" d="M 153.117188 1.207031 L 152.824219 0.265625 L 152.824219 1.207031 L 152.621094 1.207031 L 152.621094 0 L 152.941406 0 L 153.234375 0.910156 L 153.527344 0 L 153.878906 0 L 153.878906 1.207031 L 153.644531 1.207031 L 153.644531 0.265625 L 153.351562 1.207031 Z M 153.117188 1.207031 "/>
<path style=" stroke:none;fill-rule:nonzero;fill:rgb(0%,0%,0%);fill-opacity:1;" d="M 153.820312 8.234375 C 153.820312 8.851562 153.324219 9.351562 152.707031 9.351562 C 152.09375 9.351562 151.597656 8.851562 151.597656 8.234375 C 151.597656 7.617188 152.09375 7.117188 152.707031 7.117188 C 153.324219 7.148438 153.820312 7.617188 153.820312 8.234375 "/>
</g>
</svg>
