<?xml version="1.0" encoding="UTF-8"?>
<svg xmlns="http://www.w3.org/2000/svg" xmlns:xlink="http://www.w3.org/1999/xlink" width="200px" height="49px" viewBox="0 0 197 49" version="1.1">
<g id="surface1">
<path style=" stroke:none;fill-rule:nonzero;fill:rgb(0%,43.529412%,27.058825%);fill-opacity:1;" d="M 5.828125 7.472656 L 39.007812 7.472656 L 39.007812 36.734375 L 5.828125 36.734375 Z M 5.828125 7.472656 "/>
<path style=" stroke:none;fill-rule:nonzero;fill:rgb(68.627453%,12.156863%,14.117648%);fill-opacity:1;" d="M 36.589844 17.464844 C 36.589844 27.113281 28.398438 34.933594 18.292969 34.933594 C 8.191406 34.933594 0 27.113281 0 17.464844 C 0 7.820312 8.191406 0 18.292969 0 C 28.398438 0 36.589844 7.820312 36.589844 17.464844 Z M 36.589844 17.464844 "/>
<path style=" stroke:none;fill-rule:nonzero;fill:rgb(100%,100%,100%);fill-opacity:1;" d="M 33.179688 21.003906 C 33.179688 28.300781 27.160156 34.210938 19.730469 34.210938 C 12.304688 34.210938 6.28125 28.300781 6.28125 21.003906 C 6.28125 13.710938 12.304688 7.792969 19.730469 7.792969 C 27.160156 7.792969 33.179688 13.710938 33.179688 21.003906 Z M 33.179688 21.003906 "/>
<path style=" stroke:none;fill-rule:nonzero;fill:rgb(0%,43.529412%,27.058825%);fill-opacity:1;" d="M 122.476562 36.222656 C 123.011719 34.027344 123.539062 31.871094 124.0625 29.714844 C 124.988281 25.898438 125.90625 22.082031 126.863281 18.269531 C 126.925781 18.015625 127.234375 17.660156 127.460938 17.636719 C 131 17.230469 134.554688 16.871094 138.070312 17.746094 C 139.027344 17.984375 139.984375 18.414062 140.796875 18.96875 C 142.800781 20.34375 142.902344 23.011719 141.003906 24.523438 C 140.195312 25.167969 139.171875 25.539062 138.238281 26.019531 C 138.015625 26.132812 137.757812 26.175781 137.394531 26.289062 C 137.988281 26.539062 138.472656 26.707031 138.925781 26.9375 C 141.492188 28.246094 142.042969 31.351562 140.066406 33.464844 C 138.707031 34.914062 136.957031 35.625 135.0625 36.054688 C 132.167969 36.710938 124.996094 36.835938 122.476562 36.222656 Z M 128.257812 33.390625 C 129.511719 33.390625 130.609375 33.539062 131.65625 33.351562 C 132.742188 33.160156 133.894531 32.832031 134.796875 32.230469 C 136.308594 31.21875 136.023438 29.121094 134.339844 28.457031 C 133.519531 28.132812 132.597656 27.996094 131.710938 27.945312 C 129.605469 27.824219 129.601562 27.863281 129.101562 29.910156 C 128.828125 31.03125 128.558594 32.152344 128.257812 33.390625 Z M 130.335938 25.058594 C 131.550781 24.992188 132.65625 25.007812 133.734375 24.839844 C 134.503906 24.722656 135.273438 24.429688 135.976562 24.078125 C 136.714844 23.710938 137.105469 23.019531 137.003906 22.160156 C 136.902344 21.296875 136.285156 20.773438 135.53125 20.667969 C 134.296875 20.492188 133.035156 20.507812 131.785156 20.480469 C 131.652344 20.476562 131.4375 20.703125 131.398438 20.859375 C 131.039062 22.199219 130.714844 23.546875 130.335938 25.058594 Z M 130.335938 25.058594 "/>
<path style=" stroke:none;fill-rule:nonzero;fill:rgb(0%,43.529412%,27.058825%);fill-opacity:1;" d="M 197 22.421875 C 195.101562 24.210938 193.402344 25.863281 191.640625 27.453125 C 191.03125 28.003906 190.90625 28.417969 191.316406 29.1875 C 192.472656 31.351562 193.527344 33.570312 194.617188 35.769531 C 194.742188 36.015625 194.839844 36.273438 194.996094 36.632812 C 193.378906 36.632812 191.867188 36.648438 190.355469 36.605469 C 190.15625 36.601562 189.898438 36.316406 189.78125 36.101562 C 189.035156 34.742188 188.316406 33.367188 187.589844 31.996094 C 187.445312 31.726562 187.300781 31.457031 187.097656 31.082031 C 186.042969 32.089844 184.648438 32.671875 184.457031 34.300781 C 184.433594 34.476562 184.363281 34.648438 184.3125 34.824219 C 183.808594 36.632812 183.808594 36.632812 181.898438 36.632812 C 180.871094 36.632812 179.84375 36.632812 178.648438 36.632812 C 180.296875 29.871094 181.921875 23.210938 183.558594 16.519531 C 185.25 16.519531 186.917969 16.519531 188.714844 16.519531 C 187.753906 20.492188 186.796875 24.4375 185.804688 28.535156 C 186.054688 28.359375 186.195312 28.28125 186.308594 28.175781 C 188.210938 26.386719 190.105469 24.59375 192.015625 22.8125 C 192.207031 22.632812 192.488281 22.441406 192.734375 22.433594 C 194.070312 22.402344 195.40625 22.421875 197 22.421875 Z M 197 22.421875 "/>
<path style=" stroke:none;fill-rule:nonzero;fill:rgb(0%,43.529412%,27.058825%);fill-opacity:1;" d="M 161.324219 23.09375 C 160.316406 27.703125 159.347656 32.140625 158.378906 36.574219 C 156.726562 36.574219 155.140625 36.574219 153.503906 36.574219 C 153.695312 35.75 153.878906 34.980469 154.113281 33.972656 C 153.765625 34.265625 153.585938 34.421875 153.402344 34.570312 C 151.4375 36.179688 149.199219 36.820312 146.691406 36.449219 C 143.609375 35.996094 142.15625 33.734375 142.878906 30.484375 C 143.675781 26.890625 146.046875 24.71875 149.355469 23.460938 C 152.242188 22.359375 155.246094 22.300781 158.269531 22.617188 C 159.261719 22.722656 160.242188 22.921875 161.324219 23.09375 Z M 155.417969 25.699219 C 151.132812 24.664062 147.867188 28.777344 148.15625 31.714844 C 148.296875 33.113281 149.363281 33.949219 150.738281 33.671875 C 151.945312 33.433594 152.816406 32.703125 153.496094 31.710938 C 154.738281 29.90625 154.898438 27.765625 155.417969 25.699219 Z M 155.417969 25.699219 "/>
<path style=" stroke:none;fill-rule:nonzero;fill:rgb(0%,43.529412%,27.058825%);fill-opacity:1;" d="M 168.523438 22.417969 C 168.378906 23.203125 168.261719 23.824219 168.128906 24.546875 C 168.308594 24.441406 168.40625 24.40625 168.476562 24.34375 C 170.664062 22.421875 173.253906 22.144531 175.957031 22.644531 C 178.332031 23.085938 179.285156 24.582031 178.773438 27.121094 C 178.160156 30.15625 177.382812 33.160156 176.648438 36.171875 C 176.605469 36.347656 176.332031 36.59375 176.160156 36.597656 C 174.589844 36.632812 173.023438 36.617188 171.351562 36.617188 C 171.683594 35.21875 172 33.894531 172.3125 32.570312 C 172.675781 31.035156 173.03125 29.5 173.386719 27.96875 C 173.40625 27.890625 173.421875 27.816406 173.433594 27.738281 C 173.691406 25.90625 172.59375 24.980469 170.808594 25.535156 C 169.746094 25.863281 168.992188 26.585938 168.359375 27.464844 C 167.410156 28.78125 167.132812 30.347656 166.761719 31.878906 C 166.417969 33.308594 166.078125 34.742188 165.730469 36.171875 C 165.703125 36.296875 165.65625 36.417969 165.609375 36.578125 C 163.917969 36.578125 162.226562 36.578125 160.429688 36.578125 C 160.761719 35.109375 161.078125 33.683594 161.410156 32.257812 C 162.117188 29.214844 162.847656 26.175781 163.527344 23.125 C 163.648438 22.59375 163.835938 22.390625 164.390625 22.40625 C 165.726562 22.441406 167.0625 22.417969 168.523438 22.417969 Z M 168.523438 22.417969 "/>
<path style=" stroke:none;fill-rule:nonzero;fill:rgb(0%,43.529412%,27.058825%);fill-opacity:1;" d="M 83.972656 36.617188 C 84.09375 35.941406 84.199219 35.363281 84.320312 34.671875 C 84.113281 34.769531 84 34.796875 83.917969 34.867188 C 81.539062 36.765625 78.808594 36.9375 75.992188 36.347656 C 74.285156 35.988281 73.488281 34.800781 73.710938 32.929688 C 73.90625 31.269531 74.308594 29.628906 74.675781 27.992188 C 75.050781 26.328125 75.472656 24.675781 75.917969 23.03125 C 75.984375 22.789062 76.3125 22.453125 76.527344 22.445312 C 78.046875 22.394531 79.566406 22.417969 81.207031 22.417969 C 81.144531 22.753906 81.101562 23.019531 81.039062 23.277344 C 80.429688 25.789062 79.8125 28.300781 79.207031 30.8125 C 79.140625 31.085938 79.109375 31.371094 79.089844 31.652344 C 78.984375 33.269531 79.929688 34.066406 81.511719 33.664062 C 83.089844 33.261719 84.152344 32.175781 84.675781 30.714844 C 85.285156 29.019531 85.660156 27.242188 86.117188 25.492188 C 86.34375 24.644531 86.515625 23.78125 86.746094 22.933594 C 86.800781 22.746094 86.992188 22.453125 87.121094 22.449219 C 88.710938 22.417969 90.296875 22.429688 91.972656 22.429688 C 91.484375 24.609375 91.023438 26.671875 90.554688 28.730469 C 90.003906 31.152344 89.429688 33.566406 88.902344 35.992188 C 88.804688 36.453125 88.660156 36.644531 88.160156 36.632812 C 86.796875 36.59375 85.429688 36.617188 83.972656 36.617188 Z M 83.972656 36.617188 "/>
<path style=" stroke:none;fill-rule:nonzero;fill:rgb(0%,43.529412%,27.058825%);fill-opacity:1;" d="M 47.523438 36.667969 C 48.796875 31.285156 50.03125 26.066406 51.292969 20.746094 C 49.105469 20.746094 47.027344 20.746094 44.800781 20.746094 C 45.097656 19.574219 45.351562 18.507812 45.652344 17.453125 C 45.6875 17.335938 45.980469 17.21875 46.152344 17.21875 C 51.984375 17.210938 57.816406 17.21875 63.648438 17.222656 C 63.71875 17.222656 63.792969 17.265625 63.914062 17.304688 C 63.6875 18.234375 63.4375 19.15625 63.246094 20.085938 C 63.140625 20.589844 62.90625 20.75 62.402344 20.738281 C 60.699219 20.710938 58.996094 20.753906 57.292969 20.714844 C 56.695312 20.703125 56.453125 20.878906 56.3125 21.484375 C 55.203125 26.265625 54.046875 31.039062 52.933594 35.816406 C 52.789062 36.433594 52.570312 36.71875 51.878906 36.6875 C 50.464844 36.625 49.046875 36.667969 47.523438 36.667969 Z M 47.523438 36.667969 "/>
<path style=" stroke:none;fill-rule:nonzero;fill:rgb(0%,43.529412%,27.058825%);fill-opacity:1;" d="M 108.121094 26.164062 C 107.355469 26.164062 106.691406 26.164062 105.890625 26.164062 C 106.136719 25.148438 106.332031 24.222656 106.601562 23.320312 C 106.640625 23.175781 107.003906 23.058594 107.222656 23.050781 C 108.945312 22.972656 109.023438 22.996094 109.359375 21.300781 C 109.585938 20.152344 110.082031 19.597656 111.28125 19.480469 C 112.515625 19.359375 113.730469 19.007812 115.125 18.71875 C 114.75 20.230469 114.417969 21.566406 114.0625 23.015625 C 115.339844 23.015625 116.539062 23.015625 117.863281 23.015625 C 117.601562 24.054688 117.398438 24.976562 117.121094 25.875 C 117.074219 26.023438 116.714844 26.148438 116.496094 26.15625 C 115.59375 26.1875 114.691406 26.140625 113.789062 26.195312 C 113.570312 26.207031 113.230469 26.460938 113.175781 26.667969 C 112.773438 28.191406 112.378906 29.71875 112.082031 31.265625 C 111.800781 32.722656 112.246094 33.191406 113.742188 33.21875 C 114.097656 33.226562 114.449219 33.21875 114.902344 33.21875 C 114.726562 34.207031 114.574219 35.167969 114.367188 36.113281 C 114.339844 36.246094 114.054688 36.40625 113.886719 36.410156 C 112.324219 36.429688 110.726562 36.617188 109.203125 36.367188 C 106.984375 36.003906 106.25 34.5 106.796875 32.027344 C 107.191406 30.261719 107.617188 28.503906 108.027344 26.742188 C 108.0625 26.59375 108.078125 26.441406 108.121094 26.164062 Z M 108.121094 26.164062 "/>
<path style=" stroke:none;fill-rule:nonzero;fill:rgb(0%,43.529412%,27.058825%);fill-opacity:1;" d="M 104.863281 23.046875 C 104.597656 24.058594 104.359375 24.976562 104.132812 25.84375 C 102.867188 25.703125 101.675781 25.527344 100.476562 25.457031 C 99.980469 25.429688 99.445312 25.550781 98.980469 25.742188 C 98.089844 26.109375 98.015625 26.925781 98.816406 27.457031 C 99.261719 27.75 99.785156 27.925781 100.269531 28.160156 C 101.128906 28.578125 102.023438 28.933594 102.828125 29.433594 C 105.238281 30.933594 104.535156 33.539062 103.144531 34.765625 C 101.851562 35.910156 100.261719 36.339844 98.617188 36.574219 C 96.394531 36.886719 94.195312 36.734375 92.027344 36.152344 C 91.832031 36.097656 91.644531 36.019531 91.371094 35.921875 C 91.621094 34.933594 91.867188 33.972656 92.105469 33.050781 C 93.425781 33.3125 94.667969 33.640625 95.933594 33.777344 C 96.671875 33.859375 97.488281 33.765625 98.195312 33.53125 C 99.152344 33.210938 99.242188 32.265625 98.414062 31.679688 C 97.894531 31.3125 97.273438 31.09375 96.703125 30.804688 C 95.945312 30.417969 95.140625 30.101562 94.453125 29.617188 C 92.609375 28.324219 92.476562 26.238281 94.089844 24.640625 C 95.175781 23.566406 96.554688 23.066406 98.019531 22.796875 C 100.277344 22.375 102.519531 22.433594 104.863281 23.046875 Z M 104.863281 23.046875 "/>
<path style=" stroke:none;fill-rule:nonzero;fill:rgb(0%,43.529412%,27.058825%);fill-opacity:1;" d="M 63.101562 22.492188 C 64.292969 22.492188 65.425781 22.492188 66.554688 22.492188 C 66.835938 22.492188 67.113281 22.492188 67.460938 22.492188 C 67.308594 23.410156 67.171875 24.242188 67.0625 24.882812 C 68.027344 24.296875 69 23.511719 70.109375 23.085938 C 71.238281 22.65625 72.5 22.589844 73.925781 22.320312 C 73.550781 23.773438 73.261719 24.960938 72.925781 26.136719 C 72.886719 26.265625 72.566406 26.398438 72.378906 26.394531 C 68.910156 26.335938 67.285156 28.5 66.574219 31.171875 C 66.183594 32.644531 65.789062 34.121094 65.511719 35.617188 C 65.355469 36.460938 65 36.683594 64.1875 36.640625 C 62.828125 36.566406 61.460938 36.621094 59.996094 36.621094 C 61.035156 31.886719 62.058594 27.25 63.101562 22.492188 Z M 63.101562 22.492188 "/>
<path style=" stroke:none;fill-rule:nonzero;fill:rgb(68.627453%,12.156863%,14.117648%);fill-opacity:1;" d="M 53.347656 40.886719 L 52.542969 48.894531 L 51.195312 48.894531 L 51.34375 47.695312 L 49.894531 47.695312 L 49.394531 48.894531 L 48.285156 48.894531 L 51.738281 40.886719 Z M 51.445312 46.78125 L 51.910156 42.902344 L 50.277344 46.78125 Z M 51.445312 46.78125 "/>
<path style=" stroke:none;fill-rule:nonzero;fill:rgb(68.627453%,12.156863%,14.117648%);fill-opacity:1;" d="M 63.109375 41.792969 C 63.109375 41.929688 63.089844 42.089844 63.042969 42.273438 L 62.691406 43.578125 C 62.5 44.296875 62.011719 44.652344 61.515625 44.789062 C 61.875 44.902344 62.148438 45.144531 62.148438 45.601562 C 62.148438 45.726562 62.136719 45.875 62.078125 46.046875 L 61.695312 47.511719 C 61.398438 48.65625 60.515625 48.894531 59.496094 48.894531 L 57.523438 48.894531 L 59.652344 40.886719 L 61.589844 40.886719 C 62.441406 40.886719 63.109375 41.058594 63.109375 41.792969 Z M 60.84375 45.566406 C 60.84375 45.359375 60.730469 45.222656 60.4375 45.222656 L 59.847656 45.222656 L 59.113281 48.015625 L 59.703125 48.015625 C 60.085938 48.015625 60.277344 47.773438 60.359375 47.464844 L 60.8125 45.761719 C 60.832031 45.691406 60.84375 45.625 60.84375 45.566406 Z M 61.707031 42.109375 C 61.707031 41.917969 61.605469 41.769531 61.320312 41.769531 L 60.765625 41.769531 L 60.085938 44.320312 L 60.640625 44.320312 C 61.015625 44.320312 61.21875 44.078125 61.296875 43.78125 L 61.683594 42.316406 C 61.695312 42.238281 61.707031 42.167969 61.707031 42.109375 Z M 61.707031 42.109375 "/>
<path style=" stroke:none;fill-rule:nonzero;fill:rgb(68.627453%,12.156863%,14.117648%);fill-opacity:1;" d="M 68.582031 43.117188 L 67.039062 48.894531 L 65.964844 48.894531 L 65.976562 48.484375 C 65.644531 48.792969 65.285156 48.976562 64.886719 48.976562 C 64.289062 48.976562 63.84375 48.816406 63.84375 48.1875 C 63.84375 48.039062 63.867188 47.855469 63.925781 47.648438 L 64.785156 44.433594 C 65.078125 43.3125 65.703125 43.027344 66.425781 43.027344 C 66.878906 43.027344 67.164062 43.1875 67.3125 43.484375 L 67.503906 43.121094 L 68.582031 43.121094 Z M 66.132812 47.582031 L 66.394531 46.605469 L 66.769531 45.222656 L 66.757812 45.222656 L 66.914062 44.640625 L 66.984375 44.386719 C 66.996094 44.320312 67.003906 44.25 67.003906 44.195312 C 67.003906 44 66.902344 43.882812 66.644531 43.882812 C 66.246094 43.882812 66.132812 44.101562 66.042969 44.445312 L 65.203125 47.589844 C 65.171875 47.695312 65.160156 47.785156 65.160156 47.867188 C 65.160156 48.039062 65.25 48.140625 65.511719 48.140625 C 65.886719 48.140625 66.042969 47.910156 66.132812 47.582031 Z M 66.132812 47.582031 "/>
<path style=" stroke:none;fill-rule:nonzero;fill:rgb(68.627453%,12.156863%,14.117648%);fill-opacity:1;" d="M 74.210938 43.804688 C 74.210938 43.964844 74.1875 44.148438 74.132812 44.363281 L 72.929688 48.894531 L 71.660156 48.894531 L 72.839844 44.46875 C 72.875 44.351562 72.882812 44.261719 72.882812 44.183594 C 72.882812 43.988281 72.78125 43.886719 72.53125 43.886719 C 72.171875 43.886719 72.011719 44.089844 71.921875 44.402344 L 70.730469 48.898438 L 69.472656 48.898438 L 71 43.132812 L 72.078125 43.132812 L 72.066406 43.578125 C 72.382812 43.234375 72.757812 43.027344 73.1875 43.027344 C 73.78125 43.027344 74.210938 43.1875 74.210938 43.804688 Z M 74.210938 43.804688 "/>
<path style=" stroke:none;fill-rule:nonzero;fill:rgb(68.627453%,12.156863%,14.117648%);fill-opacity:1;" d="M 78.535156 45.5 L 78.976562 48.894531 L 77.707031 48.894531 L 77.355469 46.230469 L 77.230469 46.230469 L 76.519531 48.894531 L 75.261719 48.894531 L 77.390625 40.886719 L 78.648438 40.886719 L 77.46875 45.304688 L 77.5625 45.304688 L 79.125 43.128906 L 80.359375 43.128906 Z M 78.535156 45.5 "/>
<path style=" stroke:none;fill-rule:nonzero;fill:rgb(68.627453%,12.156863%,14.117648%);fill-opacity:1;" d="M 88.402344 40.84375 L 88.164062 41.722656 L 87.765625 41.722656 C 87.324219 41.722656 86.984375 41.835938 86.894531 42.214844 L 86.65625 43.128906 L 87.507812 43.128906 L 87.269531 43.988281 L 86.429688 43.988281 L 85.125 48.894531 L 83.859375 48.894531 L 85.160156 43.988281 L 84.730469 43.988281 L 84.957031 43.128906 L 85.386719 43.128906 L 85.636719 42.203125 C 85.953125 40.988281 86.757812 40.804688 87.765625 40.804688 C 88.003906 40.804688 88.332031 40.832031 88.402344 40.84375 Z M 88.402344 40.84375 "/>
<path style=" stroke:none;fill-rule:nonzero;fill:rgb(68.627453%,12.156863%,14.117648%);fill-opacity:1;" d="M 88.070312 48.105469 C 88.070312 47.957031 88.09375 47.773438 88.148438 47.582031 L 88.988281 44.398438 C 89.292969 43.257812 90.042969 43.027344 91.074219 43.027344 C 91.910156 43.027344 92.511719 43.1875 92.511719 43.882812 C 92.511719 44.035156 92.476562 44.207031 92.433594 44.398438 L 91.59375 47.582031 C 91.289062 48.722656 90.519531 48.953125 89.507812 48.953125 C 88.660156 48.953125 88.070312 48.792969 88.070312 48.105469 Z M 90.335938 47.589844 L 91.175781 44.386719 C 91.199219 44.308594 91.21875 44.214844 91.21875 44.148438 C 91.21875 43.964844 91.128906 43.851562 90.859375 43.851562 C 90.472656 43.851562 90.328125 44.089844 90.246094 44.386719 L 89.410156 47.589844 C 89.386719 47.671875 89.363281 47.761719 89.363281 47.832031 C 89.363281 48.015625 89.453125 48.128906 89.726562 48.128906 C 90.109375 48.128906 90.257812 47.890625 90.335938 47.589844 Z M 90.335938 47.589844 "/>
<path style=" stroke:none;fill-rule:nonzero;fill:rgb(68.627453%,12.156863%,14.117648%);fill-opacity:1;" d="M 98.097656 43.679688 C 98.097656 43.851562 98.0625 44.078125 97.984375 44.363281 L 97.835938 44.914062 L 96.578125 44.914062 L 96.703125 44.433594 C 96.738281 44.320312 96.757812 44.214844 96.757812 44.136719 C 96.757812 43.976562 96.679688 43.882812 96.5 43.882812 C 96.214844 43.882812 96.089844 44.113281 96 44.445312 L 94.820312 48.894531 L 93.5625 48.894531 L 95.09375 43.128906 L 96.167969 43.128906 L 96.15625 43.578125 C 96.429688 43.269531 96.792969 43.027344 97.246094 43.027344 C 97.789062 43.027344 98.097656 43.164062 98.097656 43.679688 Z M 98.097656 43.679688 "/>
<path style=" stroke:none;fill-rule:nonzero;fill:rgb(68.627453%,12.156863%,14.117648%);fill-opacity:1;" d="M 104.902344 41.871094 L 104.257812 44.285156 L 105.796875 44.285156 L 105.539062 45.257812 L 103.996094 45.257812 L 103.035156 48.894531 L 101.6875 48.894531 L 103.816406 40.886719 L 106.703125 40.886719 L 106.433594 41.871094 Z M 104.902344 41.871094 "/>
<path style=" stroke:none;fill-rule:nonzero;fill:rgb(68.627453%,12.156863%,14.117648%);fill-opacity:1;" d="M 108.355469 43.128906 L 109.617188 43.128906 L 108.085938 48.894531 L 106.828125 48.894531 Z M 108.539062 42.019531 C 108.539062 41.492188 109.050781 41.035156 109.535156 41.035156 C 109.898438 41.035156 110.125 41.277344 110.125 41.609375 C 110.125 42.121094 109.617188 42.589844 109.128906 42.589844 C 108.777344 42.589844 108.539062 42.339844 108.539062 42.019531 Z M 108.539062 42.019531 "/>
<path style=" stroke:none;fill-rule:nonzero;fill:rgb(68.627453%,12.156863%,14.117648%);fill-opacity:1;" d="M 115.289062 43.804688 C 115.289062 43.964844 115.265625 44.148438 115.210938 44.363281 L 114.011719 48.894531 L 112.742188 48.894531 L 113.917969 44.46875 C 113.953125 44.351562 113.964844 44.261719 113.964844 44.183594 C 113.964844 43.988281 113.863281 43.886719 113.613281 43.886719 C 113.25 43.886719 113.089844 44.089844 113.003906 44.402344 L 111.8125 48.898438 L 110.554688 48.898438 L 112.085938 43.132812 L 113.160156 43.132812 L 113.148438 43.578125 C 113.464844 43.234375 113.839844 43.027344 114.269531 43.027344 C 114.859375 43.027344 115.289062 43.1875 115.289062 43.804688 Z M 115.289062 43.804688 "/>
<path style=" stroke:none;fill-rule:nonzero;fill:rgb(68.627453%,12.156863%,14.117648%);fill-opacity:1;" d="M 121.257812 43.117188 L 119.71875 48.894531 L 118.640625 48.894531 L 118.652344 48.484375 C 118.324219 48.792969 117.964844 48.976562 117.566406 48.976562 C 116.964844 48.976562 116.523438 48.816406 116.523438 48.1875 C 116.523438 48.039062 116.546875 47.855469 116.601562 47.648438 L 117.464844 44.433594 C 117.761719 43.3125 118.382812 43.027344 119.109375 43.027344 C 119.5625 43.027344 119.84375 43.1875 119.992188 43.484375 L 120.183594 43.121094 L 121.257812 43.121094 Z M 118.8125 47.582031 L 119.070312 46.605469 L 119.445312 45.222656 L 119.433594 45.222656 L 119.59375 44.640625 L 119.664062 44.386719 C 119.675781 44.320312 119.683594 44.25 119.683594 44.195312 C 119.683594 44 119.582031 43.882812 119.324219 43.882812 C 118.925781 43.882812 118.8125 44.101562 118.722656 44.445312 L 117.882812 47.589844 C 117.851562 47.695312 117.839844 47.785156 117.839844 47.867188 C 117.839844 48.039062 117.929688 48.140625 118.191406 48.140625 C 118.5625 48.140625 118.722656 47.910156 118.8125 47.582031 Z M 118.8125 47.582031 "/>
<path style=" stroke:none;fill-rule:nonzero;fill:rgb(68.627453%,12.156863%,14.117648%);fill-opacity:1;" d="M 126.886719 43.804688 C 126.886719 43.964844 126.863281 44.148438 126.808594 44.363281 L 125.609375 48.894531 L 124.339844 48.894531 L 125.515625 44.46875 C 125.550781 44.351562 125.5625 44.261719 125.5625 44.183594 C 125.5625 43.988281 125.460938 43.886719 125.210938 43.886719 C 124.847656 43.886719 124.6875 44.089844 124.601562 44.402344 L 123.410156 48.898438 L 122.152344 48.898438 L 123.683594 43.132812 L 124.757812 43.132812 L 124.746094 43.578125 C 125.0625 43.234375 125.4375 43.027344 125.867188 43.027344 C 126.457031 43.027344 126.886719 43.1875 126.886719 43.804688 Z M 126.886719 43.804688 "/>
<path style=" stroke:none;fill-rule:nonzero;fill:rgb(68.627453%,12.156863%,14.117648%);fill-opacity:1;" d="M 128.132812 48.105469 C 128.132812 47.957031 128.15625 47.785156 128.210938 47.582031 L 129.046875 44.398438 C 129.355469 43.257812 130.089844 43.027344 131.109375 43.027344 C 131.949219 43.027344 132.527344 43.1875 132.527344 43.871094 C 132.527344 44.023438 132.503906 44.203125 132.449219 44.398438 L 132.3125 44.914062 L 131.066406 44.914062 L 131.199219 44.386719 C 131.222656 44.296875 131.234375 44.203125 131.234375 44.136719 C 131.234375 43.964844 131.15625 43.851562 130.894531 43.851562 C 130.523438 43.851562 130.386719 44.089844 130.304688 44.386719 L 129.46875 47.589844 C 129.445312 47.683594 129.421875 47.773438 129.421875 47.84375 C 129.421875 48.015625 129.5 48.128906 129.773438 48.128906 C 130.148438 48.128906 130.273438 47.886719 130.351562 47.589844 L 130.488281 47.078125 L 131.746094 47.078125 L 131.609375 47.578125 C 131.316406 48.722656 130.554688 48.953125 129.546875 48.953125 C 128.699219 48.953125 128.132812 48.792969 128.132812 48.105469 Z M 128.132812 48.105469 "/>
<path style=" stroke:none;fill-rule:nonzero;fill:rgb(68.627453%,12.156863%,14.117648%);fill-opacity:1;" d="M 134.972656 43.128906 L 136.230469 43.128906 L 134.703125 48.894531 L 133.445312 48.894531 Z M 135.152344 42.019531 C 135.152344 41.492188 135.664062 41.035156 136.152344 41.035156 C 136.511719 41.035156 136.742188 41.277344 136.742188 41.609375 C 136.742188 42.121094 136.230469 42.589844 135.742188 42.589844 C 135.390625 42.589844 135.152344 42.339844 135.152344 42.019531 Z M 135.152344 42.019531 "/>
<path style=" stroke:none;fill-rule:nonzero;fill:rgb(68.627453%,12.156863%,14.117648%);fill-opacity:1;" d="M 142.050781 43.117188 L 140.511719 48.894531 L 139.433594 48.894531 L 139.445312 48.484375 C 139.117188 48.792969 138.757812 48.976562 138.359375 48.976562 C 137.757812 48.976562 137.316406 48.816406 137.316406 48.1875 C 137.316406 48.039062 137.339844 47.855469 137.394531 47.648438 L 138.257812 44.433594 C 138.554688 43.3125 139.175781 43.027344 139.902344 43.027344 C 140.355469 43.027344 140.636719 43.1875 140.785156 43.484375 L 140.976562 43.121094 L 142.050781 43.121094 Z M 139.605469 47.582031 L 139.867188 46.605469 L 140.238281 45.222656 L 140.226562 45.222656 L 140.386719 44.640625 L 140.457031 44.386719 C 140.46875 44.320312 140.476562 44.25 140.476562 44.195312 C 140.476562 44 140.375 43.882812 140.117188 43.882812 C 139.71875 43.882812 139.605469 44.101562 139.515625 44.445312 L 138.675781 47.589844 C 138.644531 47.695312 138.632812 47.785156 138.632812 47.867188 C 138.632812 48.039062 138.722656 48.140625 138.984375 48.140625 C 139.355469 48.140625 139.515625 47.910156 139.605469 47.582031 Z M 139.605469 47.582031 "/>
<path style=" stroke:none;fill-rule:nonzero;fill:rgb(68.627453%,12.156863%,14.117648%);fill-opacity:1;" d="M 145.074219 40.886719 L 146.34375 40.886719 L 144.214844 48.894531 L 142.945312 48.894531 Z M 145.074219 40.886719 "/>
<path style=" stroke:none;fill-rule:nonzero;fill:rgb(68.627453%,12.156863%,14.117648%);fill-opacity:1;" d="M 151.746094 40.886719 L 153.09375 40.886719 L 150.964844 48.894531 L 149.617188 48.894531 Z M 151.746094 40.886719 "/>
<path style=" stroke:none;fill-rule:nonzero;fill:rgb(68.627453%,12.156863%,14.117648%);fill-opacity:1;" d="M 158.226562 43.804688 C 158.226562 43.964844 158.203125 44.148438 158.148438 44.363281 L 156.945312 48.894531 L 155.679688 48.894531 L 156.855469 44.46875 C 156.890625 44.351562 156.902344 44.261719 156.902344 44.183594 C 156.902344 43.988281 156.800781 43.886719 156.550781 43.886719 C 156.1875 43.886719 156.027344 44.089844 155.9375 44.402344 L 154.75 48.898438 L 153.492188 48.898438 L 155.019531 43.132812 L 156.097656 43.132812 L 156.085938 43.578125 C 156.402344 43.234375 156.777344 43.027344 157.207031 43.027344 C 157.796875 43.027344 158.226562 43.1875 158.226562 43.804688 Z M 158.226562 43.804688 "/>
<path style=" stroke:none;fill-rule:nonzero;fill:rgb(68.627453%,12.156863%,14.117648%);fill-opacity:1;" d="M 159.46875 48.105469 C 159.46875 47.957031 159.492188 47.785156 159.550781 47.582031 L 160.386719 44.398438 C 160.695312 43.257812 161.429688 43.027344 162.449219 43.027344 C 163.289062 43.027344 163.867188 43.1875 163.867188 43.871094 C 163.867188 44.023438 163.84375 44.203125 163.789062 44.398438 L 163.652344 44.914062 L 162.40625 44.914062 L 162.539062 44.386719 C 162.5625 44.296875 162.574219 44.203125 162.574219 44.136719 C 162.574219 43.964844 162.496094 43.851562 162.234375 43.851562 C 161.863281 43.851562 161.726562 44.089844 161.644531 44.386719 L 160.808594 47.589844 C 160.785156 47.683594 160.761719 47.773438 160.761719 47.84375 C 160.761719 48.015625 160.839844 48.128906 161.113281 48.128906 C 161.488281 48.128906 161.613281 47.886719 161.691406 47.589844 L 161.828125 47.078125 L 163.085938 47.078125 L 162.949219 47.578125 C 162.652344 48.722656 161.894531 48.953125 160.886719 48.953125 C 160.039062 48.953125 159.46875 48.792969 159.46875 48.105469 Z M 159.46875 48.105469 "/>
<path style=" stroke:none;fill-rule:nonzero;fill:rgb(68.627453%,12.156863%,14.117648%);fill-opacity:1;" d="M 166.84375 40.886719 L 168.113281 40.886719 L 165.984375 48.894531 L 164.714844 48.894531 Z M 166.84375 40.886719 "/>
<path style=" stroke:none;fill-rule:nonzero;fill:rgb(68.627453%,12.156863%,14.117648%);fill-opacity:1;" d="M 173.347656 43.128906 L 171.816406 48.894531 L 170.730469 48.894531 L 170.742188 48.484375 C 170.402344 48.804688 170.015625 49 169.621094 49 C 169.042969 49 168.613281 48.839844 168.613281 48.222656 C 168.613281 48.0625 168.636719 47.878906 168.691406 47.660156 L 169.890625 43.128906 L 171.148438 43.128906 L 169.972656 47.589844 C 169.9375 47.695312 169.925781 47.785156 169.925781 47.867188 C 169.925781 48.039062 170.027344 48.140625 170.289062 48.140625 C 170.652344 48.140625 170.820312 47.910156 170.902344 47.578125 L 170.902344 47.566406 L 172.078125 43.128906 Z M 173.347656 43.128906 "/>
<path style=" stroke:none;fill-rule:nonzero;fill:rgb(68.627453%,12.156863%,14.117648%);fill-opacity:1;" d="M 174.332031 48.128906 C 174.332031 47.992188 174.351562 47.832031 174.410156 47.625 L 174.566406 47.03125 L 175.824219 47.03125 L 175.679688 47.578125 C 175.644531 47.683594 175.632812 47.761719 175.632812 47.855469 C 175.632812 48.015625 175.710938 48.117188 175.972656 48.117188 C 176.335938 48.117188 176.480469 47.886719 176.574219 47.578125 L 176.765625 46.847656 C 176.785156 46.757812 176.800781 46.6875 176.800781 46.617188 C 176.800781 46.457031 176.707031 46.367188 176.46875 46.367188 L 176.003906 46.367188 C 175.324219 46.367188 174.960938 46.09375 174.960938 45.644531 C 174.960938 45.554688 174.972656 45.460938 175.007812 45.359375 L 175.269531 44.386719 C 175.574219 43.242188 176.34375 43.015625 177.320312 43.015625 C 178.109375 43.015625 178.769531 43.175781 178.769531 43.859375 C 178.769531 44 178.734375 44.15625 178.691406 44.339844 L 178.542969 44.914062 L 177.285156 44.914062 L 177.421875 44.398438 C 177.433594 44.308594 177.457031 44.226562 177.457031 44.144531 C 177.457031 43.972656 177.363281 43.859375 177.105469 43.859375 C 176.742188 43.859375 176.605469 44.089844 176.515625 44.398438 L 176.355469 45.039062 C 176.335938 45.128906 176.3125 45.199219 176.3125 45.269531 C 176.3125 45.429688 176.414062 45.53125 176.652344 45.53125 L 177.117188 45.53125 C 177.796875 45.53125 178.148438 45.816406 178.148438 46.285156 C 178.148438 46.367188 178.136719 46.457031 178.113281 46.5625 L 177.828125 47.589844 C 177.523438 48.734375 176.71875 48.964844 175.757812 48.964844 C 174.929688 48.964844 174.332031 48.804688 174.332031 48.128906 Z M 174.332031 48.128906 "/>
<path style=" stroke:none;fill-rule:nonzero;fill:rgb(68.627453%,12.156863%,14.117648%);fill-opacity:1;" d="M 181.351562 43.128906 L 182.609375 43.128906 L 181.082031 48.894531 L 179.824219 48.894531 Z M 181.535156 42.019531 C 181.535156 41.492188 182.046875 41.035156 182.53125 41.035156 C 182.894531 41.035156 183.121094 41.277344 183.121094 41.609375 C 183.121094 42.121094 182.609375 42.589844 182.125 42.589844 C 181.773438 42.589844 181.535156 42.339844 181.535156 42.019531 Z M 181.535156 42.019531 "/>
<path style=" stroke:none;fill-rule:nonzero;fill:rgb(68.627453%,12.156863%,14.117648%);fill-opacity:1;" d="M 183.71875 48.105469 C 183.71875 47.957031 183.742188 47.773438 183.796875 47.582031 L 184.636719 44.398438 C 184.941406 43.257812 185.691406 43.027344 186.722656 43.027344 C 187.558594 43.027344 188.160156 43.1875 188.160156 43.882812 C 188.160156 44.035156 188.125 44.207031 188.082031 44.398438 L 187.242188 47.582031 C 186.9375 48.722656 186.167969 48.953125 185.160156 48.953125 C 184.308594 48.953125 183.71875 48.792969 183.71875 48.105469 Z M 185.984375 47.589844 L 186.824219 44.386719 C 186.847656 44.308594 186.867188 44.214844 186.867188 44.148438 C 186.867188 43.964844 186.777344 43.851562 186.507812 43.851562 C 186.121094 43.851562 185.972656 44.089844 185.894531 44.386719 L 185.058594 47.589844 C 185.035156 47.671875 185.011719 47.761719 185.011719 47.832031 C 185.011719 48.015625 185.101562 48.128906 185.375 48.128906 C 185.757812 48.128906 185.90625 47.890625 185.984375 47.589844 Z M 185.984375 47.589844 "/>
<path style=" stroke:none;fill-rule:nonzero;fill:rgb(68.627453%,12.156863%,14.117648%);fill-opacity:1;" d="M 193.9375 43.804688 C 193.9375 43.964844 193.914062 44.148438 193.859375 44.363281 L 192.65625 48.894531 L 191.390625 48.894531 L 192.566406 44.46875 C 192.601562 44.351562 192.613281 44.261719 192.613281 44.183594 C 192.613281 43.988281 192.511719 43.886719 192.261719 43.886719 C 191.898438 43.886719 191.738281 44.089844 191.648438 44.402344 L 190.460938 48.898438 L 189.203125 48.898438 L 190.730469 43.132812 L 191.808594 43.132812 L 191.796875 43.578125 C 192.113281 43.234375 192.488281 43.027344 192.917969 43.027344 C 193.507812 43.027344 193.9375 43.1875 193.9375 43.804688 Z M 193.9375 43.804688 "/>
<path style=" stroke:none;fill-rule:nonzero;fill:rgb(0%,43.529412%,27.058825%);fill-opacity:1;" d="M 23.710938 18.261719 L 30.910156 18.261719 L 31.628906 17.300781 L 24.238281 17.300781 L 26.214844 13.707031 L 16.851562 13.707031 L 14.917969 17.300781 L 9.660156 17.300781 L 8.941406 18.261719 L 14.402344 18.261719 L 10.066406 26.320312 C 9.152344 27.933594 10.066406 28.558594 10.066406 28.558594 C 12.425781 30.421875 16.851562 30.234375 16.851562 30.234375 C 27.363281 30.484375 30.566406 25.289062 30.566406 25.289062 L 28.421875 25.089844 C 25.339844 28.574219 21.296875 28.886719 19.273438 28.785156 C 18.664062 28.757812 18.304688 28.09375 18.601562 27.558594 Z M 23.710938 18.261719 "/>
</g>
</svg>
