<?xml version="1.0" encoding="UTF-8"?>
<svg xmlns="http://www.w3.org/2000/svg" xmlns:xlink="http://www.w3.org/1999/xlink" width="200px" height="99px" viewBox="0 0 201 99" version="1.1">
<defs>
<linearGradient id="linear0" gradientUnits="userSpaceOnUse" x1="168.302597" y1="63.877102" x2="259.227509" y2="63.877102" gradientTransform="matrix(0.810949,0,0,0.811941,-9.241698,-8.371115)">
<stop offset="0" style="stop-color:rgb(90.980392%,20%,21.960784%);stop-opacity:1;"/>
<stop offset="0.1751" style="stop-color:rgb(87.843137%,20.392157%,21.960784%);stop-opacity:1;"/>
<stop offset="0.3651" style="stop-color:rgb(81.568627%,20.784314%,21.568627%);stop-opacity:1;"/>
<stop offset="0.5621" style="stop-color:rgb(71.764706%,21.176471%,21.176471%);stop-opacity:1;"/>
<stop offset="0.7639" style="stop-color:rgb(59.215686%,20%,20%);stop-opacity:1;"/>
<stop offset="0.9675" style="stop-color:rgb(44.705882%,18.039216%,17.647059%);stop-opacity:1;"/>
<stop offset="1" style="stop-color:rgb(42.352941%,17.254902%,17.254902%);stop-opacity:1;"/>
</linearGradient>
<linearGradient id="linear1" gradientUnits="userSpaceOnUse" x1="185.134705" y1="27.329399" x2="204.707596" y2="49.198601" gradientTransform="matrix(0.810949,0,0,0.811941,-9.241698,-8.371115)">
<stop offset="0" style="stop-color:rgb(100%,100%,100%);stop-opacity:1;"/>
<stop offset="0.1413" style="stop-color:rgb(100%,100%,100%);stop-opacity:0.858824;"/>
<stop offset="1" style="stop-color:rgb(100%,100%,100%);stop-opacity:0;"/>
</linearGradient>
</defs>
<g id="surface1">
<path style=" stroke:none;fill-rule:nonzero;fill:rgb(24.705882%,25.098041%,25.882354%);fill-opacity:1;" d="M 22.789062 30.035156 L 22.789062 57.394531 C 22.789062 59.832031 20.761719 61.863281 18.332031 61.863281 L 15.003906 61.863281 C 12.574219 61.863281 10.546875 59.832031 10.546875 57.394531 L 10.546875 30.035156 L 4.949219 30.035156 C 2.191406 30.035156 0.00390625 32.226562 0.00390625 34.988281 L 0.00390625 57.394531 C 0.00390625 65.679688 6.734375 71.523438 15.003906 71.523438 L 18.332031 71.523438 C 26.601562 71.523438 33.332031 65.679688 33.332031 57.394531 L 33.332031 34.988281 C 33.332031 32.226562 31.144531 30.035156 28.386719 30.035156 Z M 22.789062 30.035156 "/>
<path style=" stroke:none;fill-rule:nonzero;fill:rgb(24.705882%,25.098041%,25.882354%);fill-opacity:1;" d="M 69.988281 54.554688 C 68.121094 54.554688 66.417969 55.691406 65.609375 57.394531 C 64.3125 60.074219 61.554688 61.941406 58.390625 61.941406 L 56.6875 61.941406 C 52.308594 61.941406 48.660156 58.371094 48.660156 53.90625 L 48.660156 46.515625 C 48.660156 42.132812 52.226562 38.558594 56.605469 38.558594 L 58.308594 38.558594 C 61.3125 38.558594 63.90625 40.183594 65.285156 42.617188 C 66.09375 44.082031 67.71875 44.890625 69.339844 44.890625 L 75.90625 44.890625 C 75.097656 35.878906 67.472656 28.734375 58.230469 28.734375 L 56.527344 28.734375 C 46.714844 28.734375 38.765625 36.691406 38.765625 46.515625 L 38.765625 53.90625 C 38.765625 63.730469 46.714844 71.605469 56.445312 71.605469 L 58.148438 71.605469 C 67.71875 71.605469 75.503906 63.972656 75.828125 54.472656 L 69.988281 54.472656 Z M 69.988281 54.554688 "/>
<path style=" stroke:none;fill-rule:nonzero;fill:rgb(24.705882%,25.098041%,25.882354%);fill-opacity:1;" d="M 109.320312 48.871094 C 111.671875 47.410156 113.210938 44.730469 113.210938 41.808594 L 113.210938 40.265625 C 113.210938 34.417969 108.507812 29.707031 102.667969 29.707031 L 84.667969 29.707031 C 82.152344 29.707031 80.125 31.738281 80.125 34.253906 L 80.125 66.003906 C 80.125 68.601562 82.234375 70.710938 84.828125 70.710938 L 102.34375 70.710938 C 108.914062 70.710938 114.183594 65.433594 114.183594 58.859375 L 114.183594 55.609375 C 114.183594 52.441406 112.15625 49.84375 109.320312 48.871094 Z M 90.019531 38.882812 L 100.238281 38.882812 C 101.535156 38.882812 102.667969 39.9375 102.667969 41.320312 L 102.667969 42.210938 C 102.667969 43.753906 101.371094 44.8125 99.832031 44.8125 L 90.097656 44.8125 L 90.097656 38.882812 Z M 103.5625 57.882812 C 103.5625 59.832031 101.9375 61.457031 99.992188 61.457031 L 90.019531 61.457031 L 90.019531 53.742188 L 100.722656 53.742188 C 102.265625 53.742188 103.5625 55.042969 103.5625 56.585938 Z M 103.5625 57.882812 "/>
<path style=" stroke:none;fill-rule:nonzero;fill:url(#linear0);" d="M 172.734375 86.871094 C 172.734375 86.871094 173.707031 80.941406 170.464844 77.695312 C 168.519531 75.746094 148.8125 55.527344 134.054688 40.34375 C 124.890625 30.925781 125.050781 15.90625 134.457031 6.648438 C 143.621094 -2.363281 158.382812 -2.199219 167.382812 7.054688 L 194.957031 35.390625 C 203.144531 43.753906 202.984375 57.234375 194.632812 65.433594 Z M 172.734375 86.871094 "/>
<path style=" stroke:none;fill-rule:nonzero;fill:url(#linear1);" d="M 166.894531 69.414062 C 166.894531 69.414062 167.546875 65.273438 165.355469 63.078125 C 163.976562 61.699219 150.351562 47.734375 140.054688 37.179688 C 133.730469 30.683594 133.808594 20.210938 140.378906 13.792969 C 146.785156 7.542969 157.003906 7.707031 163.246094 14.039062 L 182.386719 33.6875 C 188.0625 39.535156 187.980469 48.871094 182.140625 54.554688 Z M 166.894531 69.414062 "/>
<path style=" stroke:none;fill-rule:nonzero;fill:rgb(55.686277%,56.078434%,57.647061%);fill-opacity:1;" d="M 169.898438 82.648438 C 171.113281 85.8125 170.140625 89.46875 167.707031 91.824219 C 167.546875 91.984375 167.382812 92.066406 167.300781 92.226562 C 157.894531 101.402344 142.8125 101.242188 133.648438 91.824219 C 129.1875 87.277344 126.996094 81.429688 126.996094 75.503906 C 126.996094 69.414062 129.347656 63.40625 134.054688 58.859375 L 141.027344 52.039062 C 153.757812 65.027344 166.652344 78.34375 168.273438 79.96875 C 169.003906 80.78125 169.492188 81.671875 169.898438 82.648438 Z M 169.898438 82.648438 "/>
</g>
</svg>
